<svg xmlns="http://www.w3.org/2000/svg" viewBox="0 0 273.85 128.18"><defs><style>.cls-1{fill:#fed927;}.cls-2{fill:#1d1d1b;}.cls-3{fill:#e30613;}.cls-4{fill:#fcbd2c;}.cls-5{fill:#fff;}.cls-6{fill:#e5221c;}</style></defs><g id="Layer_2" data-name="Layer 2"><g id="Layer_4" data-name="Layer 4"><g id="MRT"><rect id="BACKGROUND" class="cls-1" x="140.09" y="25.33" width="133.76" height="77.53"/><g id="METRO_RAYA_TRANS" data-name="METRO RAYA TRANS"><path id="e" class="cls-2" d="M169,86.82v.77a.61.61,0,0,1-.62.61h-.74a.61.61,0,0,1-.61-.61V86h3.86V83.27a1.38,1.38,0,0,0-1.37-1.38h-3.05a1.38,1.38,0,0,0-1.37,1.38v4.39A1.38,1.38,0,0,0,166.45,89h3.05a1.38,1.38,0,0,0,1.37-1.37v-.84Zm-2-3.49a.66.66,0,0,1,.65-.66h.66a.67.67,0,0,1,.66.66v1.83h-2Z"/><path id="t" class="cls-2" d="M174.18,84.45V83h3v-.84h-3V79.65h-1.67v2.48h-.8V83h.8v4.86a1.2,1.2,0,0,0,1.2,1.2h1.92a1.6,1.6,0,0,0,1.59-1.59v-.89h-1.93v.83a.5.5,0,0,1-.5.5h-.1a.5.5,0,0,1-.51-.5V84.45Z"/><path id="r" class="cls-2" d="M182.51,81.9h0a2.18,2.18,0,0,0-.5,0,2.12,2.12,0,0,0-1.45,1.11V81.89H177.8v1.33h.52v4.52h-.53v1.33h3.26V87.74h-.53V84.66a1.72,1.72,0,0,1,.4-1c.28-.34.73-.49.73-.34v2.42h2.19V83.24A1.34,1.34,0,0,0,182.51,81.9Z"/><path id="_0" data-name="0" class="cls-2" d="M189.05,81.89h-3.56A1.12,1.12,0,0,0,184.37,83V88a1.12,1.12,0,0,0,1.12,1.11h3.56A1.11,1.11,0,0,0,190.16,88V83A1.12,1.12,0,0,0,189.05,81.89Zm-.81,5.47a.6.6,0,0,1-.6.6h-.74a.6.6,0,0,1-.61-.6V83.61a.61.61,0,0,1,.61-.61h.74a.6.6,0,0,1,.6.61Z"/><path id="a" class="cls-2" d="M214.45,87.7V83.21a1.32,1.32,0,0,0-1.32-1.32h-2.6a1.32,1.32,0,0,0-1.32,1.32v1.17h1.93V83h1.37V85h-2a1.3,1.3,0,0,0-1.31,1.31v1.49a1.31,1.31,0,0,0,1.31,1.31H215V87.7Zm-1.94.28h-1.37V85.77h1.37Z"/><path id="y" class="cls-2" d="M220.22,81.89h-.83v1.46h.83V88h-1.91V81.89h-2.77v1.46h.83v4.43a1.3,1.3,0,0,0,1.16,1.28v0h2.69v1.62h-2V89.62h-1.89v.91a1.31,1.31,0,0,0,1.31,1.31h3.2a1.3,1.3,0,0,0,1.3-1.29V81.89Z"/><path id="a-2" data-name="a" class="cls-2" d="M228.23,87.7V83.21a1.32,1.32,0,0,0-1.31-1.32h-2.61A1.32,1.32,0,0,0,223,83.21v1.17h1.92V83h1.38V85h-2A1.31,1.31,0,0,0,223,86.26v1.49a1.32,1.32,0,0,0,1.32,1.31h4.47V87.7ZM226.3,88h-1.38V85.77h1.38Z"/><path id="r-2" data-name="r" class="cls-2" d="M249,81.9h0a2.21,2.21,0,0,0-.51,0A2.08,2.08,0,0,0,247,83.06V81.89h-2.72v1.33h.52v4.52h-.53v1.33h3.26V87.74H247V84.66a1.65,1.65,0,0,1,.4-1c.28-.34.73-.49.73-.34v2.42a0,0,0,0,0,0,0h2.16a0,0,0,0,0,0,0V83.24A1.34,1.34,0,0,0,249,81.9Z"/><path id="a-3" data-name="a" class="cls-2" d="M256.08,87.7V83.21a1.32,1.32,0,0,0-1.31-1.32h-2.61a1.32,1.32,0,0,0-1.31,1.32v1.17h1.92V83h1.38V85h-2a1.31,1.31,0,0,0-1.31,1.31v1.49a1.31,1.31,0,0,0,1.31,1.31h4.48V87.7Zm-1.93.28h-1.38V85.77h1.38Z"/><path id="n" class="cls-2" d="M262.18,81.9h0a2.18,2.18,0,0,0-.5,0,2.12,2.12,0,0,0-1.45,1.11V81.89h-2.72v1.33H258v4.52h-.53v1.33h3.26V87.74h-.53V84.66a1.72,1.72,0,0,1,.4-1c.28-.34.73-.49.73-.34v5.74h2.19V83.24A1.34,1.34,0,0,0,262.18,81.9Z"/><path id="s" class="cls-2" d="M269.55,85.44c-.48-.43-1.32-.76-3.14-.86a.42.42,0,0,1-.41-.41v-.65a.49.49,0,0,1,.49-.49h1.24a.49.49,0,0,1,.49.49v.58h1.9v-.18a2,2,0,0,0-2-2h-2a2,2,0,0,0-2,2v.18a2,2,0,0,0,.61,1.43c.32.33,1,.85,3.14.87a.41.41,0,0,1,.41.4v.66a.49.49,0,0,1-.49.48h-1.18a.49.49,0,0,1-.49-.48v-.59h-2v.19a2,2,0,0,0,2,2h2a2,2,0,0,0,2-2v-.19A2,2,0,0,0,269.55,85.44Z"/><polygon id="M" class="cls-2" points="161.1 75.35 158.34 81.42 158.92 75.35 156.51 75.35 156.51 75.35 156.51 75.35 151.6 75.56 146.7 75.91 151.6 76.03 155.53 76.23 151.38 76.41 146.47 76.75 151.37 76.88 155.29 77.08 151.15 77.26 146.24 77.59 151.15 77.73 155.05 77.93 150.92 78.11 146.02 78.43 150.92 78.58 154.82 78.79 150.7 78.96 145.79 79.27 150.69 79.43 154.58 79.64 150.47 79.81 145.56 80.11 150.47 80.28 154.34 80.49 150.24 80.66 145.34 80.95 150.24 81.13 154.1 81.34 150.02 81.51 145.11 81.79 150.01 81.98 153.86 82.19 149.79 82.36 144.88 82.63 149.79 82.83 153.63 83.04 149.56 83.21 144.66 83.47 149.56 83.69 153.39 83.9 149.34 84.06 144.43 84.31 149.33 84.54 153.15 84.75 149.11 84.91 144.21 85.15 149.11 85.39 152.91 85.6 148.88 85.76 143.98 85.99 148.88 86.24 152.68 86.45 148.66 86.61 143.75 86.83 148.65 87.09 152.44 87.3 148.43 87.46 143.53 87.67 148.43 87.94 152.2 88.16 148.21 88.31 143.3 88.51 148.2 88.79 152.86 89.06 152.86 89.07 149.33 89.07 149.33 89.07 153.37 89.07 155.48 82.02 154.88 89.07 157.76 89.07 160.92 82.18 159.5 89.07 163.24 89.07 165.53 75.35 161.1 75.35"/><path id="R-3" data-name="R" class="cls-2" d="M208.61,77.49a2,2,0,0,0-1.22-1.55,4.9,4.9,0,0,0-2.54-.55l-1.56,0-3.59.15-5.69.34,5.69.13,3.38.18,0,0-3.58.16-5.7.32,5.69.14,3.38.18v0l-3.59.16-5.69.31,5.69.16,3.37.17v.06l-3.59.15-5.69.3,5.69.17,3.37.18v.05l-3.58.15-5.7.29,5.69.18,3.38.18,0,0-3.58.15-5.7.29,5.7.18,3.37.19,0,0-3.58.16-5.69.27,5.69.2,3.37.18v0l-3.59.15-5.69.26,5.69.21,3.37.18v0l-3.58.15-5.7.25,5.69.22,3.37.19v0l-3.58.15-5.69.24,5.69.24,3.37.18,0,0-3.58.14-5.69.24,5.69.24,3.37.19v0l-3.58.15-5.7.22,5.69.25,3.37.19v0l-3.58.15-5.7.21,5.7.26,3.36.19v0l-3.58.14-5.69.2,5.69.28,3.36.19v0l-3.57.14-5.7.19,5.69.29,3.37.19,0,0-3.57.14-5.7.18,5.69.3,3.37.2,1.48.07,1.1-4.11.39,4.11h4.06l-1.26-5.75a3.7,3.7,0,0,0,2-1.41,6,6,0,0,0,1.06-2.24A4.35,4.35,0,0,0,208.61,77.49Zm-4,2.87a1.89,1.89,0,0,1-2,1.3l.94-3.44S205.51,78.22,204.63,80.36Z"/><polygon id="T-2" data-name="T" class="cls-2" points="238.68 75.41 236.48 75.47 231.55 75.6 236.47 75.94 238.51 76.09 238.46 76.28 236.25 76.34 231.34 76.62 236.25 76.81 238.28 76.95 238.23 77.15 236.03 77.21 231.13 77.47 236.03 77.67 238.06 77.81 238 78.02 235.81 78.08 230.9 78.34 235.81 78.54 240.06 78.81 235.59 78.95 230.68 79.21 235.59 79.41 239.85 79.66 239.85 79.67 235.37 79.82 230.46 80.08 235.37 80.27 239.63 80.52 239.62 80.53 235.15 80.7 230.24 80.95 235.14 81.14 239.4 81.37 239.4 81.4 234.93 81.57 230.02 81.83 234.92 82 239.18 82.22 239.17 82.26 234.71 82.44 229.8 82.7 234.7 82.87 238.96 83.08 238.94 83.12 234.49 83.31 229.58 83.57 234.48 83.74 238.73 83.93 238.72 83.98 234.26 84.18 229.36 84.44 234.26 84.61 238.51 84.78 238.49 84.85 234.04 85.05 229.14 85.31 234.04 85.47 238.28 85.64 238.26 85.71 233.82 85.92 228.92 86.19 233.82 86.34 238.06 86.49 238.04 86.57 233.6 86.8 228.7 87.06 233.6 87.2 237.84 87.35 237.81 87.44 233.38 87.67 228.48 87.93 233.38 88.07 237.61 88.2 237.59 88.3 233.16 88.54 228.26 88.8 233.16 88.94 240.38 89.07 243.12 78.76 245.35 78.76 246.21 75.35 238.68 75.41"/><g id="GARIS_KECIL" data-name="GARIS KECIL"><rect class="cls-2" x="165.08" y="79.65" width="6.63" height="1.44"/><rect class="cls-2" x="175.02" y="79.65" width="15.95" height="1.44"/><rect class="cls-2" x="208.98" y="79.65" width="20.58" height="1.44"/><rect class="cls-2" x="244.25" y="79.65" width="26.4" height="1.44"/></g></g><g id="MRT_BESAR" data-name="MRT BESAR"><polygon class="cls-2" points="184.76 39.4 178.4 53.39 179.74 39.4 174.19 39.4 174.19 39.4 174.19 39.4 162.9 39.89 151.6 40.7 162.89 40.97 171.94 41.44 162.38 41.85 151.08 42.63 162.37 42.93 171.39 43.4 161.85 43.81 150.56 44.56 161.85 44.89 170.84 45.36 161.33 45.77 150.04 46.5 161.33 46.85 170.29 47.32 160.81 47.72 149.52 48.43 160.81 48.8 169.75 49.28 160.29 49.68 149 50.36 160.28 50.76 169.2 51.24 159.77 51.64 148.47 52.3 159.76 52.72 168.65 53.2 159.25 53.59 147.95 54.23 159.24 54.68 168.1 55.16 158.72 55.55 147.43 56.16 158.72 56.64 167.56 57.12 158.2 57.51 146.91 58.1 158.19 58.6 167.01 59.09 157.68 59.47 146.39 60.03 157.67 60.56 166.46 61.05 157.16 61.42 145.87 61.97 157.15 62.52 165.91 63.01 156.64 63.38 145.34 63.9 156.63 64.47 165.37 64.97 156.12 65.34 144.82 65.83 156.11 66.43 164.82 66.93 155.59 67.3 144.3 67.77 155.59 68.39 164.27 68.89 155.07 69.25 143.78 69.7 155.06 70.35 165.79 70.97 165.79 71 157.67 71 157.67 71 166.96 71 171.82 54.77 170.44 71 177.07 71 184.34 55.13 181.08 71 189.68 71 194.96 39.4 184.76 39.4"/><polygon class="cls-2" points="252.82 39.55 247.74 39.68 236.41 39.98 247.72 40.77 252.42 41.11 252.3 41.55 247.23 41.68 235.91 42.33 247.21 42.76 251.9 43.09 251.78 43.55 246.72 43.69 235.42 44.28 246.7 44.76 251.38 45.07 251.25 45.54 246.22 45.7 234.91 46.29 246.2 46.75 256 47.37 245.71 47.7 234.41 48.3 245.69 48.75 255.51 49.34 255.5 49.36 245.2 49.71 233.9 50.31 245.18 50.74 254.99 51.3 254.98 51.34 244.69 51.72 233.39 52.31 244.68 52.74 254.48 53.27 254.46 53.33 244.18 53.72 232.88 54.32 244.17 54.73 253.96 55.23 253.94 55.32 243.67 55.73 232.37 56.33 243.66 56.73 253.45 57.2 253.42 57.3 243.16 57.73 231.87 58.34 243.16 58.72 252.94 59.16 252.9 59.29 242.65 59.74 231.36 60.34 242.65 60.72 252.42 61.13 252.38 61.28 242.14 61.75 230.85 62.35 242.14 62.71 251.91 63.09 251.86 63.26 241.63 63.76 230.34 64.36 241.63 64.71 251.39 65.06 251.34 65.25 241.12 65.76 229.83 66.37 241.13 66.7 250.88 67.03 250.82 67.24 240.61 67.77 229.33 68.37 240.62 68.7 250.36 68.99 250.3 69.22 240.1 69.77 228.82 70.38 240.11 70.69 256.74 71 263.03 47.26 268.18 47.26 270.16 39.4 252.82 39.55"/><path class="cls-2" d="M232.64,44.5a4.72,4.72,0,0,0-2.81-3.58A11.41,11.41,0,0,0,224,39.67l-3.58-.1-8.25.36-13.08.77,13.08.31,7.76.4,0,.12-8.24.36-13.08.74,13.08.33,7.75.41,0,.12-8.24.35-13.08.73,13.08.35,7.75.41,0,.12-8.24.35-13.08.7,13.07.38,7.75.41,0,.12-8.23.35L197,48.43l13.07.41,7.75.41,0,.12-8.23.35-13.08.65,13.07.43,7.75.41,0,.12-8.24.34L196,52.3l13.08.46,7.74.42,0,.11-8.23.34-13.08.6,13.08.49,7.74.42,0,.11-8.23.34-13.08.58,13.07.51,7.74.42,0,.11-8.23.34-13.08.55,13.07.53,7.74.43,0,.11L207,59.5,193.88,60l13.07.55,7.74.43,0,.11-8.22.33L193.36,62l13.07.58,7.73.43,0,.11-8.22.33-13.09.48,13.08.61,7.73.44,0,.09-8.22.33-13.08.47,13.07.63,7.73.44,0,.09-8.22.33-13.08.44,13.07.66,7.73.44,0,.09-8.22.33-13.08.41,13.07.69,7.73.44,3.4.17L218,61.56l.9,9.44h9.33l-2.89-13.2A8.64,8.64,0,0,0,230,54.56a14,14,0,0,0,2.42-5.15A9.83,9.83,0,0,0,232.64,44.5Zm-9.14,6.6a4.38,4.38,0,0,1-4.72,3l2.15-7.91S225.5,46.17,223.5,51.1Z"/></g><g id="FRAME"><rect class="cls-3" x="142.95" y="33.92" width="128.03" height="1.63"/><rect class="cls-3" x="142.95" y="92.63" width="128.03" height="1.63"/></g></g><g id="TBK"><circle id="BACKGROUND-2" data-name="BACKGROUND" class="cls-4" cx="64.09" cy="64.09" r="64.09"/><g id="TRUCK"><path class="cls-5" d="M34,49.79H26.6v7.75h.06V59.1h1.57v7.65H17.29V65.19H15.72V57.54h1.6V49.79H11.49V48.23H9.92V39.07H32.46v1.57H34Zm-4.29-8v3.7H27.61v-1.6H22.25V60.3H24v2.16H18.45V60.3h1.73V43.93H14.82v1.6H12.75v-3.7ZM20.8,44v.84h.82V44Zm1.57,16.89v.91h.81v-.91ZM28.23,44v.84h.88V44Z"/><path class="cls-5" d="M54.51,62.9l-4,3.86H37V65.19H35.48V57.54h1.6V48.32h0V46.75H35.48V39.07H49l5.52,5.52v8l-.95,1,.95.94Zm-4.36-9.19v5.83l-2.92,2.92h-9V60.33H39.8V43.93H38.23V41.8h9.19l2.73,2.7v5.7L48.39,52ZM40.43,44v.87h.88V44Zm6.17,7.17,1.45-1.47v-4l-1.79-1.79H41.93v7.24Zm-.15,9.16,1.6-1.6V54.56l-1.45-1.5H41.93v7.27ZM42,51.8v.63h.87V51.8ZM42,61v.87h.87V61ZM45.92,46v3.3H44V46Zm0,9.13v3.07H44V55.16ZM47.2,44l2.32,2.32V44.78L48.74,44Zm1.22,9.37h-.65l.59.63h.06l1.1,1.12V54l-.85-.85Z"/><polygon class="cls-5" points="78.74 66.76 57.67 66.76 57.67 65.19 56.1 65.19 56.1 57.54 57.76 57.54 57.76 48.29 57.67 48.29 57.67 46.73 56.1 46.73 56.1 39.08 77.17 39.08 77.17 40.64 78.74 40.64 78.74 48.29 75.57 48.29 73.13 51.46 75.07 57.54 77.17 57.54 77.17 59.11 78.74 59.11 78.74 66.76"/><polygon class="cls-5" points="74.44 60.3 74.44 62.37 68.8 62.4 68.8 60.3 70.93 60.3 67.64 50.71 62.62 57.01 62.62 60.3 64.47 60.3 64.47 62.46 58.86 62.46 58.86 60.3 60.49 60.3 60.49 43.94 58.86 43.94 58.86 41.8 64.47 41.8 64.47 43.94 62.62 43.94 62.62 54.53 70.99 43.94 69.08 43.94 69.08 41.8 74.38 41.8 74.38 43.94 73.03 43.94 68.89 49.14 72.78 60.3 74.44 60.3"/><rect class="cls-5" x="61.12" y="44" width="0.88" height="0.88"/><polygon class="cls-5" points="62.69 55.47 62.69 55.94 63.56 54.85 63.56 54.38 62.69 55.47"/><rect class="cls-5" x="62.68" y="60.93" width="0.88" height="0.91"/><polygon class="cls-5" points="69.02 51.49 68.89 51.15 68.58 51.55 68.71 51.9 69.02 51.49"/><polygon class="cls-5" points="71.28 44.88 71.46 44.88 72.15 44 71.71 44 71.28 44.59 71.28 44.88"/><polygon class="cls-5" points="72.84 60.93 73.13 61.77 73.63 61.77 73.34 60.93 72.84 60.93"/><g id="TBK-2" data-name="TBK"><g id="T-3" data-name="T"><polygon class="cls-2" points="34.03 49.79 26.6 49.79 26.6 57.54 26.66 57.54 26.66 59.11 28.23 59.11 28.23 66.75 17.29 66.75 17.29 65.19 15.72 65.19 15.72 57.54 17.32 57.54 17.32 49.79 11.49 49.79 11.49 48.23 9.92 48.23 9.92 39.07 32.46 39.07 32.46 40.64 34.03 40.64 34.03 49.79"/><polygon class="cls-5" points="25.29 47.6 31.84 47.6 31.84 39.7 10.55 39.7 10.55 47.6 17.13 47.6 17.13 46.09 17.95 46.09 17.95 58.16 16.35 58.16 16.35 64.56 26.04 64.56 26.04 58.16 24.41 58.16 24.41 46.09 25.29 46.09 25.29 47.6"/><polygon class="cls-2" points="29.74 41.83 29.74 45.53 27.6 45.53 27.6 43.93 22.24 43.93 22.24 60.3 24.03 60.3 24.03 62.46 18.45 62.46 18.45 60.3 20.18 60.3 20.18 43.93 14.81 43.93 14.81 45.53 12.74 45.53 12.74 41.83 29.74 41.83"/><rect class="cls-5" x="20.8" y="44.03" width="0.81" height="0.85"/><rect class="cls-5" x="22.37" y="60.92" width="0.81" height="0.91"/><rect class="cls-5" x="28.23" y="44.03" width="0.88" height="0.85"/></g><g id="B"><polygon class="cls-2" points="54.5 62.9 50.55 66.75 37.04 66.75 37.04 65.19 35.47 65.19 35.47 57.54 37.07 57.54 37.07 48.32 37.04 48.32 37.04 46.75 35.47 46.75 35.47 39.07 48.98 39.07 54.5 44.59 54.5 52.59 53.56 53.52 54.5 54.47 54.5 62.9"/><polygon class="cls-5" points="48.73 64.56 52.31 61.08 52.31 53.15 51.15 51.96 52.31 50.77 52.31 43.27 48.73 39.7 36.1 39.7 36.1 46.13 37.7 46.13 37.7 58.16 36.1 58.16 36.1 64.56 48.73 64.56"/><polygon class="cls-2" points="50.15 53.71 50.15 59.54 47.23 62.46 38.23 62.46 38.23 60.33 39.8 60.33 39.8 43.93 38.23 43.93 38.23 41.8 47.42 41.8 50.15 44.5 50.15 50.2 48.39 51.96 50.15 53.71"/><rect class="cls-5" x="40.43" y="43.99" width="0.88" height="0.88"/><polygon class="cls-5" points="46.6 51.17 48.05 49.7 48.05 45.72 46.26 43.93 41.93 43.93 41.93 51.17 46.6 51.17"/><polygon class="cls-5" points="46.45 60.33 48.05 58.73 48.05 54.56 46.6 53.06 41.93 53.06 41.93 60.33 46.45 60.33"/><rect class="cls-5" x="41.99" y="51.8" width="0.88" height="0.63"/><rect class="cls-5" x="41.99" y="60.95" width="0.88" height="0.88"/><rect class="cls-2" x="44" y="46.03" width="1.91" height="3.29"/><rect class="cls-2" x="44" y="55.15" width="1.91" height="3.07"/><polygon class="cls-5" points="47.2 43.99 49.52 46.31 49.52 44.78 48.73 43.99 47.2 43.99"/><polygon class="cls-5" points="48.42 53.37 47.76 53.37 48.36 54 48.42 54 49.52 55.12 49.52 53.97 48.67 53.12 48.42 53.37"/></g><g id="K"><polygon class="cls-2" points="78.74 66.75 57.67 66.75 57.67 65.19 56.1 65.19 56.1 57.54 57.76 57.54 57.76 48.29 57.67 48.29 57.67 46.72 56.1 46.72 56.1 39.07 77.17 39.07 77.17 40.64 78.74 40.64 78.74 48.29 75.57 48.29 73.12 51.46 75.07 57.54 77.17 57.54 77.17 59.11 78.74 59.11 78.74 66.75"/><polygon class="cls-5" points="66.85 64.56 76.54 64.56 76.54 58.16 73.56 58.16 70.87 49.76 73.69 46.09 76.54 46.09 76.54 39.7 66.85 39.7 66.85 46.09 67.07 46.09 64.75 49.1 64.75 46.09 66.38 46.09 66.38 39.7 56.73 39.7 56.73 46.09 58.39 46.09 58.39 58.16 56.73 58.16 56.73 64.56 66.35 64.56 66.35 58.16 64.75 58.16 64.75 57.44 67.2 54.37 68.55 58.16 66.85 58.16 66.85 64.56"/><polygon class="cls-2" points="74.44 60.3 74.44 62.37 68.8 62.4 68.8 60.3 70.93 60.3 67.64 50.7 62.62 57.01 62.62 60.3 64.47 60.3 64.47 62.46 58.86 62.46 58.86 60.3 60.49 60.3 60.49 43.93 58.86 43.93 58.86 41.8 64.47 41.8 64.47 43.93 62.62 43.93 62.62 54.53 70.99 43.93 69.08 43.93 69.08 41.8 74.38 41.8 74.38 43.93 73.03 43.93 68.89 49.14 72.78 60.3 74.44 60.3"/><rect class="cls-5" x="61.12" y="43.99" width="0.88" height="0.88"/><polygon class="cls-5" points="62.69 55.47 62.69 55.94 63.56 54.84 63.56 54.37 62.69 55.47"/><rect class="cls-5" x="62.68" y="60.92" width="0.88" height="0.91"/><polygon class="cls-5" points="69.02 51.49 68.89 51.14 68.58 51.55 68.7 51.9 69.02 51.49"/><polygon class="cls-5" points="71.28 44.87 71.46 44.87 72.15 43.99 71.71 43.99 71.28 44.59 71.28 44.87"/><polygon class="cls-5" points="72.84 60.92 73.12 61.77 73.63 61.77 73.34 60.92 72.84 60.92"/></g></g><g id="TRUCK-2" data-name="TRUCK"><g id="BAN"><circle class="cls-2" cx="31.5" cy="79.65" r="6.39"/><path class="cls-5" d="M31.5,82.31a2.66,2.66,0,1,1,2.66-2.66A2.66,2.66,0,0,1,31.5,82.31Zm0-4.12A1.46,1.46,0,1,0,33,79.65,1.46,1.46,0,0,0,31.5,78.19Z"/><circle class="cls-2" cx="47.44" cy="79.65" r="6.39"/><path class="cls-5" d="M47.44,82.31a2.66,2.66,0,1,1,2.66-2.66A2.67,2.67,0,0,1,47.44,82.31Zm0-4.12a1.46,1.46,0,1,0,1.46,1.46A1.46,1.46,0,0,0,47.44,78.19Z"/><circle class="cls-2" cx="101.36" cy="79.65" r="6.39"/><path class="cls-5" d="M101.36,82.31A2.66,2.66,0,1,1,104,79.65,2.67,2.67,0,0,1,101.36,82.31Zm0-4.12a1.46,1.46,0,1,0,1.46,1.46A1.46,1.46,0,0,0,101.36,78.19Z"/></g><path id="BODY" class="cls-2" d="M118.46,70.85v-9a2.15,2.15,0,0,0-1-1.52h.06a48.66,48.66,0,0,0-1.31-9.85c0-.22-.08-.37-.09-.44h0a5.22,5.22,0,0,0-2.83-3.85c-2.68-1.21-8.59-1.28-10.7-1.77C97.39,37.93,89.78,38.21,88,38.38a.41.41,0,0,0-.37.42V68.17H84.56V37.64H80.41V68.17H12.75v13H24.68a7.41,7.41,0,0,1-.19-1.57,7,7,0,1,1,14,0,6.82,6.82,0,0,1-.19,1.57h2.29a6.82,6.82,0,0,1-.19-1.57,7,7,0,1,1,14,0,7.41,7.41,0,0,1-.19,1.57H94.54a6.82,6.82,0,0,1-.19-1.57,7,7,0,1,1,14,0,7.41,7.41,0,0,1-.19,1.57h8.06c1.44,0,2.25-.41,2.25-1.76v-5.7s-1.37-2-.9-2.67C117.68,70.84,118.44,71.07,118.46,70.85Zm-4.82-17.27h-.75a.83.83,0,0,0-.83.84v4.26a2.36,2.36,0,0,1-.53,0L105,58a1.91,1.91,0,0,1-1.71-1.9V51.58a1.9,1.9,0,0,1,1.91-1.91h6.56a1.91,1.91,0,0,1,1.92,1.91Zm2.68,6.47a.41.41,0,0,1-.41-.38l-.79-8.74c0-.2.13-.32.31-.39a.86.86,0,0,1,.41-.08,51.85,51.85,0,0,1,1.31,9.75A2.22,2.22,0,0,0,116.32,60.05Z"/><polygon id="PANAH" class="cls-6" points="11.6 67.99 11.6 72.11 115.06 72.11 91.57 64.76 91.57 68.05 11.6 67.99"/></g><g id="CV_TERANG_BERKAT_KARUNIA" data-name="CV TERANG BERKAT KARUNIA"><path class="cls-5" d="M15.64,91a.87.87,0,0,1-.23.24,1.81,1.81,0,0,1-.33.2,2.43,2.43,0,0,1-.43.12,2.48,2.48,0,0,1-1.12-.05,1.64,1.64,0,0,1-.52-.23,1.29,1.29,0,0,1-.33-.33.69.69,0,0,1-.12-.39.66.66,0,0,1,.12-.38,1.18,1.18,0,0,1,.33-.34,2.27,2.27,0,0,1,.52-.23,2.62,2.62,0,0,1,1.12,0,2.43,2.43,0,0,1,.43.12,1.6,1.6,0,0,1,.34.2,1,1,0,0,1,.22.24l0,.09H17l-.1-.24a1.58,1.58,0,0,0-.43-.6A2.73,2.73,0,0,0,15.8,89a3.17,3.17,0,0,0-.79-.24,4.67,4.67,0,0,0-1.58,0,6.11,6.11,0,0,0-.68.18,3.49,3.49,0,0,0-.58.29,2.17,2.17,0,0,0-.46.38,1.57,1.57,0,0,0-.3.47,1.23,1.23,0,0,0-.11.53,1.24,1.24,0,0,0,.11.54,1.65,1.65,0,0,0,.3.46,2.17,2.17,0,0,0,.46.38,3.14,3.14,0,0,0,.58.29,3.38,3.38,0,0,0,.68.18,4.54,4.54,0,0,0,.75.07,4,4,0,0,0,.84-.09,3.22,3.22,0,0,0,.78-.24,2.73,2.73,0,0,0,.66-.41,1.69,1.69,0,0,0,.43-.58l.1-.25h-1.3Z"/><polygon class="cls-5" points="19.68 91.07 18.23 88.7 16.85 88.7 19.17 92.39 20.2 92.39 22.52 88.7 21.14 88.7 19.68 91.07"/><polygon class="cls-5" points="24.06 89.58 25.55 89.58 25.55 92.39 26.82 92.39 26.82 89.58 28.31 89.58 28.31 88.71 24.06 88.71 24.06 89.58"/><polygon class="cls-5" points="30 91 32.17 91 32.17 90.13 30 90.13 30 89.59 32.51 89.59 32.51 88.71 28.73 88.71 28.73 92.39 32.55 92.39 32.55 91.51 30 91.51 30 91"/><path class="cls-5" d="M39.51,88.7l-2.12,3.39-.93-1,.18-.08a1.64,1.64,0,0,0,.36-.25,1.31,1.31,0,0,0,.24-.34,1.15,1.15,0,0,0,.08-.41,1,1,0,0,0-.15-.54,1.35,1.35,0,0,0-.42-.4,2.35,2.35,0,0,0-.6-.24,3.36,3.36,0,0,0-.74-.08H33.07v3.68h1.27V91.23h.81l1,1.16h2.45l.4-.64h2.11l.4.64h1.38l-2.3-3.69Zm-5.17.88h1a1.36,1.36,0,0,1,.3,0,.73.73,0,0,1,.22.09.53.53,0,0,1,.13.13.23.23,0,0,1,0,.26.3.3,0,0,1-.13.12.64.64,0,0,1-.22.1,1.36,1.36,0,0,1-.29,0h-1Zm6.21,1.3h-1L40,90Z"/><polygon class="cls-5" points="46.57 90.78 44.13 88.75 44.08 88.71 43.05 88.71 43.05 92.39 44.32 92.39 44.32 90.31 46.81 92.39 47.84 92.39 47.84 88.71 46.57 88.71 46.57 90.78"/><path class="cls-5" d="M51.1,90.28v.8h1.57l0,.07a1,1,0,0,1-.27.22,1.21,1.21,0,0,1-.43.15,2.62,2.62,0,0,1-1.24,0,1.64,1.64,0,0,1-.52-.23,1.19,1.19,0,0,1-.34-.33.77.77,0,0,1-.11-.39.73.73,0,0,1,.11-.38,1.22,1.22,0,0,1,.34-.34,2.09,2.09,0,0,1,.52-.23,2.53,2.53,0,0,1,1-.06l.35.08.28.12.24.15.1.08.92-.62-.22-.15a3.33,3.33,0,0,0-.94-.42,4.53,4.53,0,0,0-1.87-.08,5.4,5.4,0,0,0-.67.18,3.14,3.14,0,0,0-.58.29,1.94,1.94,0,0,0-.46.38,1.82,1.82,0,0,0-.31.47,1.36,1.36,0,0,0,0,1.07,2,2,0,0,0,.77.84,2.85,2.85,0,0,0,.58.29,3.28,3.28,0,0,0,.67.18,4.67,4.67,0,0,0,.76.07,4.15,4.15,0,0,0,1.08-.14,3,3,0,0,0,.86-.4,2,2,0,0,0,.57-.64,1.55,1.55,0,0,0,.17-.83v-.17Z"/><path class="cls-5" d="M60.44,90.61a1.35,1.35,0,0,0-.31-.19.69.69,0,0,0,.13-.11,1,1,0,0,0,.17-.24.68.68,0,0,0,.06-.29.79.79,0,0,0-.14-.47A1.11,1.11,0,0,0,60,89a2,2,0,0,0-.53-.2,3.37,3.37,0,0,0-.66-.06H56.43v3.68H59a2.7,2.7,0,0,0,.63-.07,2,2,0,0,0,.56-.19,1.31,1.31,0,0,0,.42-.35.89.89,0,0,0,.17-.54.74.74,0,0,0-.1-.35A.92.92,0,0,0,60.44,90.61Zm-1.26-.7a.38.38,0,0,1-.09.09l-.16.07-.19,0H57.69v-.53h1.05a.63.63,0,0,1,.19,0l.16.07a.38.38,0,0,1,.09.09.12.12,0,0,1,0,.16Zm-1.49,1h1.22a1,1,0,0,1,.25,0,.49.49,0,0,1,.18.08.52.52,0,0,1,.11.1.18.18,0,0,1,0,.2l-.13.1a.54.54,0,0,1-.19.08.83.83,0,0,1-.22,0H57.69Z"/><polygon class="cls-5" points="62.58 91 64.75 91 64.75 90.13 62.58 90.13 62.58 89.59 65.09 89.59 65.09 88.71 61.31 88.71 61.31 92.39 65.13 92.39 65.13 91.51 62.58 91.51 62.58 91"/><path class="cls-5" d="M69.22,91a1.64,1.64,0,0,0,.36-.25,1.31,1.31,0,0,0,.24-.34A1,1,0,0,0,69.9,90a1,1,0,0,0-.15-.54,1.35,1.35,0,0,0-.42-.4,2.35,2.35,0,0,0-.6-.24,3.36,3.36,0,0,0-.74-.08H65.65v3.68h1.27V91.23h.81l1,1.16h1.53L69,91.05Zm-2.3-1.39h1a1.36,1.36,0,0,1,.3,0,.63.63,0,0,1,.22.09.4.4,0,0,1,.13.13.23.23,0,0,1,0,.26.3.3,0,0,1-.13.12.68.68,0,0,1-.21.1,1.45,1.45,0,0,1-.3,0h-1Z"/><path class="cls-5" d="M78.13,88.7H77.06L75,92l-1.68-1.65,2-1.66H73.7l-2,1.69V88.71H70.42v3.68h1.27v-.73l.75-.62,1.33,1.35h2.37l.4-.64h2.11l.4.64h1.38l-2.25-3.6Zm0,2.18h-1l.51-.84Z"/><polygon class="cls-5" points="79.62 89.58 81.1 89.58 81.1 92.39 82.37 92.39 82.37 89.58 83.86 89.58 83.86 88.71 79.62 88.71 79.62 89.58"/><path class="cls-5" d="M93.71,88.7H92.65L90.57,92,88.9,90.37l2-1.66H89.29l-2,1.69V88.71H86v3.68h1.27v-.73L88,91l1.34,1.35h2.36l.4-.64h2.11l.4.64H96l-2.25-3.6Zm0,2.18h-1l.51-.84Z"/><path class="cls-5" d="M99.76,91a1.64,1.64,0,0,0,.36-.25,1.31,1.31,0,0,0,.24-.34,1,1,0,0,0,.09-.41,1,1,0,0,0-.16-.54,1.35,1.35,0,0,0-.42-.4,2.35,2.35,0,0,0-.6-.24,2.85,2.85,0,0,0-.74-.08H96.19v3.68h1.27V91.23h.81l1,1.16h1.53l-1.2-1.34Zm-2.3-1.39h1a1.36,1.36,0,0,1,.3,0,.63.63,0,0,1,.22.09.4.4,0,0,1,.13.13.23.23,0,0,1,0,.26.4.4,0,0,1-.13.13.91.91,0,0,1-.22.09,1.29,1.29,0,0,1-.29,0h-1Z"/><path class="cls-5" d="M104.24,90.93a.48.48,0,0,1-.06.24.54.54,0,0,1-.19.21,1.26,1.26,0,0,1-.33.15,2,2,0,0,1-1,0,1.06,1.06,0,0,1-.32-.15.55.55,0,0,1-.25-.46V88.71h-1.26v2.21a1.14,1.14,0,0,0,.19.66,1.5,1.5,0,0,0,.51.49,2.71,2.71,0,0,0,.73.29,3.54,3.54,0,0,0,.88.1,3.8,3.8,0,0,0,.92-.11,2.43,2.43,0,0,0,.73-.3,1.64,1.64,0,0,0,.49-.49,1.17,1.17,0,0,0,.18-.64V88.71h-1.27Z"/><polygon class="cls-5" points="109.76 90.78 107.27 88.71 106.24 88.71 106.24 92.39 107.51 92.39 107.51 90.31 110 92.39 111.02 92.39 111.02 88.71 109.76 88.71 109.76 90.78"/><rect class="cls-5" x="111.84" y="88.71" width="1.27" height="3.68"/><path class="cls-5" d="M116.7,88.79l-.06-.09h-1.06l-2.3,3.69h1.38l.39-.64h2.12l.39.64H119Zm-.08,2.09h-1l.52-.84Z"/><path class="cls-2" d="M15.79,90a1.23,1.23,0,0,0-.27-.29,1.51,1.51,0,0,0-.37-.22,2.42,2.42,0,0,0-.46-.13,2.94,2.94,0,0,0-.51,0,2.63,2.63,0,0,0-.7.09,2.12,2.12,0,0,0-.57.26,1.37,1.37,0,0,0-.38.38.92.92,0,0,0-.14.48.87.87,0,0,0,.14.48,1.28,1.28,0,0,0,.38.39,2.1,2.1,0,0,0,.57.25,2.63,2.63,0,0,0,.7.1,2.73,2.73,0,0,0,.5-.05,2.06,2.06,0,0,0,.46-.13,1.57,1.57,0,0,0,.38-.22.89.89,0,0,0,.26-.29h1a1.37,1.37,0,0,1-.39.52,2.33,2.33,0,0,1-.61.38,3.46,3.46,0,0,1-.75.23,3.62,3.62,0,0,1-.8.08,4.2,4.2,0,0,1-.72-.06,4.11,4.11,0,0,1-.65-.17,3.15,3.15,0,0,1-.55-.28,2.06,2.06,0,0,1-.42-.35,1.33,1.33,0,0,1-.27-.41,1.1,1.1,0,0,1-.1-.47,1.06,1.06,0,0,1,.1-.46,1.37,1.37,0,0,1,.27-.42,2.06,2.06,0,0,1,.42-.35,2.56,2.56,0,0,1,.55-.27,3.26,3.26,0,0,1,.65-.17,3.38,3.38,0,0,1,.72-.07,4.34,4.34,0,0,1,.8.08,3.46,3.46,0,0,1,.75.23,2.33,2.33,0,0,1,.61.38,1.36,1.36,0,0,1,.39.54Z"/><path class="cls-2" d="M21.23,88.88h1l-2.1,3.33h-.83l-2.11-3.33h1l1.55,2.52h0Z"/><path class="cls-2" d="M25.72,89.41H24.24v-.53h3.89v.53H26.64v2.8h-.92Z"/><path class="cls-2" d="M28.9,88.88h3.44v.53H29.82v.89H32v.53H29.82v.86h2.55v.52H28.9Z"/><path class="cls-2" d="M35.23,91.05H34.16v1.16h-.91V88.88h2.16a3.06,3.06,0,0,1,.7.08,2.11,2.11,0,0,1,.55.22,1.2,1.2,0,0,1,.36.35.76.76,0,0,1,.13.44.8.8,0,0,1-.07.34.9.9,0,0,1-.2.28,1.31,1.31,0,0,1-.32.23,2.19,2.19,0,0,1-.41.15l1.11,1.24h-1Zm.15-.52a1.86,1.86,0,0,0,.34,0,.89.89,0,0,0,.26-.12.52.52,0,0,0,.19-.17.44.44,0,0,0,.06-.23.46.46,0,0,0-.06-.23.79.79,0,0,0-.19-.17.85.85,0,0,0-.27-.12,1.22,1.22,0,0,0-.34,0H34.16v1.12Z"/><path class="cls-2" d="M41.19,91.58H38.88l-.39.63h-1l2.08-3.33h.87l2.09,3.33h-1Zm-2-.53h1.66l-.79-1.28,0-.09h0l0,.09Z"/><path class="cls-2" d="M47.66,92.21h-.79l-2.73-2.27v2.27h-.91V88.88H44l2.73,2.28V88.88h.91Z"/><path class="cls-2" d="M51.27,90.46h2.56a1.44,1.44,0,0,1-.16.74,1.72,1.72,0,0,1-.51.57,2.53,2.53,0,0,1-.81.38,3.77,3.77,0,0,1-1,.13,4.2,4.2,0,0,1-.72-.06,3.85,3.85,0,0,1-.65-.17,3.15,3.15,0,0,1-.55-.28,1.63,1.63,0,0,1-.42-.35A1.57,1.57,0,0,1,48.7,91a1.27,1.27,0,0,1-.09-.47,1.22,1.22,0,0,1,.09-.46,1.83,1.83,0,0,1,.7-.77A2.56,2.56,0,0,1,50,89a3.09,3.09,0,0,1,.65-.17,3.38,3.38,0,0,1,.72-.07,4,4,0,0,1,1.06.14,3.05,3.05,0,0,1,.9.4l-.61.4a1.53,1.53,0,0,0-.25-.16,1.79,1.79,0,0,0-.32-.13,2,2,0,0,0-.37-.09,2.73,2.73,0,0,0-.41,0,2.63,2.63,0,0,0-.7.09,1.87,1.87,0,0,0-.57.26,1.37,1.37,0,0,0-.38.38.85.85,0,0,0-.15.48.81.81,0,0,0,.15.48,1.28,1.28,0,0,0,.38.39,1.86,1.86,0,0,0,.57.25,2.63,2.63,0,0,0,.7.1,2.48,2.48,0,0,0,.63-.07,1.7,1.7,0,0,0,.48-.17.94.94,0,0,0,.32-.27.89.89,0,0,0,.16-.34H51.27Z"/><path class="cls-2" d="M56.6,92.21V88.88h2.19a3,3,0,0,1,.62.06,2.52,2.52,0,0,1,.49.18,1.08,1.08,0,0,1,.31.29.7.7,0,0,1,.11.37.54.54,0,0,1,0,.22.85.85,0,0,1-.14.19.75.75,0,0,1-.2.15,1.12,1.12,0,0,1-.25.11,2.17,2.17,0,0,1,.36.12,1.41,1.41,0,0,1,.29.18.74.74,0,0,1,.2.23.48.48,0,0,1,.07.26.64.64,0,0,1-.14.43.88.88,0,0,1-.36.3,1.92,1.92,0,0,1-.51.18,2.88,2.88,0,0,1-.59.06Zm.92-1.94h1.22a1,1,0,0,0,.24,0,.93.93,0,0,0,.2-.1.47.47,0,0,0,.15-.13.35.35,0,0,0,0-.36.47.47,0,0,0-.15-.13.93.93,0,0,0-.2-.1,1,1,0,0,0-.24,0H57.52Zm1.39,1.43a1.15,1.15,0,0,0,.26,0,.87.87,0,0,0,.24-.1.5.5,0,0,0,.17-.15.31.31,0,0,0,.07-.2.36.36,0,0,0-.06-.2.58.58,0,0,0-.16-.15.7.7,0,0,0-.23-.1,1.36,1.36,0,0,0-.29,0H57.52v1Z"/><path class="cls-2" d="M61.49,88.88h3.43v.53H62.4v.89h2.18v.53H62.4v.86H65v.52H61.49Z"/><path class="cls-2" d="M67.81,91.05H66.75v1.16h-.92V88.88H68a3.06,3.06,0,0,1,.7.08,2,2,0,0,1,.55.22,1,1,0,0,1,.36.35.76.76,0,0,1,.13.44.8.8,0,0,1-.07.34.9.9,0,0,1-.2.28,1.31,1.31,0,0,1-.32.23,2.19,2.19,0,0,1-.41.15l1.11,1.24h-1Zm.15-.52a1.86,1.86,0,0,0,.34,0,1.11,1.11,0,0,0,.27-.12.58.58,0,0,0,.18-.17.44.44,0,0,0,.06-.23.46.46,0,0,0-.06-.23,1,1,0,0,0-.18-.17,1,1,0,0,0-.28-.12,1.22,1.22,0,0,0-.34,0h-1.2v1.12Z"/><path class="cls-2" d="M71.52,90.77l2.25-1.89h1.07l-1.79,1.48,1.88,1.85H73.85l-1.4-1.4-.93.76v.64H70.6V88.88h.92Z"/><path class="cls-2" d="M78.75,91.58H76.44l-.4.63h-1l2.08-3.33H78l2.09,3.33h-1Zm-2-.53h1.66l-.79-1.28,0-.09h0l0,.09Z"/><path class="cls-2" d="M81.28,89.41H79.79v-.53h3.9v.53H82.2v2.8h-.92Z"/><path class="cls-2" d="M87.1,90.77l2.25-1.89h1.07l-1.78,1.48,1.88,1.85H89.43L88,90.81l-.94.76v.64h-.92V88.88h.92Z"/><path class="cls-2" d="M94.33,91.58H92l-.39.63h-1l2.09-3.33h.86l2.09,3.33h-1Zm-2-.53H94l-.79-1.28,0-.09h0l0,.09Z"/><path class="cls-2" d="M98.35,91.05H97.29v1.16h-.92V88.88h2.16a3,3,0,0,1,.7.08,2,2,0,0,1,.55.22,1,1,0,0,1,.36.35.76.76,0,0,1,.13.44.8.8,0,0,1-.07.34.76.76,0,0,1-.2.28,1.31,1.31,0,0,1-.32.23,2.19,2.19,0,0,1-.41.15l1.12,1.24H99.33Zm.15-.52a1.76,1.76,0,0,0,.34,0,1.11,1.11,0,0,0,.27-.12.58.58,0,0,0,.18-.17.44.44,0,0,0,.06-.23.46.46,0,0,0-.06-.23,1,1,0,0,0-.18-.17,1,1,0,0,0-.28-.12,1.15,1.15,0,0,0-.33,0H97.29v1.12Z"/><path class="cls-2" d="M104.42,88.88h.91v2a1,1,0,0,1-.15.55,1.3,1.3,0,0,1-.44.43,2,2,0,0,1-.67.28,3.49,3.49,0,0,1-.88.1,3.73,3.73,0,0,1-.84-.09,2.2,2.2,0,0,1-.68-.27,1.43,1.43,0,0,1-.45-.43,1,1,0,0,1-.17-.57v-2H102v2a.62.62,0,0,0,.08.33.83.83,0,0,0,.23.27,1.57,1.57,0,0,0,.39.18,2.28,2.28,0,0,0,1,0,1.49,1.49,0,0,0,.38-.18.66.66,0,0,0,.24-.26.63.63,0,0,0,.09-.33Z"/><path class="cls-2" d="M110.85,92.21h-.79l-2.73-2.27v2.27h-.91V88.88h.79l2.72,2.28V88.88h.92Z"/><path class="cls-2" d="M112,88.88h.92v3.33H112Z"/><path class="cls-2" d="M117.27,91.58H115l-.4.63h-1l2.09-3.33h.87l2.08,3.33h-1Zm-2-.53h1.66l-.8-1.28,0-.09h0l0,.09Z"/></g></g></g></g></g></svg>