<?xml version="1.0" encoding="UTF-8"?>
<svg xmlns="http://www.w3.org/2000/svg" xmlns:xlink="http://www.w3.org/1999/xlink" width="1071px" height="500px" viewBox="0 0 1070 500" version="1.1">
<g id="surface1">
<path style=" stroke:none;fill-rule:nonzero;fill:rgb(99.607843%,85.098039%,15.294118%);fill-opacity:1;" d="M 547.34375 98.804688 L 1068.957031 98.804688 L 1068.957031 401.234375 L 547.34375 401.234375 Z M 547.34375 98.804688 "/>
<path style=" stroke:none;fill-rule:nonzero;fill:rgb(11.372549%,11.372549%,10.588235%);fill-opacity:1;" d="M 660.082031 338.664062 L 660.082031 341.667969 C 660.082031 342.304688 659.824219 342.917969 659.371094 343.363281 C 658.914062 343.8125 658.300781 344.058594 657.664062 344.046875 L 654.777344 344.046875 C 653.464844 344.046875 652.398438 342.980469 652.398438 341.667969 L 652.398438 335.464844 L 667.449219 335.464844 L 667.449219 324.816406 C 667.449219 321.859375 665.066406 319.453125 662.109375 319.433594 L 650.214844 319.433594 C 647.257812 319.453125 644.871094 321.859375 644.871094 324.816406 L 644.871094 341.941406 C 644.953125 344.808594 647.269531 347.105469 650.136719 347.167969 L 662.03125 347.167969 C 664.972656 347.148438 667.351562 344.765625 667.371094 341.824219 L 667.371094 338.546875 Z M 652.28125 325.050781 C 652.28125 323.644531 653.410156 322.496094 654.816406 322.476562 L 657.390625 322.476562 C 658.800781 322.496094 659.941406 323.636719 659.964844 325.050781 L 659.964844 332.1875 L 652.164062 332.1875 Z M 652.28125 325.050781 "/>
<path style=" stroke:none;fill-rule:nonzero;fill:rgb(11.372549%,11.372549%,10.588235%);fill-opacity:1;" d="M 680.28125 329.417969 L 680.28125 323.761719 L 691.980469 323.761719 L 691.980469 320.488281 L 680.28125 320.488281 L 680.28125 310.695312 L 673.769531 310.695312 L 673.769531 320.371094 L 670.648438 320.371094 L 670.648438 323.761719 L 673.769531 323.761719 L 673.769531 342.722656 C 673.769531 345.304688 675.863281 347.402344 678.449219 347.402344 L 685.933594 347.402344 C 689.351562 347.378906 692.113281 344.617188 692.136719 341.199219 L 692.136719 337.726562 L 684.609375 337.726562 L 684.609375 340.964844 C 684.609375 342.042969 683.734375 342.917969 682.660156 342.917969 L 682.269531 342.917969 C 681.746094 342.925781 681.238281 342.726562 680.867188 342.359375 C 680.492188 341.992188 680.28125 341.488281 680.28125 340.964844 Z M 680.28125 329.417969 "/>
<path style=" stroke:none;fill-rule:nonzero;fill:rgb(11.372549%,11.372549%,10.588235%);fill-opacity:1;" d="M 712.765625 319.472656 C 712.117188 319.398438 711.460938 319.398438 710.816406 319.472656 C 708.375 319.988281 706.296875 321.578125 705.160156 323.800781 L 705.160156 319.433594 L 694.398438 319.433594 L 694.398438 324.621094 L 696.425781 324.621094 L 696.425781 342.253906 L 694.359375 342.253906 L 694.359375 347.441406 L 707.070312 347.441406 L 707.070312 342.253906 L 705.003906 342.253906 L 705.003906 330.238281 C 705.09375 328.804688 705.640625 327.4375 706.5625 326.339844 C 707.65625 325.011719 709.410156 324.425781 709.410156 325.011719 L 709.410156 334.453125 L 717.949219 334.453125 L 717.949219 324.699219 C 717.949219 321.828125 715.636719 319.492188 712.765625 319.472656 Z M 712.765625 319.472656 "/>
<path style=" stroke:none;fill-rule:nonzero;fill:rgb(11.372549%,11.372549%,10.588235%);fill-opacity:1;" d="M 738.269531 319.433594 L 724.386719 319.433594 C 721.988281 319.433594 720.039062 321.367188 720.019531 323.761719 L 720.019531 343.265625 C 720.039062 345.664062 721.988281 347.597656 724.386719 347.597656 L 738.269531 347.597656 C 740.660156 347.597656 742.597656 345.660156 742.597656 343.265625 L 742.597656 323.761719 C 742.574219 321.382812 740.648438 319.453125 738.269531 319.433594 Z M 735.109375 340.769531 C 735.109375 342.0625 734.0625 343.109375 732.769531 343.109375 L 729.882812 343.109375 C 729.257812 343.121094 728.652344 342.878906 728.203125 342.441406 C 727.757812 342 727.503906 341.398438 727.503906 340.769531 L 727.503906 326.144531 C 727.503906 324.828125 728.570312 323.761719 729.882812 323.761719 L 732.769531 323.761719 C 733.398438 323.761719 733.996094 324.015625 734.4375 324.460938 C 734.878906 324.910156 735.121094 325.515625 735.109375 326.144531 Z M 735.109375 340.769531 "/>
<path style=" stroke:none;fill-rule:nonzero;fill:rgb(11.372549%,11.372549%,10.588235%);fill-opacity:1;" d="M 837.320312 342.097656 L 837.320312 324.582031 C 837.320312 321.738281 835.015625 319.433594 832.171875 319.433594 L 822.03125 319.433594 C 819.1875 319.433594 816.882812 321.738281 816.882812 324.582031 L 816.882812 329.148438 L 824.410156 329.148438 L 824.410156 323.761719 L 829.753906 323.761719 L 829.753906 331.566406 L 821.953125 331.566406 C 820.597656 331.554688 819.289062 332.089844 818.332031 333.050781 C 817.371094 334.011719 816.835938 335.316406 816.84375 336.675781 L 816.84375 342.488281 C 816.84375 345.308594 819.132812 347.597656 821.953125 347.597656 L 839.464844 347.597656 L 839.464844 342.097656 Z M 829.753906 343.1875 L 824.410156 343.1875 L 824.410156 334.570312 L 829.753906 334.570312 Z M 829.753906 343.1875 "/>
<path style=" stroke:none;fill-rule:nonzero;fill:rgb(11.372549%,11.372549%,10.588235%);fill-opacity:1;" d="M 859.820312 319.433594 L 856.582031 319.433594 L 856.582031 325.128906 L 859.820312 325.128906 L 859.820312 343.265625 L 852.371094 343.265625 L 852.371094 319.433594 L 841.570312 319.433594 L 841.570312 325.128906 L 844.804688 325.128906 L 844.804688 342.410156 C 844.832031 344.980469 846.773438 347.125 849.328125 347.402344 L 859.820312 347.402344 L 859.820312 353.722656 L 852.019531 353.722656 L 852.019531 349.585938 L 844.648438 349.585938 L 844.648438 353.136719 C 844.648438 355.957031 846.9375 358.246094 849.757812 358.246094 L 862.238281 358.246094 C 865.023438 358.246094 867.285156 356 867.304688 353.214844 L 867.304688 319.433594 Z M 859.820312 319.433594 "/>
<path style=" stroke:none;fill-rule:nonzero;fill:rgb(11.372549%,11.372549%,10.588235%);fill-opacity:1;" d="M 891.054688 342.097656 L 891.054688 324.582031 C 891.054688 321.753906 888.773438 319.453125 885.945312 319.433594 L 875.769531 319.433594 C 872.941406 319.453125 870.660156 321.753906 870.660156 324.582031 L 870.660156 329.148438 L 878.148438 329.148438 L 878.148438 323.761719 L 883.527344 323.761719 L 883.527344 331.566406 L 875.730469 331.566406 C 872.996094 331.582031 870.765625 333.75 870.660156 336.480469 L 870.660156 342.292969 C 870.683594 345.121094 872.980469 347.402344 875.808594 347.402344 L 893.238281 347.402344 L 893.238281 342.097656 Z M 883.527344 343.265625 L 878.148438 343.265625 L 878.148438 334.570312 L 883.527344 334.570312 Z M 883.527344 343.265625 "/>
<path style=" stroke:none;fill-rule:nonzero;fill:rgb(11.372549%,11.372549%,10.588235%);fill-opacity:1;" d="M 972.050781 319.472656 C 971.390625 319.394531 970.722656 319.394531 970.0625 319.472656 C 967.511719 319.964844 965.351562 321.644531 964.25 323.996094 L 964.25 319.433594 L 953.644531 319.433594 L 953.644531 324.621094 L 955.671875 324.621094 L 955.671875 342.253906 L 953.605469 342.253906 L 953.605469 347.441406 L 966.316406 347.441406 L 966.316406 342.253906 L 964.25 342.253906 L 964.25 330.238281 C 964.320312 328.800781 964.871094 327.425781 965.8125 326.339844 C 966.902344 325.011719 968.65625 324.425781 968.65625 325.011719 L 968.65625 334.453125 L 977.082031 334.453125 L 977.082031 324.699219 C 977.082031 321.886719 974.859375 319.578125 972.050781 319.472656 Z M 972.050781 319.472656 "/>
<path style=" stroke:none;fill-rule:nonzero;fill:rgb(11.372549%,11.372549%,10.588235%);fill-opacity:1;" d="M 999.660156 342.097656 L 999.660156 324.582031 C 999.660156 321.753906 997.378906 319.453125 994.550781 319.433594 L 984.375 319.433594 C 981.546875 319.453125 979.265625 321.753906 979.265625 324.582031 L 979.265625 329.148438 L 986.753906 329.148438 L 986.753906 323.761719 L 992.132812 323.761719 L 992.132812 331.566406 L 984.335938 331.566406 C 981.511719 331.566406 979.226562 333.851562 979.226562 336.675781 L 979.226562 342.488281 C 979.226562 345.308594 981.511719 347.597656 984.335938 347.597656 L 1001.804688 347.597656 L 1001.804688 342.097656 Z M 992.132812 343.1875 L 986.753906 343.1875 L 986.753906 334.570312 L 992.132812 334.570312 Z M 992.132812 343.1875 "/>
<path style=" stroke:none;fill-rule:nonzero;fill:rgb(11.372549%,11.372549%,10.588235%);fill-opacity:1;" d="M 1023.449219 319.472656 C 1022.800781 319.398438 1022.144531 319.398438 1021.496094 319.472656 C 1019.054688 319.988281 1016.976562 321.578125 1015.84375 323.800781 L 1015.84375 319.433594 L 1005.238281 319.433594 L 1005.238281 324.621094 L 1007.148438 324.621094 L 1007.148438 342.253906 L 1005.082031 342.253906 L 1005.082031 347.441406 L 1017.792969 347.441406 L 1017.792969 342.253906 L 1015.726562 342.253906 L 1015.726562 330.238281 C 1015.816406 328.804688 1016.363281 327.4375 1017.285156 326.339844 C 1018.378906 325.011719 1020.132812 324.425781 1020.132812 325.011719 L 1020.132812 347.402344 L 1028.671875 347.402344 L 1028.671875 324.699219 C 1028.671875 321.8125 1026.332031 319.472656 1023.449219 319.472656 Z M 1023.449219 319.472656 "/>
<path style=" stroke:none;fill-rule:nonzero;fill:rgb(11.372549%,11.372549%,10.588235%);fill-opacity:1;" d="M 1052.1875 333.28125 C 1050.316406 331.605469 1047.039062 330.316406 1039.941406 329.925781 C 1039.070312 329.90625 1038.363281 329.203125 1038.34375 328.328125 L 1038.34375 325.792969 C 1038.34375 324.734375 1039.199219 323.878906 1040.253906 323.878906 L 1045.089844 323.878906 C 1046.144531 323.878906 1047 324.734375 1047 325.792969 L 1047 328.054688 L 1054.410156 328.054688 L 1054.410156 327.351562 C 1054.410156 323.042969 1050.917969 319.550781 1046.613281 319.550781 L 1038.8125 319.550781 C 1034.503906 319.550781 1031.011719 323.042969 1031.011719 327.351562 L 1031.011719 328.054688 C 1031.019531 330.160156 1031.878906 332.171875 1033.390625 333.632812 C 1034.640625 334.917969 1037.292969 336.949219 1045.636719 337.027344 C 1046.503906 337.027344 1047.214844 337.71875 1047.234375 338.585938 L 1047.234375 341.160156 C 1047.214844 342.203125 1046.363281 343.035156 1045.324219 343.035156 L 1040.722656 343.035156 C 1039.683594 343.035156 1038.832031 342.203125 1038.8125 341.160156 L 1038.8125 338.859375 L 1031.011719 338.859375 L 1031.011719 339.601562 C 1031.011719 343.910156 1034.503906 347.402344 1038.8125 347.402344 L 1046.613281 347.402344 C 1050.917969 347.402344 1054.410156 343.910156 1054.410156 339.601562 L 1054.410156 338.859375 C 1054.445312 336.777344 1053.644531 334.769531 1052.1875 333.28125 Z M 1052.1875 333.28125 "/>
<path style=" stroke:none;fill-rule:nonzero;fill:rgb(11.372549%,11.372549%,10.588235%);fill-opacity:1;" d="M 629.273438 293.921875 L 618.511719 317.601562 L 620.773438 293.921875 L 611.375 293.921875 L 592.226562 294.742188 L 573.117188 296.105469 L 592.226562 296.574219 L 607.550781 297.355469 L 591.367188 298.058594 L 572.222656 299.382812 L 591.332031 299.890625 L 606.617188 300.671875 L 590.472656 301.375 L 571.324219 302.660156 L 590.472656 303.207031 L 605.679688 303.988281 L 589.574219 304.6875 L 570.46875 305.9375 L 589.574219 306.523438 L 604.785156 307.339844 L 588.71875 308.003906 L 569.570312 309.214844 L 588.679688 309.835938 L 603.847656 310.65625 L 587.820312 311.320312 L 568.671875 312.492188 L 587.820312 313.152344 L 602.910156 313.972656 L 586.921875 314.636719 L 567.816406 315.765625 L 586.921875 316.46875 L 601.976562 317.289062 L 586.066406 317.953125 L 566.917969 319.042969 L 586.027344 319.785156 L 601.039062 320.605469 L 585.167969 321.265625 L 566.023438 322.320312 L 585.167969 323.101562 L 600.144531 323.917969 L 584.273438 324.582031 L 565.164062 325.597656 L 584.273438 326.453125 L 599.207031 327.273438 L 583.414062 327.898438 L 564.265625 328.875 L 583.375 329.769531 L 598.269531 330.589844 L 582.515625 331.214844 L 563.410156 332.148438 L 582.515625 333.085938 L 597.335938 333.90625 L 581.621094 334.53125 L 562.511719 335.425781 L 581.621094 336.402344 L 596.4375 337.222656 L 580.761719 337.84375 L 561.613281 338.703125 L 580.722656 339.71875 L 595.503906 340.535156 L 579.863281 341.160156 L 560.757812 341.980469 L 579.863281 343.035156 L 594.566406 343.890625 L 579.007812 344.476562 L 559.859375 345.257812 L 578.96875 346.347656 L 597.140625 347.402344 L 597.140625 347.441406 L 583.375 347.441406 L 599.128906 347.441406 L 607.359375 319.941406 L 605.019531 347.441406 L 616.25 347.441406 L 628.570312 320.566406 L 623.035156 347.441406 L 637.617188 347.441406 L 646.546875 293.921875 Z M 629.273438 293.921875 "/>
<path style=" stroke:none;fill-rule:nonzero;fill:rgb(11.372549%,11.372549%,10.588235%);fill-opacity:1;" d="M 814.542969 302.269531 C 814.132812 299.558594 812.324219 297.261719 809.789062 296.222656 C 806.738281 294.628906 803.316406 293.890625 799.882812 294.078125 L 793.796875 294.078125 L 779.800781 294.664062 L 757.609375 295.988281 L 779.800781 296.496094 L 792.980469 297.199219 L 779.019531 297.824219 L 756.792969 299.070312 L 778.980469 299.617188 L 792.160156 300.320312 L 778.160156 300.945312 L 755.972656 302.152344 L 778.160156 302.777344 L 791.304688 303.441406 L 791.304688 303.675781 L 777.304688 304.257812 L 755.113281 305.429688 L 777.304688 306.09375 L 790.445312 306.796875 L 790.445312 306.988281 L 776.484375 307.574219 L 754.257812 308.707031 L 776.445312 309.410156 L 789.625 310.109375 L 775.664062 310.695312 L 753.4375 311.828125 L 775.664062 312.527344 L 788.808594 313.269531 L 774.847656 313.894531 L 752.65625 314.949219 L 774.847656 315.726562 L 787.988281 316.429688 L 773.988281 317.015625 L 751.800781 318.03125 L 773.988281 318.847656 L 787.128906 319.550781 L 773.167969 320.136719 L 750.941406 321.109375 L 773.128906 321.96875 L 786.273438 322.710938 L 772.3125 323.296875 L 750.121094 324.230469 L 772.3125 325.167969 L 785.453125 325.871094 L 771.492188 326.414062 L 749.304688 327.351562 L 771.492188 328.289062 L 784.632812 329.03125 L 770.675781 329.613281 L 748.445312 330.472656 L 770.636719 331.449219 L 783.777344 332.1875 L 769.816406 332.773438 L 747.589844 333.59375 L 769.816406 334.609375 L 782.917969 335.347656 L 768.957031 335.894531 L 746.769531 336.675781 L 768.957031 337.765625 L 782.0625 338.507812 L 768.140625 339.054688 L 745.910156 339.796875 L 768.101562 340.925781 L 781.242188 341.667969 L 767.320312 342.214844 L 745.09375 342.917969 L 767.28125 344.085938 L 780.421875 344.867188 L 786.195312 345.140625 L 790.484375 329.109375 L 792.003906 345.140625 L 807.835938 345.140625 L 802.921875 322.710938 C 806.070312 321.816406 808.820312 319.875 810.722656 317.210938 C 812.695312 314.617188 814.101562 311.640625 814.855469 308.472656 C 815.136719 306.402344 815.027344 304.300781 814.542969 302.269531 Z M 798.945312 313.464844 C 797.875 316.789062 794.621094 318.90625 791.148438 318.535156 L 794.8125 305.117188 C 794.8125 305.117188 802.457031 305.117188 799.023438 313.464844 Z M 798.945312 313.464844 "/>
<path style=" stroke:none;fill-rule:nonzero;fill:rgb(11.372549%,11.372549%,10.588235%);fill-opacity:1;" d="M 931.804688 294.15625 L 923.226562 294.390625 L 904.003906 294.898438 L 923.1875 296.222656 L 931.144531 296.808594 L 930.949219 297.550781 L 922.332031 297.785156 L 903.183594 298.875 L 922.332031 299.617188 L 930.246094 300.164062 L 930.050781 300.945312 L 921.472656 301.179688 L 902.363281 302.191406 L 921.472656 302.972656 L 929.386719 303.519531 L 929.15625 304.335938 L 920.613281 304.570312 L 901.46875 305.585938 L 920.613281 306.367188 L 937.1875 307.417969 L 919.757812 307.964844 L 900.609375 308.980469 L 919.757812 309.757812 L 936.367188 310.734375 L 936.367188 310.773438 L 918.898438 311.359375 L 899.75 312.375 L 918.898438 313.113281 L 935.511719 314.089844 L 935.472656 314.128906 L 918.039062 314.792969 L 898.894531 315.765625 L 918 316.507812 L 934.613281 317.40625 L 934.613281 317.523438 L 917.183594 318.183594 L 898.035156 319.199219 L 917.144531 319.863281 L 933.757812 320.722656 L 933.71875 320.875 L 916.324219 321.578125 L 897.175781 322.59375 L 916.285156 323.257812 L 932.898438 324.074219 L 932.820312 324.230469 L 915.46875 324.972656 L 896.320312 325.988281 L 915.429688 326.648438 L 932 327.390625 L 931.960938 327.585938 L 914.570312 328.367188 L 895.460938 329.378906 L 914.570312 330.042969 L 931.144531 330.707031 L 931.066406 330.980469 L 913.710938 331.761719 L 894.605469 332.773438 L 913.710938 333.398438 L 930.246094 334.0625 L 930.167969 334.335938 L 912.855469 335.152344 L 893.746094 336.207031 L 912.855469 336.792969 L 929.386719 337.378906 L 929.3125 337.6875 L 911.996094 338.585938 L 892.886719 339.601562 L 911.996094 340.148438 L 928.53125 340.730469 L 928.414062 341.082031 L 911.136719 341.980469 L 892.03125 342.996094 L 911.136719 343.539062 L 927.632812 344.046875 L 927.554688 344.4375 L 910.28125 345.375 L 891.171875 346.386719 L 910.28125 346.933594 L 938.4375 347.441406 L 949.121094 307.222656 L 957.816406 307.222656 L 961.171875 293.921875 Z M 931.804688 294.15625 "/>
<path style=" stroke:none;fill-rule:nonzero;fill:rgb(11.372549%,11.372549%,10.588235%);fill-opacity:1;" d="M 644.792969 310.695312 L 670.648438 310.695312 L 670.648438 316.3125 L 644.792969 316.3125 Z M 644.792969 310.695312 "/>
<path style=" stroke:none;fill-rule:nonzero;fill:rgb(11.372549%,11.372549%,10.588235%);fill-opacity:1;" d="M 683.554688 310.695312 L 745.753906 310.695312 L 745.753906 316.3125 L 683.554688 316.3125 Z M 683.554688 310.695312 "/>
<path style=" stroke:none;fill-rule:nonzero;fill:rgb(11.372549%,11.372549%,10.588235%);fill-opacity:1;" d="M 815.988281 310.695312 L 896.242188 310.695312 L 896.242188 316.3125 L 815.988281 316.3125 Z M 815.988281 310.695312 "/>
<path style=" stroke:none;fill-rule:nonzero;fill:rgb(11.372549%,11.372549%,10.588235%);fill-opacity:1;" d="M 953.527344 310.695312 L 1056.476562 310.695312 L 1056.476562 316.3125 L 953.527344 316.3125 Z M 953.527344 310.695312 "/>
<path style=" stroke:none;fill-rule:nonzero;fill:rgb(11.372549%,11.372549%,10.588235%);fill-opacity:1;" d="M 721.539062 153.691406 L 696.738281 208.261719 L 701.960938 153.691406 L 680.320312 153.691406 L 636.292969 155.601562 L 592.226562 158.761719 L 636.253906 159.8125 L 671.546875 161.648438 L 634.265625 163.246094 L 590.199219 166.289062 L 634.226562 167.460938 L 669.402344 169.292969 L 632.199219 170.890625 L 588.171875 173.816406 L 632.199219 175.105469 L 667.253906 176.9375 L 630.171875 178.539062 L 586.144531 181.386719 L 630.171875 182.75 L 665.109375 184.585938 L 628.140625 186.144531 L 584.117188 188.914062 L 628.140625 190.355469 L 663.003906 192.230469 L 626.113281 193.789062 L 582.089844 196.441406 L 626.074219 198.003906 L 660.859375 199.875 L 624.085938 201.433594 L 580.019531 204.011719 L 624.046875 205.648438 L 658.714844 207.519531 L 622.058594 209.042969 L 577.992188 211.539062 L 622.019531 213.292969 L 656.570312 215.167969 L 619.992188 216.6875 L 575.964844 219.066406 L 619.992188 220.9375 L 654.464844 222.8125 L 617.964844 224.332031 L 573.9375 226.632812 L 617.925781 228.585938 L 652.320312 230.496094 L 615.9375 231.976562 L 571.910156 234.164062 L 615.898438 236.230469 L 650.175781 238.140625 L 613.910156 239.585938 L 569.882812 241.730469 L 613.871094 243.875 L 648.03125 245.789062 L 611.882812 247.230469 L 567.816406 249.257812 L 611.84375 251.480469 L 645.925781 253.433594 L 609.851562 254.875 L 565.789062 256.789062 L 609.8125 259.128906 L 643.78125 261.078125 L 607.785156 262.519531 L 563.757812 264.355469 L 607.785156 266.773438 L 641.636719 268.722656 L 605.757812 270.128906 L 561.730469 271.882812 L 605.71875 274.417969 L 647.5625 276.835938 L 647.5625 276.953125 L 615.898438 276.953125 L 652.125 276.953125 L 671.078125 213.644531 L 665.695312 276.953125 L 691.550781 276.953125 L 719.902344 215.050781 L 707.1875 276.953125 L 740.726562 276.953125 L 761.316406 153.691406 Z M 721.539062 153.691406 "/>
<path style=" stroke:none;fill-rule:nonzero;fill:rgb(11.372549%,11.372549%,10.588235%);fill-opacity:1;" d="M 986.945312 154.273438 L 967.136719 154.78125 L 922.953125 155.953125 L 967.058594 159.035156 L 985.386719 160.359375 L 984.917969 162.078125 L 965.148438 162.582031 L 921.003906 165.121094 L 965.070312 166.796875 L 983.359375 168.082031 L 982.890625 169.878906 L 963.160156 170.425781 L 919.09375 172.726562 L 963.082031 174.597656 L 981.332031 175.808594 L 980.824219 177.640625 L 961.210938 178.265625 L 917.105469 180.566406 L 961.132812 182.359375 L 999.347656 184.777344 L 959.222656 186.066406 L 915.15625 188.40625 L 959.144531 190.164062 L 997.4375 192.464844 L 997.398438 192.542969 L 957.230469 193.90625 L 913.167969 196.246094 L 957.152344 197.925781 L 995.410156 200.109375 L 995.371094 200.265625 L 955.242188 201.746094 L 911.175781 204.050781 L 955.203125 205.726562 L 993.421875 207.792969 L 993.34375 208.027344 L 953.253906 209.550781 L 909.1875 211.890625 L 953.214844 213.488281 L 991.394531 215.4375 L 991.316406 215.789062 L 951.265625 217.390625 L 907.199219 219.730469 L 951.226562 221.289062 L 989.402344 223.125 L 989.285156 223.515625 L 949.277344 225.191406 L 905.25 227.570312 L 949.277344 229.054688 L 987.414062 230.769531 L 987.257812 231.277344 L 947.289062 233.03125 L 903.261719 235.371094 L 947.289062 236.855469 L 985.386719 238.453125 L 985.230469 239.039062 L 945.300781 240.871094 L 901.273438 243.210938 L 945.300781 244.617188 L 983.398438 246.097656 L 983.203125 246.761719 L 943.308594 248.710938 L 899.285156 251.054688 L 943.308594 252.417969 L 981.371094 253.785156 L 981.175781 254.523438 L 941.320312 256.515625 L 897.292969 258.894531 L 941.359375 260.179688 L 979.382812 261.46875 L 979.148438 262.289062 L 939.332031 264.355469 L 895.34375 266.695312 L 939.371094 267.984375 L 977.355469 269.113281 L 977.121094 270.011719 L 937.34375 272.15625 L 893.355469 274.535156 L 937.382812 275.746094 L 1002.234375 276.953125 L 1026.761719 184.351562 L 1046.84375 184.351562 L 1054.566406 153.691406 Z M 986.945312 154.273438 "/>
<path style=" stroke:none;fill-rule:nonzero;fill:rgb(11.372549%,11.372549%,10.588235%);fill-opacity:1;" d="M 908.253906 173.585938 C 907.234375 167.359375 903.097656 162.089844 897.292969 159.621094 C 890.28125 156.007812 882.4375 154.324219 874.558594 154.742188 L 860.597656 154.351562 L 828.425781 155.757812 L 777.421875 158.761719 L 828.425781 159.96875 L 858.6875 161.53125 L 858.6875 162 L 826.554688 163.402344 L 775.546875 166.289062 L 826.554688 167.578125 L 856.777344 169.175781 L 856.777344 169.644531 L 824.644531 171.007812 L 773.636719 173.855469 L 824.644531 175.222656 L 854.867188 176.820312 L 854.867188 177.289062 L 822.734375 178.65625 L 771.726562 181.386719 L 822.695312 182.867188 L 852.917969 184.46875 L 852.917969 184.933594 L 820.824219 186.300781 L 769.269531 188.914062 L 820.238281 190.511719 L 850.460938 192.113281 L 850.460938 192.582031 L 818.367188 193.945312 L 767.359375 196.480469 L 818.328125 198.160156 L 848.550781 199.757812 L 848.550781 200.226562 L 816.417969 201.550781 L 765.371094 204.011719 L 816.378906 205.804688 L 846.5625 207.441406 L 846.5625 207.871094 L 814.464844 209.199219 L 763.460938 211.539062 L 814.464844 213.449219 L 844.648438 215.089844 L 844.648438 215.515625 L 812.554688 216.84375 L 761.546875 219.105469 L 812.515625 221.09375 L 842.699219 222.734375 L 842.699219 223.164062 L 810.605469 224.488281 L 759.597656 226.632812 L 810.566406 228.703125 L 840.75 230.378906 L 840.75 230.808594 L 808.265625 232.09375 L 757.101562 234.046875 L 808.070312 236.191406 L 838.253906 237.867188 L 838.253906 238.296875 L 806.199219 239.585938 L 755.074219 241.847656 L 806.042969 244.109375 L 836.1875 245.789062 L 836.1875 246.214844 L 804.132812 247.503906 L 753.085938 249.375 L 804.09375 251.753906 L 834.238281 253.472656 L 834.238281 253.824219 L 802.183594 255.109375 L 751.175781 256.945312 L 802.144531 259.402344 L 832.289062 261.117188 L 832.289062 261.46875 L 800.234375 262.753906 L 749.226562 264.472656 L 800.195312 267.046875 L 830.339844 268.761719 L 830.339844 269.113281 L 798.285156 270.402344 L 747.277344 272 L 798.246094 274.691406 L 828.386719 276.40625 L 841.648438 277.070312 L 851.164062 240.132812 L 854.671875 276.953125 L 891.054688 276.953125 L 879.785156 225.464844 C 887.09375 223.417969 893.496094 218.964844 897.957031 212.824219 C 902.445312 206.847656 905.65625 200.007812 907.394531 192.738281 C 909.296875 186.527344 909.59375 179.9375 908.253906 173.585938 Z M 872.609375 199.328125 C 870.085938 207.148438 862.355469 212.066406 854.203125 211.03125 L 862.589844 180.175781 C 862.589844 180.175781 880.410156 180.097656 872.609375 199.328125 Z M 872.609375 199.328125 "/>
<path style=" stroke:none;fill-rule:nonzero;fill:rgb(89.019608%,2.352941%,7.45098%);fill-opacity:1;" d="M 558.496094 132.3125 L 1057.765625 132.3125 L 1057.765625 138.671875 L 558.496094 138.671875 Z M 558.496094 132.3125 "/>
<path style=" stroke:none;fill-rule:nonzero;fill:rgb(89.019608%,2.352941%,7.45098%);fill-opacity:1;" d="M 558.496094 361.328125 L 1057.765625 361.328125 L 1057.765625 367.6875 L 558.496094 367.6875 Z M 558.496094 361.328125 "/>
<path style=" stroke:none;fill-rule:nonzero;fill:rgb(98.823529%,74.117647%,17.254902%);fill-opacity:1;" d="M 500.898438 250 C 500.898438 388.070312 389 500 250.972656 500 C 112.941406 500 1.042969 388.070312 1.042969 250 C 1.042969 111.929688 112.941406 0 250.972656 0 C 389 0 500.898438 111.929688 500.898438 250 Z M 500.898438 250 "/>
<path style=" stroke:none;fill-rule:nonzero;fill:rgb(100%,100%,100%);fill-opacity:1;" d="M 133.632812 194.21875 L 104.773438 194.21875 L 104.773438 224.449219 L 105.007812 224.449219 L 105.007812 230.535156 L 111.128906 230.535156 L 111.128906 260.375 L 68.46875 260.375 L 68.46875 254.289062 L 62.347656 254.289062 L 62.347656 224.449219 L 68.585938 224.449219 L 68.585938 194.21875 L 45.851562 194.21875 L 45.851562 188.132812 L 39.726562 188.132812 L 39.726562 152.402344 L 127.625 152.402344 L 127.625 158.527344 L 133.632812 158.527344 Z M 116.902344 163.011719 L 116.902344 177.445312 L 108.710938 177.445312 L 108.710938 171.203125 L 87.808594 171.203125 L 87.808594 235.214844 L 94.636719 235.214844 L 94.636719 243.640625 L 72.992188 243.640625 L 72.992188 235.214844 L 79.738281 235.214844 L 79.738281 171.359375 L 58.835938 171.359375 L 58.835938 177.601562 L 50.765625 177.601562 L 50.765625 163.167969 Z M 82.15625 171.632812 L 82.15625 174.910156 L 85.355469 174.910156 L 85.355469 171.632812 Z M 88.277344 237.515625 L 88.277344 241.066406 L 91.4375 241.066406 L 91.4375 237.515625 Z M 111.128906 171.632812 L 111.128906 174.910156 L 114.5625 174.910156 L 114.5625 171.632812 Z M 111.128906 171.632812 "/>
<path style=" stroke:none;fill-rule:nonzero;fill:rgb(100%,100%,100%);fill-opacity:1;" d="M 213.613281 245.359375 L 198.015625 260.414062 L 145.328125 260.414062 L 145.328125 254.289062 L 139.402344 254.289062 L 139.402344 224.449219 L 145.640625 224.449219 L 145.640625 182.359375 L 139.402344 182.359375 L 139.402344 152.402344 L 192.125 152.402344 L 213.652344 173.933594 L 213.652344 205.140625 L 209.945312 209.042969 L 213.652344 212.707031 Z M 196.609375 209.511719 L 196.609375 232.25 L 185.222656 243.640625 L 150.125 243.640625 L 150.125 235.332031 L 156.25 235.332031 L 156.25 171.359375 L 150.125 171.359375 L 150.125 163.050781 L 185.964844 163.050781 L 196.609375 173.585938 L 196.609375 195.820312 L 189.746094 202.839844 Z M 158.707031 171.632812 L 158.707031 175.027344 L 162.136719 175.027344 L 162.136719 171.632812 Z M 182.765625 199.601562 L 188.421875 193.867188 L 188.421875 178.265625 L 181.441406 171.28125 L 164.554688 171.28125 L 164.554688 199.523438 Z M 182.179688 235.332031 L 188.421875 229.09375 L 188.421875 212.824219 L 182.765625 206.972656 L 164.554688 206.972656 L 164.554688 235.332031 Z M 164.828125 202.058594 L 164.828125 204.515625 L 168.222656 204.515625 L 168.222656 202.058594 Z M 164.828125 237.945312 L 164.828125 241.339844 L 168.222656 241.339844 L 168.222656 237.945312 Z M 180.113281 179.433594 L 180.113281 192.308594 L 172.628906 192.308594 L 172.628906 179.433594 Z M 180.113281 215.050781 L 180.113281 227.023438 L 172.628906 227.023438 L 172.628906 215.167969 Z M 185.105469 171.632812 L 194.152344 180.683594 L 194.152344 174.675781 L 191.113281 171.632812 Z M 189.863281 208.183594 L 187.328125 208.183594 L 189.628906 210.640625 L 189.863281 210.640625 L 194.152344 215.011719 L 194.152344 210.640625 L 190.839844 207.324219 Z M 189.863281 208.183594 "/>
<path style=" stroke:none;fill-rule:nonzero;fill:rgb(100%,100%,100%);fill-opacity:1;" d="M 308.101562 260.414062 L 225.933594 260.414062 L 225.933594 254.289062 L 219.8125 254.289062 L 219.8125 224.449219 L 226.285156 224.449219 L 226.285156 188.367188 L 225.933594 188.367188 L 225.933594 182.28125 L 219.8125 182.28125 L 219.8125 152.441406 L 301.976562 152.441406 L 301.976562 158.527344 L 308.101562 158.527344 L 308.101562 188.367188 L 295.738281 188.367188 L 286.222656 200.734375 L 293.789062 224.449219 L 301.976562 224.449219 L 301.976562 230.574219 L 308.101562 230.574219 Z M 308.101562 260.414062 "/>
<path style=" stroke:none;fill-rule:nonzero;fill:rgb(100%,100%,100%);fill-opacity:1;" d="M 291.332031 235.214844 L 291.332031 243.289062 L 269.339844 243.40625 L 269.339844 235.214844 L 277.644531 235.214844 L 264.8125 197.808594 L 245.238281 222.382812 L 245.238281 235.214844 L 252.453125 235.214844 L 252.453125 243.640625 L 230.574219 243.640625 L 230.574219 235.214844 L 236.933594 235.214844 L 236.933594 171.398438 L 230.574219 171.398438 L 230.574219 163.050781 L 252.453125 163.050781 L 252.453125 171.398438 L 245.238281 171.398438 L 245.238281 212.707031 L 277.878906 171.398438 L 270.429688 171.398438 L 270.429688 163.050781 L 291.097656 163.050781 L 291.097656 171.398438 L 285.832031 171.398438 L 269.6875 191.683594 L 284.859375 235.214844 Z M 291.332031 235.214844 "/>
<path style=" stroke:none;fill-rule:nonzero;fill:rgb(100%,100%,100%);fill-opacity:1;" d="M 239.390625 171.632812 L 242.820312 171.632812 L 242.820312 175.066406 L 239.390625 175.066406 Z M 239.390625 171.632812 "/>
<path style=" stroke:none;fill-rule:nonzero;fill:rgb(100%,100%,100%);fill-opacity:1;" d="M 245.511719 216.375 L 245.511719 218.207031 L 248.902344 213.957031 L 248.902344 212.125 Z M 245.511719 216.375 "/>
<path style=" stroke:none;fill-rule:nonzero;fill:rgb(100%,100%,100%);fill-opacity:1;" d="M 245.472656 237.671875 L 248.902344 237.671875 L 248.902344 241.222656 L 245.472656 241.222656 Z M 245.472656 237.671875 "/>
<path style=" stroke:none;fill-rule:nonzero;fill:rgb(100%,100%,100%);fill-opacity:1;" d="M 270.195312 200.851562 L 269.6875 199.523438 L 268.480469 201.085938 L 268.988281 202.449219 Z M 270.195312 200.851562 "/>
<path style=" stroke:none;fill-rule:nonzero;fill:rgb(100%,100%,100%);fill-opacity:1;" d="M 279.007812 175.066406 L 279.710938 175.066406 L 282.402344 171.632812 L 280.6875 171.632812 L 279.007812 173.933594 Z M 279.007812 175.066406 "/>
<path style=" stroke:none;fill-rule:nonzero;fill:rgb(100%,100%,100%);fill-opacity:1;" d="M 285.09375 237.671875 L 286.222656 240.949219 L 288.171875 240.949219 L 287.042969 237.671875 Z M 285.09375 237.671875 "/>
<path style=" stroke:none;fill-rule:nonzero;fill:rgb(11.372549%,11.372549%,10.588235%);fill-opacity:1;" d="M 133.746094 194.21875 L 104.773438 194.21875 L 104.773438 224.449219 L 105.007812 224.449219 L 105.007812 230.574219 L 111.128906 230.574219 L 111.128906 260.375 L 68.46875 260.375 L 68.46875 254.289062 L 62.347656 254.289062 L 62.347656 224.449219 L 68.585938 224.449219 L 68.585938 194.21875 L 45.851562 194.21875 L 45.851562 188.132812 L 39.726562 188.132812 L 39.726562 152.402344 L 127.625 152.402344 L 127.625 158.527344 L 133.746094 158.527344 Z M 133.746094 194.21875 "/>
<path style=" stroke:none;fill-rule:nonzero;fill:rgb(100%,100%,100%);fill-opacity:1;" d="M 99.664062 185.675781 L 125.207031 185.675781 L 125.207031 154.859375 L 42.183594 154.859375 L 42.183594 185.675781 L 67.84375 185.675781 L 67.84375 179.785156 L 71.042969 179.785156 L 71.042969 226.867188 L 64.800781 226.867188 L 64.800781 251.832031 L 102.589844 251.832031 L 102.589844 226.867188 L 96.234375 226.867188 L 96.234375 179.785156 L 99.664062 179.785156 Z M 99.664062 185.675781 "/>
<path style=" stroke:none;fill-rule:nonzero;fill:rgb(11.372549%,11.372549%,10.588235%);fill-opacity:1;" d="M 117.019531 163.167969 L 117.019531 177.601562 L 108.671875 177.601562 L 108.671875 171.359375 L 87.769531 171.359375 L 87.769531 235.214844 L 94.75 235.214844 L 94.75 243.640625 L 72.992188 243.640625 L 72.992188 235.214844 L 79.738281 235.214844 L 79.738281 171.359375 L 58.796875 171.359375 L 58.796875 177.601562 L 50.726562 177.601562 L 50.726562 163.167969 Z M 117.019531 163.167969 "/>
<path style=" stroke:none;fill-rule:nonzero;fill:rgb(100%,100%,100%);fill-opacity:1;" d="M 82.15625 171.75 L 85.316406 171.75 L 85.316406 175.066406 L 82.15625 175.066406 Z M 82.15625 171.75 "/>
<path style=" stroke:none;fill-rule:nonzero;fill:rgb(100%,100%,100%);fill-opacity:1;" d="M 88.277344 237.632812 L 91.4375 237.632812 L 91.4375 241.183594 L 88.277344 241.183594 Z M 88.277344 237.632812 "/>
<path style=" stroke:none;fill-rule:nonzero;fill:rgb(100%,100%,100%);fill-opacity:1;" d="M 111.128906 171.75 L 114.5625 171.75 L 114.5625 175.066406 L 111.128906 175.066406 Z M 111.128906 171.75 "/>
<path style=" stroke:none;fill-rule:nonzero;fill:rgb(11.372549%,11.372549%,10.588235%);fill-opacity:1;" d="M 213.574219 245.359375 L 198.167969 260.375 L 145.484375 260.375 L 145.484375 254.289062 L 139.363281 254.289062 L 139.363281 224.449219 L 145.601562 224.449219 L 145.601562 188.484375 L 145.484375 188.484375 L 145.484375 182.359375 L 139.363281 182.359375 L 139.363281 152.402344 L 192.046875 152.402344 L 213.574219 173.933594 L 213.574219 205.140625 L 209.90625 208.769531 L 213.574219 212.476562 Z M 213.574219 245.359375 "/>
<path style=" stroke:none;fill-rule:nonzero;fill:rgb(100%,100%,100%);fill-opacity:1;" d="M 191.074219 251.832031 L 205.03125 238.257812 L 205.03125 207.324219 L 200.507812 202.683594 L 205.03125 198.042969 L 205.03125 168.785156 L 191.074219 154.859375 L 141.820312 154.859375 L 141.820312 179.941406 L 148.058594 179.941406 L 148.058594 226.867188 L 141.820312 226.867188 L 141.820312 251.832031 Z M 191.074219 251.832031 "/>
<path style=" stroke:none;fill-rule:nonzero;fill:rgb(11.372549%,11.372549%,10.588235%);fill-opacity:1;" d="M 196.609375 209.511719 L 196.609375 232.25 L 185.222656 243.640625 L 150.125 243.640625 L 150.125 235.332031 L 156.25 235.332031 L 156.25 171.359375 L 150.125 171.359375 L 150.125 163.050781 L 185.964844 163.050781 L 196.609375 173.585938 L 196.609375 195.820312 L 189.746094 202.683594 Z M 196.609375 209.511719 "/>
<path style=" stroke:none;fill-rule:nonzero;fill:rgb(100%,100%,100%);fill-opacity:1;" d="M 158.707031 171.59375 L 162.136719 171.59375 L 162.136719 175.027344 L 158.707031 175.027344 Z M 158.707031 171.59375 "/>
<path style=" stroke:none;fill-rule:nonzero;fill:rgb(100%,100%,100%);fill-opacity:1;" d="M 182.765625 199.601562 L 188.421875 193.867188 L 188.421875 178.34375 L 181.441406 171.359375 L 164.554688 171.359375 L 164.554688 199.601562 Z M 182.765625 199.601562 "/>
<path style=" stroke:none;fill-rule:nonzero;fill:rgb(100%,100%,100%);fill-opacity:1;" d="M 182.179688 235.332031 L 188.421875 229.09375 L 188.421875 212.824219 L 182.765625 206.972656 L 164.554688 206.972656 L 164.554688 235.332031 Z M 182.179688 235.332031 "/>
<path style=" stroke:none;fill-rule:nonzero;fill:rgb(100%,100%,100%);fill-opacity:1;" d="M 164.789062 202.058594 L 168.222656 202.058594 L 168.222656 204.515625 L 164.789062 204.515625 Z M 164.789062 202.058594 "/>
<path style=" stroke:none;fill-rule:nonzero;fill:rgb(100%,100%,100%);fill-opacity:1;" d="M 164.789062 237.75 L 168.222656 237.75 L 168.222656 241.183594 L 164.789062 241.183594 Z M 164.789062 237.75 "/>
<path style=" stroke:none;fill-rule:nonzero;fill:rgb(11.372549%,11.372549%,10.588235%);fill-opacity:1;" d="M 172.628906 179.550781 L 180.074219 179.550781 L 180.074219 192.386719 L 172.628906 192.386719 Z M 172.628906 179.550781 "/>
<path style=" stroke:none;fill-rule:nonzero;fill:rgb(11.372549%,11.372549%,10.588235%);fill-opacity:1;" d="M 172.628906 215.128906 L 180.074219 215.128906 L 180.074219 227.101562 L 172.628906 227.101562 Z M 172.628906 215.128906 "/>
<path style=" stroke:none;fill-rule:nonzero;fill:rgb(100%,100%,100%);fill-opacity:1;" d="M 185.105469 171.59375 L 194.152344 180.644531 L 194.152344 174.675781 L 191.074219 171.59375 Z M 185.105469 171.59375 "/>
<path style=" stroke:none;fill-rule:nonzero;fill:rgb(100%,100%,100%);fill-opacity:1;" d="M 189.863281 208.183594 L 187.289062 208.183594 L 189.628906 210.640625 L 189.863281 210.640625 L 194.152344 215.011719 L 194.152344 210.523438 L 190.839844 207.207031 Z M 189.863281 208.183594 "/>
<path style=" stroke:none;fill-rule:nonzero;fill:rgb(11.372549%,11.372549%,10.588235%);fill-opacity:1;" d="M 308.101562 260.375 L 225.933594 260.375 L 225.933594 254.289062 L 219.8125 254.289062 L 219.8125 224.449219 L 226.285156 224.449219 L 226.285156 188.367188 L 225.933594 188.367188 L 225.933594 182.242188 L 219.8125 182.242188 L 219.8125 152.402344 L 301.976562 152.402344 L 301.976562 158.527344 L 308.101562 158.527344 L 308.101562 188.367188 L 295.738281 188.367188 L 286.183594 200.734375 L 293.789062 224.449219 L 301.976562 224.449219 L 301.976562 230.574219 L 308.101562 230.574219 Z M 308.101562 260.375 "/>
<path style=" stroke:none;fill-rule:nonzero;fill:rgb(100%,100%,100%);fill-opacity:1;" d="M 261.734375 251.832031 L 299.519531 251.832031 L 299.519531 226.867188 L 287.898438 226.867188 L 277.410156 194.101562 L 288.40625 179.785156 L 299.519531 179.785156 L 299.519531 154.859375 L 261.734375 154.859375 L 261.734375 179.785156 L 262.589844 179.785156 L 253.542969 191.527344 L 253.542969 179.785156 L 259.902344 179.785156 L 259.902344 154.859375 L 222.269531 154.859375 L 222.269531 179.785156 L 228.742188 179.785156 L 228.742188 226.867188 L 222.269531 226.867188 L 222.269531 251.832031 L 259.785156 251.832031 L 259.785156 226.867188 L 253.542969 226.867188 L 253.542969 224.058594 L 263.097656 212.085938 L 268.363281 226.867188 L 261.734375 226.867188 Z M 261.734375 251.832031 "/>
<path style=" stroke:none;fill-rule:nonzero;fill:rgb(11.372549%,11.372549%,10.588235%);fill-opacity:1;" d="M 291.332031 235.214844 L 291.332031 243.289062 L 269.339844 243.40625 L 269.339844 235.214844 L 277.644531 235.214844 L 264.8125 197.769531 L 245.238281 222.382812 L 245.238281 235.214844 L 252.453125 235.214844 L 252.453125 243.640625 L 230.574219 243.640625 L 230.574219 235.214844 L 236.933594 235.214844 L 236.933594 171.359375 L 230.574219 171.359375 L 230.574219 163.050781 L 252.453125 163.050781 L 252.453125 171.359375 L 245.238281 171.359375 L 245.238281 212.707031 L 277.878906 171.359375 L 270.429688 171.359375 L 270.429688 163.050781 L 291.097656 163.050781 L 291.097656 171.359375 L 285.832031 171.359375 L 269.6875 191.683594 L 284.859375 235.214844 Z M 291.332031 235.214844 "/>
<path style=" stroke:none;fill-rule:nonzero;fill:rgb(100%,100%,100%);fill-opacity:1;" d="M 239.390625 171.59375 L 242.820312 171.59375 L 242.820312 175.027344 L 239.390625 175.027344 Z M 239.390625 171.59375 "/>
<path style=" stroke:none;fill-rule:nonzero;fill:rgb(100%,100%,100%);fill-opacity:1;" d="M 245.511719 216.375 L 245.511719 218.207031 L 248.902344 213.917969 L 248.902344 212.085938 Z M 245.511719 216.375 "/>
<path style=" stroke:none;fill-rule:nonzero;fill:rgb(100%,100%,100%);fill-opacity:1;" d="M 245.472656 237.632812 L 248.902344 237.632812 L 248.902344 241.183594 L 245.472656 241.183594 Z M 245.472656 237.632812 "/>
<path style=" stroke:none;fill-rule:nonzero;fill:rgb(100%,100%,100%);fill-opacity:1;" d="M 270.195312 200.851562 L 269.6875 199.484375 L 268.480469 201.085938 L 268.949219 202.449219 Z M 270.195312 200.851562 "/>
<path style=" stroke:none;fill-rule:nonzero;fill:rgb(100%,100%,100%);fill-opacity:1;" d="M 279.007812 175.027344 L 279.710938 175.027344 L 282.402344 171.59375 L 280.6875 171.59375 L 279.007812 173.933594 Z M 279.007812 175.027344 "/>
<path style=" stroke:none;fill-rule:nonzero;fill:rgb(100%,100%,100%);fill-opacity:1;" d="M 285.09375 237.632812 L 286.183594 240.949219 L 288.171875 240.949219 L 287.042969 237.632812 Z M 285.09375 237.632812 "/>
<path style=" stroke:none;fill-rule:nonzero;fill:rgb(11.372549%,11.372549%,10.588235%);fill-opacity:1;" d="M 148.800781 310.695312 C 148.800781 324.460938 137.644531 335.621094 123.882812 335.621094 C 110.121094 335.621094 98.964844 324.460938 98.964844 310.695312 C 98.964844 296.929688 110.121094 285.769531 123.882812 285.769531 C 137.644531 285.769531 148.800781 296.929688 148.800781 310.695312 Z M 148.800781 310.695312 "/>
<path style=" stroke:none;fill-rule:nonzero;fill:rgb(100%,100%,100%);fill-opacity:1;" d="M 123.882812 321.070312 C 118.152344 321.070312 113.507812 316.425781 113.507812 310.695312 C 113.507812 304.964844 118.152344 300.320312 123.882812 300.320312 C 129.609375 300.320312 134.253906 304.964844 134.253906 310.695312 C 134.253906 316.425781 129.609375 321.070312 123.882812 321.070312 Z M 123.882812 305 C 120.757812 305.085938 118.289062 307.671875 118.34375 310.796875 C 118.402344 313.921875 120.964844 316.417969 124.089844 316.386719 C 127.210938 316.359375 129.730469 313.820312 129.730469 310.695312 C 129.730469 309.15625 129.109375 307.683594 128.007812 306.613281 C 126.90625 305.539062 125.417969 304.957031 123.882812 305 Z M 123.882812 305 "/>
<path style=" stroke:none;fill-rule:nonzero;fill:rgb(11.372549%,11.372549%,10.588235%);fill-opacity:1;" d="M 210.960938 310.695312 C 210.960938 324.460938 199.804688 335.621094 186.042969 335.621094 C 172.28125 335.621094 161.125 324.460938 161.125 310.695312 C 161.125 296.929688 172.28125 285.769531 186.042969 285.769531 C 199.804688 285.769531 210.960938 296.929688 210.960938 310.695312 Z M 210.960938 310.695312 "/>
<path style=" stroke:none;fill-rule:nonzero;fill:rgb(100%,100%,100%);fill-opacity:1;" d="M 186.042969 321.070312 C 180.3125 321.070312 175.667969 316.425781 175.667969 310.695312 C 175.667969 304.964844 180.3125 300.320312 186.042969 300.320312 C 191.769531 300.320312 196.414062 304.964844 196.414062 310.695312 C 196.394531 316.417969 191.761719 321.050781 186.042969 321.070312 Z M 186.042969 305 C 182.898438 305 180.347656 307.550781 180.347656 310.695312 C 180.347656 313.839844 182.898438 316.390625 186.042969 316.390625 C 189.1875 316.390625 191.734375 313.839844 191.734375 310.695312 C 191.734375 307.550781 189.1875 305 186.042969 305 Z M 186.042969 305 "/>
<path style=" stroke:none;fill-rule:nonzero;fill:rgb(11.372549%,11.372549%,10.588235%);fill-opacity:1;" d="M 421.226562 310.695312 C 421.226562 324.460938 410.070312 335.621094 396.308594 335.621094 C 382.546875 335.621094 371.390625 324.460938 371.390625 310.695312 C 371.390625 296.929688 382.546875 285.769531 396.308594 285.769531 C 410.070312 285.769531 421.226562 296.929688 421.226562 310.695312 Z M 421.226562 310.695312 "/>
<path style=" stroke:none;fill-rule:nonzero;fill:rgb(100%,100%,100%);fill-opacity:1;" d="M 396.308594 321.070312 C 392.105469 321.105469 388.300781 318.59375 386.671875 314.722656 C 385.039062 310.847656 385.910156 306.371094 388.871094 303.386719 C 391.828125 300.402344 396.296875 299.5 400.183594 301.101562 C 404.070312 302.703125 406.605469 306.492188 406.605469 310.695312 C 406.582031 316.386719 402 321.007812 396.308594 321.070312 Z M 396.308594 305 C 393.164062 305 390.617188 307.550781 390.617188 310.695312 C 390.617188 313.839844 393.164062 316.390625 396.308594 316.390625 C 399.453125 316.390625 402.003906 313.839844 402.003906 310.695312 C 402.003906 307.550781 399.453125 305 396.308594 305 Z M 396.308594 305 "/>
<path style=" stroke:none;fill-rule:nonzero;fill:rgb(11.372549%,11.372549%,10.588235%);fill-opacity:1;" d="M 462.992188 276.371094 L 462.992188 241.261719 C 462.636719 238.804688 461.207031 236.636719 459.09375 235.332031 L 459.328125 235.332031 C 458.941406 222.386719 457.226562 209.511719 454.21875 196.910156 C 454.21875 196.050781 453.90625 195.46875 453.867188 195.195312 C 452.832031 188.699219 448.71875 183.105469 442.832031 180.175781 C 432.382812 175.457031 409.335938 175.183594 401.105469 173.273438 C 380.828125 147.957031 351.152344 149.046875 344.210938 149.710938 C 343.375 149.792969 342.742188 150.507812 342.769531 151.351562 L 342.769531 265.914062 L 330.796875 265.914062 L 330.796875 146.824219 L 314.613281 146.824219 L 314.613281 265.914062 L 50.765625 265.914062 L 50.765625 316.625 L 97.285156 316.625 C 96.820312 314.617188 96.574219 312.5625 96.546875 310.5 C 96.546875 295.421875 108.765625 283.195312 123.84375 283.195312 C 138.917969 283.195312 151.140625 295.421875 151.140625 310.5 C 151.132812 312.5625 150.882812 314.621094 150.398438 316.625 L 159.328125 316.625 C 158.847656 314.621094 158.597656 312.5625 158.589844 310.5 C 158.589844 295.421875 170.808594 283.195312 185.886719 283.195312 C 200.960938 283.195312 213.183594 295.421875 213.183594 310.5 C 213.15625 312.5625 212.90625 314.617188 212.441406 316.625 L 369.714844 316.625 C 369.230469 314.621094 368.980469 312.5625 368.972656 310.5 C 368.972656 295.421875 381.195312 283.195312 396.269531 283.195312 C 411.347656 283.195312 423.566406 295.421875 423.566406 310.5 C 423.539062 312.5625 423.292969 314.617188 422.828125 316.625 L 454.257812 316.625 C 459.875 316.625 463.03125 315.027344 463.03125 309.757812 L 463.03125 287.523438 C 463.03125 287.523438 457.691406 279.722656 459.523438 277.109375 C 459.953125 276.332031 462.914062 277.226562 462.992188 276.371094 Z M 444.195312 209.003906 L 441.273438 209.003906 C 440.40625 209.003906 439.578125 209.347656 438.96875 209.964844 C 438.363281 210.582031 438.023438 211.414062 438.035156 212.28125 L 438.035156 228.898438 C 437.347656 228.972656 436.65625 228.972656 435.96875 228.898438 L 410.503906 226.246094 C 406.714844 225.84375 403.835938 222.644531 403.835938 218.832031 L 403.835938 201.203125 C 403.824219 199.222656 404.605469 197.320312 406.007812 195.921875 C 407.40625 194.523438 409.304688 193.742188 411.285156 193.75 L 436.867188 193.75 C 438.847656 193.742188 440.753906 194.519531 442.15625 195.917969 C 443.5625 197.316406 444.351562 199.21875 444.351562 201.203125 Z M 454.648438 234.242188 C 453.808594 234.242188 453.109375 233.597656 453.050781 232.757812 L 449.96875 198.664062 C 449.96875 197.886719 450.476562 197.417969 451.175781 197.144531 C 451.675781 196.910156 452.226562 196.804688 452.777344 196.832031 C 455.679688 209.320312 457.390625 222.054688 457.886719 234.863281 C 456.855469 234.453125 455.757812 234.238281 454.648438 234.242188 Z M 454.648438 234.242188 "/>
<path style=" stroke:none;fill-rule:nonzero;fill:rgb(89.803922%,13.333333%,10.980392%);fill-opacity:1;" d="M 46.28125 265.214844 L 46.28125 281.285156 L 449.734375 281.285156 L 358.132812 252.613281 L 358.132812 265.445312 Z M 46.28125 265.214844 "/>
<path style=" stroke:none;fill-rule:nonzero;fill:rgb(100%,100%,100%);fill-opacity:1;" d="M 62.035156 354.96875 C 61.796875 355.335938 61.492188 355.652344 61.136719 355.90625 C 60.738281 356.210938 60.304688 356.472656 59.851562 356.6875 C 59.308594 356.894531 58.746094 357.050781 58.171875 357.152344 C 56.722656 357.421875 55.226562 357.355469 53.804688 356.957031 C 53.082031 356.78125 52.394531 356.476562 51.777344 356.0625 C 51.273438 355.714844 50.839844 355.277344 50.492188 354.773438 C 50.183594 354.328125 50.023438 353.796875 50.023438 353.253906 C 50.023438 352.722656 50.1875 352.203125 50.492188 351.769531 C 50.824219 351.246094 51.265625 350.796875 51.777344 350.445312 C 52.414062 350.0625 53.09375 349.761719 53.804688 349.546875 C 55.246094 349.234375 56.734375 349.234375 58.171875 349.546875 C 58.746094 349.652344 59.308594 349.808594 59.851562 350.015625 C 60.324219 350.21875 60.769531 350.480469 61.175781 350.796875 C 61.511719 351.058594 61.800781 351.375 62.035156 351.730469 L 62.035156 352.082031 L 67.335938 352.082031 L 66.949219 351.148438 C 66.582031 350.246094 66.007812 349.441406 65.269531 348.804688 C 64.484375 348.136719 63.605469 347.585938 62.65625 347.167969 C 61.675781 346.722656 60.640625 346.410156 59.578125 346.230469 C 57.539062 345.882812 55.453125 345.882812 53.414062 346.230469 C 52.519531 346.414062 51.632812 346.648438 50.765625 346.933594 C 49.976562 347.238281 49.21875 347.617188 48.503906 348.066406 C 47.839844 348.472656 47.234375 348.972656 46.707031 349.546875 C 46.210938 350.082031 45.816406 350.703125 45.539062 351.382812 C 45.242188 352.03125 45.097656 352.734375 45.109375 353.449219 C 45.09375 354.171875 45.238281 354.894531 45.539062 355.554688 C 45.824219 356.214844 46.222656 356.820312 46.707031 357.347656 C 47.234375 357.921875 47.839844 358.421875 48.503906 358.832031 C 49.214844 359.285156 49.972656 359.664062 50.765625 359.960938 C 51.621094 360.289062 52.511719 360.523438 53.414062 360.664062 C 54.382812 360.835938 55.359375 360.929688 56.339844 360.9375 C 57.441406 360.9375 58.539062 360.820312 59.617188 360.585938 C 60.664062 360.40625 61.6875 360.089844 62.65625 359.652344 C 63.585938 359.242188 64.453125 358.703125 65.230469 358.050781 C 65.945312 357.425781 66.519531 356.65625 66.910156 355.789062 L 67.296875 354.8125 L 62.230469 354.8125 Z M 62.035156 354.96875 "/>
<path style=" stroke:none;fill-rule:nonzero;fill:rgb(100%,100%,100%);fill-opacity:1;" d="M 77.789062 355.242188 L 72.132812 345.996094 L 66.753906 345.996094 L 75.800781 360.390625 L 79.816406 360.390625 L 88.863281 345.996094 L 83.480469 345.996094 Z M 77.789062 355.242188 "/>
<path style=" stroke:none;fill-rule:nonzero;fill:rgb(100%,100%,100%);fill-opacity:1;" d="M 94.867188 349.429688 L 100.679688 349.429688 L 100.679688 360.390625 L 105.632812 360.390625 L 105.632812 349.429688 L 111.441406 349.429688 L 111.441406 346.035156 L 94.867188 346.035156 Z M 94.867188 349.429688 "/>
<path style=" stroke:none;fill-rule:nonzero;fill:rgb(100%,100%,100%);fill-opacity:1;" d="M 118.03125 354.96875 L 126.496094 354.96875 L 126.496094 351.574219 L 118.03125 351.574219 L 118.03125 349.46875 L 127.820312 349.46875 L 127.820312 346.035156 L 113.078125 346.035156 L 113.078125 360.390625 L 127.976562 360.390625 L 127.976562 356.957031 L 118.03125 356.957031 Z M 118.03125 354.96875 "/>
<path style=" stroke:none;fill-rule:nonzero;fill:rgb(100%,100%,100%);fill-opacity:1;" d="M 155.117188 345.996094 L 146.851562 359.222656 L 143.222656 355.320312 L 143.925781 355.007812 C 144.433594 354.746094 144.90625 354.417969 145.328125 354.035156 C 145.710938 353.644531 146.027344 353.195312 146.265625 352.707031 C 146.464844 352.199219 146.574219 351.65625 146.578125 351.109375 C 146.585938 350.363281 146.382812 349.632812 145.992188 349 C 145.566406 348.367188 145.007812 347.835938 144.355469 347.441406 C 143.621094 347.023438 142.835938 346.707031 142.015625 346.503906 C 141.066406 346.292969 140.101562 346.191406 139.128906 346.191406 L 130.003906 346.191406 L 130.003906 360.546875 L 134.957031 360.546875 L 134.957031 355.867188 L 138.117188 355.867188 L 142.015625 360.390625 L 151.570312 360.390625 L 153.128906 357.894531 L 161.355469 357.894531 L 162.917969 360.390625 L 168.296875 360.390625 L 159.328125 345.996094 Z M 134.957031 349.429688 L 138.855469 349.429688 C 139.246094 349.386719 139.636719 349.386719 140.027344 349.429688 C 140.328125 349.5 140.621094 349.617188 140.882812 349.78125 C 141.082031 349.917969 141.253906 350.089844 141.390625 350.289062 C 141.601562 350.59375 141.601562 350.996094 141.390625 351.304688 C 141.273438 351.507812 141.097656 351.667969 140.882812 351.769531 C 140.625 351.953125 140.335938 352.085938 140.027344 352.160156 C 139.652344 352.203125 139.269531 352.203125 138.894531 352.160156 L 134.996094 352.160156 Z M 159.171875 354.5 L 155.273438 354.5 L 157.027344 351.070312 Z M 159.171875 354.5 "/>
<path style=" stroke:none;fill-rule:nonzero;fill:rgb(100%,100%,100%);fill-opacity:1;" d="M 182.648438 354.113281 L 173.132812 346.191406 L 172.9375 346.035156 L 168.921875 346.035156 L 168.921875 360.390625 L 173.875 360.390625 L 173.875 352.277344 L 183.585938 360.390625 L 187.601562 360.390625 L 187.601562 346.035156 L 182.648438 346.035156 Z M 182.648438 354.113281 "/>
<path style=" stroke:none;fill-rule:nonzero;fill:rgb(100%,100%,100%);fill-opacity:1;" d="M 200.316406 352.160156 L 200.316406 355.28125 L 206.4375 355.28125 L 206.4375 355.554688 C 206.140625 355.898438 205.78125 356.191406 205.382812 356.414062 C 204.867188 356.710938 204.296875 356.910156 203.707031 356.996094 C 202.117188 357.386719 200.460938 357.386719 198.871094 356.996094 C 198.148438 356.820312 197.460938 356.515625 196.84375 356.101562 C 196.320312 355.765625 195.871094 355.328125 195.519531 354.8125 C 195.242188 354.355469 195.09375 353.828125 195.089844 353.292969 C 195.09375 352.769531 195.242188 352.253906 195.519531 351.808594 C 195.867188 351.285156 196.320312 350.832031 196.84375 350.484375 C 197.476562 350.09375 198.15625 349.792969 198.871094 349.585938 C 200.144531 349.25 201.46875 349.167969 202.769531 349.351562 L 204.136719 349.664062 L 205.226562 350.132812 L 206.164062 350.71875 L 206.554688 351.03125 L 210.140625 348.609375 L 209.285156 348.027344 C 208.152344 347.292969 206.917969 346.742188 205.617188 346.386719 C 203.234375 345.777344 200.75 345.671875 198.324219 346.074219 C 197.441406 346.253906 196.566406 346.488281 195.714844 346.777344 C 194.921875 347.074219 194.164062 347.453125 193.453125 347.910156 C 192.78125 348.308594 192.175781 348.808594 191.65625 349.390625 C 191.160156 349.9375 190.753906 350.554688 190.449219 351.226562 C 189.878906 352.558594 189.878906 354.066406 190.449219 355.398438 C 191.109375 356.757812 192.152344 357.898438 193.453125 358.675781 C 194.160156 359.136719 194.917969 359.515625 195.714844 359.804688 C 196.558594 360.132812 197.433594 360.367188 198.324219 360.507812 C 199.304688 360.679688 200.296875 360.773438 201.289062 360.78125 C 202.710938 360.785156 204.128906 360.601562 205.5 360.234375 C 206.695312 359.898438 207.828125 359.371094 208.855469 358.675781 C 209.765625 358.011719 210.527344 357.160156 211.078125 356.179688 C 211.59375 355.183594 211.824219 354.0625 211.742188 352.941406 L 211.742188 352.277344 Z M 200.316406 352.160156 "/>
<path style=" stroke:none;fill-rule:nonzero;fill:rgb(100%,100%,100%);fill-opacity:1;" d="M 236.738281 353.449219 C 236.371094 353.148438 235.960938 352.898438 235.527344 352.707031 C 235.714844 352.585938 235.882812 352.441406 236.035156 352.277344 C 236.300781 352 236.523438 351.683594 236.699219 351.34375 C 236.859375 350.988281 236.9375 350.601562 236.933594 350.210938 C 236.949219 349.558594 236.757812 348.914062 236.386719 348.378906 C 236.023438 347.882812 235.558594 347.46875 235.019531 347.167969 C 234.371094 346.8125 233.675781 346.546875 232.953125 346.386719 C 232.105469 346.226562 231.246094 346.148438 230.378906 346.152344 L 221.101562 346.152344 L 221.101562 360.507812 L 231.121094 360.507812 C 231.949219 360.515625 232.773438 360.421875 233.578125 360.234375 C 234.339844 360.097656 235.074219 359.847656 235.761719 359.496094 C 236.398438 359.160156 236.957031 358.695312 237.398438 358.128906 C 237.84375 357.519531 238.078125 356.777344 238.0625 356.023438 C 238.046875 355.542969 237.914062 355.074219 237.671875 354.65625 C 237.453125 354.191406 237.132812 353.78125 236.738281 353.449219 Z M 231.824219 350.71875 C 231.726562 350.855469 231.609375 350.972656 231.472656 351.070312 L 230.847656 351.34375 L 226.011719 351.34375 L 226.011719 349.273438 L 230.109375 349.273438 C 230.351562 349.238281 230.601562 349.238281 230.847656 349.273438 L 231.472656 349.546875 C 231.609375 349.644531 231.726562 349.761719 231.824219 349.898438 C 231.984375 350.078125 231.984375 350.34375 231.824219 350.523438 Z M 226.011719 354.617188 L 230.769531 354.617188 C 231.09375 354.578125 231.421875 354.578125 231.746094 354.617188 C 232 354.675781 232.238281 354.78125 232.449219 354.929688 C 232.609375 355.039062 232.753906 355.171875 232.875 355.320312 C 233.035156 355.558594 233.035156 355.863281 232.875 356.101562 L 232.371094 356.492188 C 232.144531 356.640625 231.894531 356.746094 231.628906 356.804688 C 231.34375 356.839844 231.054688 356.839844 230.769531 356.804688 L 226.011719 356.804688 Z M 226.011719 354.617188 "/>
<path style=" stroke:none;fill-rule:nonzero;fill:rgb(100%,100%,100%);fill-opacity:1;" d="M 245.082031 354.96875 L 253.542969 354.96875 L 253.542969 351.574219 L 245.082031 351.574219 L 245.082031 349.46875 L 254.871094 349.46875 L 254.871094 346.035156 L 240.128906 346.035156 L 240.128906 360.390625 L 255.027344 360.390625 L 255.027344 356.957031 L 245.082031 356.957031 Z M 245.082031 354.96875 "/>
<path style=" stroke:none;fill-rule:nonzero;fill:rgb(100%,100%,100%);fill-opacity:1;" d="M 270.976562 354.96875 C 271.484375 354.707031 271.957031 354.378906 272.378906 353.996094 C 272.761719 353.605469 273.078125 353.15625 273.316406 352.667969 C 273.53125 352.164062 273.636719 351.617188 273.628906 351.070312 C 273.636719 350.324219 273.433594 349.59375 273.042969 348.960938 C 272.617188 348.328125 272.058594 347.796875 271.40625 347.402344 C 270.671875 346.984375 269.882812 346.667969 269.066406 346.464844 C 268.117188 346.253906 267.148438 346.152344 266.179688 346.152344 L 257.054688 346.152344 L 257.054688 360.507812 L 262.007812 360.507812 L 262.007812 355.867188 L 265.164062 355.867188 L 269.066406 360.390625 L 275.03125 360.390625 L 270.117188 355.164062 Z M 262.007812 349.546875 L 265.90625 349.546875 C 266.296875 349.503906 266.6875 349.503906 267.078125 349.546875 C 267.382812 349.609375 267.671875 349.726562 267.933594 349.898438 C 268.140625 350.027344 268.3125 350.199219 268.441406 350.40625 C 268.652344 350.710938 268.652344 351.113281 268.441406 351.417969 C 268.324219 351.625 268.144531 351.785156 267.933594 351.886719 C 267.6875 352.0625 267.410156 352.195312 267.113281 352.277344 C 266.726562 352.320312 266.335938 352.320312 265.945312 352.277344 L 262.046875 352.277344 Z M 262.007812 349.546875 "/>
<path style=" stroke:none;fill-rule:nonzero;fill:rgb(100%,100%,100%);fill-opacity:1;" d="M 305.722656 345.996094 L 301.550781 345.996094 L 293.515625 358.871094 L 286.964844 352.433594 L 294.761719 345.957031 L 288.445312 345.957031 L 280.648438 352.550781 L 280.648438 346.035156 L 275.65625 346.035156 L 275.65625 360.390625 L 280.609375 360.390625 L 280.609375 357.542969 L 283.53125 355.125 L 288.71875 360.390625 L 297.960938 360.390625 L 299.519531 357.894531 L 307.75 357.894531 L 309.308594 360.390625 L 314.691406 360.390625 L 305.917969 346.347656 Z M 305.722656 354.5 L 301.820312 354.5 L 303.8125 351.226562 Z M 305.722656 354.5 "/>
<path style=" stroke:none;fill-rule:nonzero;fill:rgb(100%,100%,100%);fill-opacity:1;" d="M 311.53125 349.429688 L 317.304688 349.429688 L 317.304688 360.390625 L 322.257812 360.390625 L 322.257812 349.429688 L 328.066406 349.429688 L 328.066406 346.035156 L 311.53125 346.035156 Z M 311.53125 349.429688 "/>
<path style=" stroke:none;fill-rule:nonzero;fill:rgb(100%,100%,100%);fill-opacity:1;" d="M 366.476562 345.996094 L 362.34375 345.996094 L 354.234375 358.871094 L 347.71875 352.511719 L 355.519531 346.035156 L 349.242188 346.035156 L 341.441406 352.628906 L 341.441406 346.035156 L 336.410156 346.035156 L 336.410156 360.390625 L 341.363281 360.390625 L 341.363281 357.542969 L 344.210938 354.96875 L 349.4375 360.234375 L 358.640625 360.234375 L 360.199219 357.738281 L 368.425781 357.738281 L 369.988281 360.234375 L 375.40625 360.234375 L 366.632812 346.191406 Z M 366.476562 354.5 L 362.578125 354.5 L 364.566406 351.226562 Z M 366.476562 354.5 "/>
<path style=" stroke:none;fill-rule:nonzero;fill:rgb(100%,100%,100%);fill-opacity:1;" d="M 390.070312 354.96875 C 390.578125 354.707031 391.050781 354.378906 391.472656 353.996094 C 391.855469 353.605469 392.171875 353.15625 392.410156 352.667969 C 392.640625 352.164062 392.757812 351.621094 392.761719 351.070312 C 392.757812 350.320312 392.542969 349.589844 392.136719 348.960938 C 391.710938 348.328125 391.152344 347.796875 390.5 347.402344 C 389.765625 346.984375 388.980469 346.667969 388.160156 346.464844 C 387.214844 346.234375 386.246094 346.132812 385.273438 346.152344 L 376.148438 346.152344 L 376.148438 360.507812 L 381.101562 360.507812 L 381.101562 355.867188 L 384.261719 355.867188 L 388.160156 360.390625 L 394.125 360.390625 L 389.445312 355.164062 Z M 381.101562 349.546875 L 385 349.546875 C 385.390625 349.503906 385.78125 349.503906 386.171875 349.546875 C 386.476562 349.609375 386.769531 349.726562 387.027344 349.898438 C 387.234375 350.027344 387.410156 350.199219 387.535156 350.40625 C 387.746094 350.710938 387.746094 351.113281 387.535156 351.417969 C 387.410156 351.625 387.234375 351.800781 387.027344 351.925781 C 386.757812 352.082031 386.472656 352.199219 386.171875 352.277344 C 385.796875 352.320312 385.414062 352.320312 385.039062 352.277344 L 381.140625 352.277344 Z M 381.101562 349.546875 "/>
<path style=" stroke:none;fill-rule:nonzero;fill:rgb(100%,100%,100%);fill-opacity:1;" d="M 407.539062 354.695312 C 407.546875 355.023438 407.464844 355.347656 407.308594 355.632812 C 407.136719 355.96875 406.882812 356.25 406.566406 356.453125 C 406.167969 356.707031 405.734375 356.90625 405.277344 357.035156 C 404 357.367188 402.660156 357.367188 401.378906 357.035156 C 400.933594 356.914062 400.511719 356.714844 400.132812 356.453125 C 399.523438 356.058594 399.15625 355.382812 399.15625 354.65625 L 399.15625 346.035156 L 394.242188 346.035156 L 394.242188 354.65625 C 394.21875 355.570312 394.476562 356.46875 394.984375 357.230469 C 395.484375 358.019531 396.167969 358.675781 396.972656 359.144531 C 397.863281 359.65625 398.820312 360.039062 399.820312 360.273438 C 400.941406 360.546875 402.09375 360.679688 403.25 360.664062 C 404.460938 360.667969 405.664062 360.523438 406.839844 360.234375 C 407.84375 360.003906 408.808594 359.609375 409.683594 359.066406 C 410.453125 358.570312 411.101562 357.921875 411.597656 357.152344 C 412.066406 356.40625 412.3125 355.539062 412.296875 354.65625 L 412.296875 346.035156 L 407.347656 346.035156 Z M 407.539062 354.695312 "/>
<path style=" stroke:none;fill-rule:nonzero;fill:rgb(100%,100%,100%);fill-opacity:1;" d="M 429.066406 354.113281 L 419.355469 346.035156 L 415.339844 346.035156 L 415.339844 360.390625 L 420.292969 360.390625 L 420.292969 352.277344 L 430.003906 360.390625 L 433.980469 360.390625 L 433.980469 346.035156 L 429.066406 346.035156 Z M 429.066406 354.113281 "/>
<path style=" stroke:none;fill-rule:nonzero;fill:rgb(100%,100%,100%);fill-opacity:1;" d="M 437.179688 346.035156 L 442.128906 346.035156 L 442.128906 360.390625 L 437.179688 360.390625 Z M 437.179688 346.035156 "/>
<path style=" stroke:none;fill-rule:nonzero;fill:rgb(100%,100%,100%);fill-opacity:1;" d="M 456.128906 346.347656 L 455.894531 345.996094 L 451.761719 345.996094 L 442.792969 360.390625 L 448.175781 360.390625 L 449.695312 357.894531 L 457.964844 357.894531 L 459.484375 360.390625 L 465.097656 360.390625 Z M 455.816406 354.5 L 451.917969 354.5 L 453.945312 351.226562 Z M 455.816406 354.5 "/>
<path style=" stroke:none;fill-rule:nonzero;fill:rgb(11.372549%,11.372549%,10.588235%);fill-opacity:1;" d="M 62.617188 351.070312 C 62.332031 350.636719 61.976562 350.253906 61.566406 349.9375 C 61.128906 349.585938 60.640625 349.296875 60.125 349.078125 C 59.542969 348.851562 58.941406 348.683594 58.328125 348.574219 C 57.667969 348.515625 57.003906 348.515625 56.339844 348.574219 C 55.417969 348.566406 54.5 348.683594 53.609375 348.921875 C 52.824219 349.148438 52.074219 349.492188 51.386719 349.9375 C 50.800781 350.328125 50.296875 350.832031 49.90625 351.417969 C 49.554688 351.980469 49.367188 352.628906 49.359375 353.292969 C 49.355469 353.957031 49.542969 354.605469 49.90625 355.164062 C 50.285156 355.773438 50.789062 356.289062 51.386719 356.6875 C 52.078125 357.121094 52.824219 357.449219 53.609375 357.660156 C 54.5 357.914062 55.417969 358.042969 56.339844 358.050781 C 56.996094 358.046875 57.648438 357.980469 58.289062 357.855469 C 58.90625 357.757812 59.507812 357.585938 60.085938 357.347656 C 60.617188 357.132812 61.113281 356.84375 61.566406 356.492188 C 61.984375 356.191406 62.328125 355.808594 62.578125 355.359375 L 66.480469 355.359375 C 66.140625 356.148438 65.621094 356.84375 64.957031 357.386719 C 64.246094 358.003906 63.445312 358.503906 62.578125 358.871094 C 61.640625 359.28125 60.660156 359.582031 59.65625 359.765625 C 58.628906 359.988281 57.582031 360.089844 56.535156 360.078125 C 55.59375 360.082031 54.65625 360.003906 53.726562 359.84375 C 52.867188 359.695312 52.019531 359.472656 51.191406 359.183594 C 50.445312 358.890625 49.726562 358.523438 49.046875 358.089844 C 48.445312 357.710938 47.894531 357.25 47.410156 356.726562 C 46.964844 356.261719 46.605469 355.71875 46.355469 355.125 C 46.09375 354.550781 45.960938 353.925781 45.96875 353.292969 C 45.960938 352.671875 46.09375 352.058594 46.355469 351.496094 C 46.605469 350.890625 46.960938 350.335938 47.410156 349.859375 C 47.894531 349.332031 48.445312 348.875 49.046875 348.496094 C 49.71875 348.058594 50.4375 347.703125 51.191406 347.441406 C 52.011719 347.132812 52.863281 346.910156 53.726562 346.777344 C 54.652344 346.585938 55.59375 346.496094 56.535156 346.503906 C 57.582031 346.511719 58.628906 346.617188 59.65625 346.816406 C 60.660156 347.003906 61.640625 347.304688 62.578125 347.714844 C 63.445312 348.082031 64.246094 348.582031 64.957031 349.195312 C 65.632812 349.761719 66.15625 350.484375 66.480469 351.304688 Z M 62.617188 351.070312 "/>
<path style=" stroke:none;fill-rule:nonzero;fill:rgb(11.372549%,11.372549%,10.588235%);fill-opacity:1;" d="M 83.832031 346.699219 L 87.734375 346.699219 L 79.542969 359.691406 L 76.304688 359.691406 L 68.078125 346.699219 L 71.976562 346.699219 L 78.023438 356.53125 Z M 83.832031 346.699219 "/>
<path style=" stroke:none;fill-rule:nonzero;fill:rgb(11.372549%,11.372549%,10.588235%);fill-opacity:1;" d="M 101.34375 348.765625 L 95.570312 348.765625 L 95.570312 346.699219 L 110.738281 346.699219 L 110.738281 348.765625 L 104.929688 348.765625 L 104.929688 359.691406 L 101.34375 359.691406 Z M 101.34375 348.765625 "/>
<path style=" stroke:none;fill-rule:nonzero;fill:rgb(11.372549%,11.372549%,10.588235%);fill-opacity:1;" d="M 113.742188 346.699219 L 127.15625 346.699219 L 127.15625 348.765625 L 117.332031 348.765625 L 117.332031 352.238281 L 125.832031 352.238281 L 125.832031 354.304688 L 117.332031 354.304688 L 117.332031 357.660156 L 127.273438 357.660156 L 127.273438 359.691406 L 113.742188 359.691406 Z M 113.742188 346.699219 "/>
<path style=" stroke:none;fill-rule:nonzero;fill:rgb(11.372549%,11.372549%,10.588235%);fill-opacity:1;" d="M 138.425781 355.164062 L 134.253906 355.164062 L 134.253906 359.691406 L 130.707031 359.691406 L 130.707031 346.699219 L 139.128906 346.699219 C 140.046875 346.699219 140.964844 346.804688 141.859375 347.011719 C 142.609375 347.195312 143.332031 347.484375 144.003906 347.871094 C 144.5625 348.222656 145.042969 348.6875 145.40625 349.234375 C 145.75 349.742188 145.925781 350.339844 145.914062 350.953125 C 145.921875 351.410156 145.828125 351.859375 145.640625 352.277344 C 145.453125 352.6875 145.191406 353.058594 144.863281 353.371094 C 144.492188 353.730469 144.074219 354.03125 143.613281 354.265625 C 143.101562 354.515625 142.566406 354.710938 142.015625 354.851562 L 146.34375 359.691406 L 142.445312 359.691406 Z M 139.011719 353.136719 C 139.453125 353.175781 139.898438 353.175781 140.339844 353.136719 C 140.699219 353.035156 141.042969 352.878906 141.351562 352.667969 C 141.652344 352.511719 141.90625 352.285156 142.09375 352.003906 C 142.253906 351.734375 142.332031 351.421875 142.328125 351.109375 C 142.328125 350.792969 142.25 350.484375 142.09375 350.210938 C 141.882812 349.949219 141.632812 349.726562 141.351562 349.546875 C 141.03125 349.332031 140.675781 349.171875 140.300781 349.078125 C 139.859375 349.015625 139.414062 349.015625 138.972656 349.078125 L 134.253906 349.078125 L 134.253906 353.449219 Z M 139.011719 353.136719 "/>
<path style=" stroke:none;fill-rule:nonzero;fill:rgb(11.372549%,11.372549%,10.588235%);fill-opacity:1;" d="M 161.667969 357.230469 L 152.660156 357.230469 L 151.140625 359.691406 L 147.242188 359.691406 L 155.351562 346.699219 L 158.746094 346.699219 L 166.894531 359.691406 L 162.996094 359.691406 Z M 153.871094 355.164062 L 160.34375 355.164062 L 157.261719 350.171875 L 157.261719 349.820312 L 157.261719 350.171875 Z M 153.871094 355.164062 "/>
<path style=" stroke:none;fill-rule:nonzero;fill:rgb(11.372549%,11.372549%,10.588235%);fill-opacity:1;" d="M 186.898438 359.691406 L 183.820312 359.691406 L 173.171875 350.835938 L 173.171875 359.691406 L 169.625 359.691406 L 169.625 346.699219 L 172.628906 346.699219 L 183.273438 355.59375 L 183.273438 346.699219 L 186.820312 346.699219 Z M 186.898438 359.691406 "/>
<path style=" stroke:none;fill-rule:nonzero;fill:rgb(11.372549%,11.372549%,10.588235%);fill-opacity:1;" d="M 200.976562 352.863281 L 210.960938 352.863281 C 211.015625 353.863281 210.796875 354.859375 210.335938 355.75 C 209.847656 356.628906 209.167969 357.390625 208.347656 357.972656 C 207.390625 358.652344 206.320312 359.152344 205.1875 359.457031 C 203.917969 359.796875 202.605469 359.96875 201.289062 359.960938 C 200.347656 359.964844 199.410156 359.886719 198.480469 359.726562 C 197.621094 359.582031 196.769531 359.359375 195.945312 359.066406 C 195.199219 358.773438 194.480469 358.40625 193.800781 357.972656 C 193.183594 357.613281 192.628906 357.152344 192.164062 356.609375 C 191.671875 356.132812 191.265625 355.578125 190.957031 354.96875 C 190.722656 354.386719 190.605469 353.765625 190.605469 353.136719 C 190.605469 352.519531 190.722656 351.910156 190.957031 351.34375 C 191.554688 350.097656 192.503906 349.054688 193.683594 348.339844 C 194.410156 347.847656 195.195312 347.453125 196.023438 347.167969 C 196.84375 346.855469 197.691406 346.632812 198.558594 346.503906 C 199.484375 346.3125 200.425781 346.222656 201.367188 346.230469 C 202.761719 346.226562 204.152344 346.410156 205.5 346.777344 C 206.746094 347.105469 207.933594 347.632812 209.011719 348.339844 L 206.632812 349.898438 C 206.328125 349.660156 206 349.449219 205.65625 349.273438 C 205.257812 349.066406 204.839844 348.894531 204.410156 348.765625 C 203.941406 348.605469 203.457031 348.488281 202.964844 348.417969 C 202.433594 348.375 201.898438 348.375 201.367188 348.417969 C 200.445312 348.410156 199.527344 348.527344 198.636719 348.765625 C 197.84375 348.976562 197.09375 349.320312 196.414062 349.78125 C 195.828125 350.171875 195.324219 350.675781 194.933594 351.265625 C 194.554688 351.816406 194.351562 352.46875 194.347656 353.136719 C 194.339844 353.804688 194.542969 354.460938 194.933594 355.007812 C 195.3125 355.617188 195.816406 356.136719 196.414062 356.53125 C 197.097656 356.976562 197.847656 357.308594 198.636719 357.503906 C 199.527344 357.757812 200.445312 357.886719 201.367188 357.894531 C 202.195312 357.910156 203.019531 357.816406 203.824219 357.621094 C 204.476562 357.496094 205.109375 357.273438 205.695312 356.957031 C 206.1875 356.707031 206.613281 356.347656 206.945312 355.90625 C 207.242188 355.511719 207.457031 355.0625 207.566406 354.578125 L 200.976562 354.578125 Z M 200.976562 352.863281 "/>
<path style=" stroke:none;fill-rule:nonzero;fill:rgb(11.372549%,11.372549%,10.588235%);fill-opacity:1;" d="M 221.761719 359.691406 L 221.761719 346.699219 L 230.304688 346.699219 C 231.113281 346.695312 231.925781 346.773438 232.71875 346.933594 C 233.378906 347.101562 234.019531 347.335938 234.632812 347.636719 C 235.105469 347.929688 235.515625 348.3125 235.839844 348.765625 C 236.117188 349.199219 236.265625 349.699219 236.269531 350.210938 C 236.328125 350.492188 236.328125 350.785156 236.269531 351.070312 C 236.121094 351.339844 235.9375 351.589844 235.722656 351.808594 C 235.496094 352.046875 235.234375 352.246094 234.941406 352.394531 C 234.636719 352.578125 234.308594 352.722656 233.96875 352.824219 C 234.449219 352.9375 234.917969 353.09375 235.371094 353.292969 C 235.777344 353.480469 236.15625 353.714844 236.503906 353.996094 C 236.824219 354.234375 237.089844 354.542969 237.28125 354.890625 C 237.46875 355.195312 237.5625 355.546875 237.554688 355.90625 C 237.585938 356.511719 237.390625 357.109375 237.011719 357.582031 C 236.65625 358.09375 236.171875 358.496094 235.605469 358.753906 C 234.980469 359.078125 234.308594 359.316406 233.617188 359.457031 C 232.859375 359.613281 232.089844 359.691406 231.316406 359.691406 Z M 225.351562 352.121094 L 230.109375 352.121094 C 230.417969 352.160156 230.734375 352.160156 231.042969 352.121094 C 231.320312 352.023438 231.582031 351.894531 231.824219 351.730469 C 232.050781 351.605469 232.25 351.433594 232.410156 351.226562 C 232.667969 350.792969 232.667969 350.253906 232.410156 349.820312 C 232.25 349.613281 232.050781 349.4375 231.824219 349.3125 C 231.582031 349.152344 231.320312 349.023438 231.042969 348.921875 C 230.734375 348.886719 230.417969 348.886719 230.109375 348.921875 L 225.351562 348.921875 Z M 230.769531 357.699219 C 231.109375 357.738281 231.449219 357.738281 231.785156 357.699219 C 232.113281 357.617188 232.429688 357.484375 232.71875 357.308594 C 232.984375 357.167969 233.210938 356.96875 233.382812 356.726562 C 233.5625 356.503906 233.660156 356.230469 233.65625 355.945312 C 233.65625 355.667969 233.574219 355.394531 233.421875 355.164062 C 233.253906 354.933594 233.042969 354.734375 232.796875 354.578125 C 232.527344 354.398438 232.222656 354.265625 231.902344 354.1875 C 231.527344 354.148438 231.148438 354.148438 230.769531 354.1875 L 225.351562 354.1875 L 225.351562 358.089844 Z M 230.769531 357.699219 "/>
<path style=" stroke:none;fill-rule:nonzero;fill:rgb(11.372549%,11.372549%,10.588235%);fill-opacity:1;" d="M 240.832031 346.699219 L 254.207031 346.699219 L 254.207031 348.765625 L 244.378906 348.765625 L 244.378906 352.238281 L 252.882812 352.238281 L 252.882812 354.304688 L 244.378906 354.304688 L 244.378906 357.660156 L 254.519531 357.660156 L 254.519531 359.691406 L 240.832031 359.691406 Z M 240.832031 346.699219 "/>
<path style=" stroke:none;fill-rule:nonzero;fill:rgb(11.372549%,11.372549%,10.588235%);fill-opacity:1;" d="M 265.476562 355.164062 L 261.34375 355.164062 L 261.34375 359.691406 L 257.757812 359.691406 L 257.757812 346.699219 L 266.21875 346.699219 C 267.136719 346.699219 268.054688 346.804688 268.949219 347.011719 C 269.703125 347.191406 270.425781 347.480469 271.09375 347.871094 C 271.667969 348.199219 272.152344 348.667969 272.496094 349.234375 C 272.839844 349.742188 273.015625 350.339844 273.003906 350.953125 C 273.011719 351.410156 272.917969 351.859375 272.730469 352.277344 C 272.542969 352.6875 272.277344 353.058594 271.949219 353.371094 C 271.582031 353.730469 271.160156 354.03125 270.703125 354.265625 C 270.191406 354.515625 269.65625 354.710938 269.105469 354.851562 L 273.433594 359.691406 L 269.53125 359.691406 Z M 266.0625 353.136719 C 266.503906 353.175781 266.945312 353.175781 267.386719 353.136719 C 267.757812 353.027344 268.113281 352.871094 268.441406 352.667969 C 268.71875 352.5 268.960938 352.273438 269.144531 352.003906 C 269.300781 351.734375 269.382812 351.421875 269.378906 351.109375 C 269.378906 350.792969 269.296875 350.484375 269.144531 350.210938 C 268.9375 349.960938 268.703125 349.738281 268.441406 349.546875 C 268.101562 349.335938 267.734375 349.179688 267.347656 349.078125 C 266.910156 349.015625 266.464844 349.015625 266.023438 349.078125 L 261.34375 349.078125 L 261.34375 353.449219 Z M 266.0625 353.136719 "/>
<path style=" stroke:none;fill-rule:nonzero;fill:rgb(11.372549%,11.372549%,10.588235%);fill-opacity:1;" d="M 279.945312 354.074219 L 288.71875 346.699219 L 292.890625 346.699219 L 285.910156 352.472656 L 293.242188 359.691406 L 289.03125 359.691406 L 283.570312 354.226562 L 279.945312 357.191406 L 279.945312 359.691406 L 276.355469 359.691406 L 276.355469 346.699219 L 279.945312 346.699219 Z M 279.945312 354.074219 "/>
<path style=" stroke:none;fill-rule:nonzero;fill:rgb(11.372549%,11.372549%,10.588235%);fill-opacity:1;" d="M 308.140625 357.230469 L 299.132812 357.230469 L 297.570312 359.691406 L 293.671875 359.691406 L 301.78125 346.699219 L 305.214844 346.699219 L 313.363281 359.691406 L 309.464844 359.691406 Z M 300.339844 355.164062 L 306.8125 355.164062 L 303.734375 350.171875 L 303.734375 349.820312 L 303.734375 350.171875 Z M 300.339844 355.164062 "/>
<path style=" stroke:none;fill-rule:nonzero;fill:rgb(11.372549%,11.372549%,10.588235%);fill-opacity:1;" d="M 318.003906 348.765625 L 312.195312 348.765625 L 312.195312 346.699219 L 327.402344 346.699219 L 327.402344 348.765625 L 321.59375 348.765625 L 321.59375 359.691406 L 318.003906 359.691406 Z M 318.003906 348.765625 "/>
<path style=" stroke:none;fill-rule:nonzero;fill:rgb(11.372549%,11.372549%,10.588235%);fill-opacity:1;" d="M 340.699219 354.074219 L 349.476562 346.699219 L 353.648438 346.699219 L 346.707031 352.472656 L 354.039062 359.691406 L 349.789062 359.691406 L 344.210938 354.226562 L 340.546875 357.191406 L 340.546875 359.691406 L 336.957031 359.691406 L 336.957031 346.699219 L 340.546875 346.699219 Z M 340.699219 354.074219 "/>
<path style=" stroke:none;fill-rule:nonzero;fill:rgb(11.372549%,11.372549%,10.588235%);fill-opacity:1;" d="M 368.894531 357.230469 L 359.808594 357.230469 L 358.289062 359.691406 L 354.390625 359.691406 L 362.539062 346.699219 L 365.894531 346.699219 L 374.042969 359.691406 L 370.144531 359.691406 Z M 361.097656 355.164062 L 367.609375 355.164062 L 364.527344 350.171875 L 364.527344 349.820312 L 364.527344 350.171875 Z M 361.097656 355.164062 "/>
<path style=" stroke:none;fill-rule:nonzero;fill:rgb(11.372549%,11.372549%,10.588235%);fill-opacity:1;" d="M 384.570312 355.164062 L 380.4375 355.164062 L 380.4375 359.691406 L 376.851562 359.691406 L 376.851562 346.699219 L 385.273438 346.699219 C 386.191406 346.695312 387.109375 346.800781 388.003906 347.011719 C 388.757812 347.191406 389.480469 347.480469 390.148438 347.871094 C 390.726562 348.199219 391.207031 348.667969 391.550781 349.234375 C 391.894531 349.742188 392.070312 350.339844 392.058594 350.953125 C 392.066406 351.410156 391.972656 351.859375 391.785156 352.277344 C 391.613281 352.695312 391.347656 353.070312 391.007812 353.371094 C 390.636719 353.730469 390.21875 354.03125 389.757812 354.265625 C 389.246094 354.515625 388.710938 354.710938 388.160156 354.851562 L 392.527344 359.691406 L 388.394531 359.691406 Z M 385.15625 353.136719 C 385.597656 353.179688 386.042969 353.179688 386.484375 353.136719 C 386.851562 353.027344 387.207031 352.871094 387.535156 352.667969 C 387.816406 352.5 388.054688 352.273438 388.238281 352.003906 C 388.394531 351.734375 388.476562 351.421875 388.472656 351.109375 C 388.472656 350.792969 388.394531 350.484375 388.238281 350.210938 C 388.03125 349.960938 387.796875 349.738281 387.535156 349.546875 C 387.199219 349.335938 386.828125 349.179688 386.445312 349.078125 C 386.015625 349.015625 385.582031 349.015625 385.15625 349.078125 L 380.4375 349.078125 L 380.4375 353.449219 Z M 385.15625 353.136719 "/>
<path style=" stroke:none;fill-rule:nonzero;fill:rgb(11.372549%,11.372549%,10.588235%);fill-opacity:1;" d="M 408.242188 346.699219 L 411.792969 346.699219 L 411.792969 354.5 C 411.808594 355.257812 411.605469 356.003906 411.207031 356.648438 C 410.777344 357.335938 410.1875 357.910156 409.492188 358.324219 C 408.695312 358.84375 407.808594 359.214844 406.878906 359.417969 C 405.753906 359.691406 404.601562 359.824219 403.445312 359.804688 C 402.34375 359.8125 401.246094 359.695312 400.171875 359.457031 C 399.234375 359.253906 398.335938 358.898438 397.519531 358.402344 C 396.816406 357.980469 396.21875 357.40625 395.765625 356.726562 C 395.324219 356.066406 395.089844 355.292969 395.101562 354.5 L 395.101562 346.699219 L 398.804688 346.699219 L 398.804688 354.5 C 398.789062 354.953125 398.894531 355.398438 399.117188 355.789062 C 399.335938 356.199219 399.644531 356.558594 400.015625 356.84375 C 400.488281 357.144531 401 357.378906 401.535156 357.542969 C 402.820312 357.832031 404.152344 357.832031 405.433594 357.542969 C 405.960938 357.382812 406.457031 357.144531 406.917969 356.84375 C 407.316406 356.59375 407.640625 356.246094 407.851562 355.828125 C 408.085938 355.4375 408.207031 354.992188 408.203125 354.539062 Z M 408.242188 346.699219 "/>
<path style=" stroke:none;fill-rule:nonzero;fill:rgb(11.372549%,11.372549%,10.588235%);fill-opacity:1;" d="M 433.316406 359.691406 L 430.238281 359.691406 L 419.589844 350.835938 L 419.589844 359.691406 L 416.042969 359.691406 L 416.042969 346.699219 L 419.121094 346.699219 L 429.730469 355.59375 L 429.730469 346.699219 L 433.316406 346.699219 Z M 433.316406 359.691406 "/>
<path style=" stroke:none;fill-rule:nonzero;fill:rgb(11.372549%,11.372549%,10.588235%);fill-opacity:1;" d="M 437.800781 346.699219 L 441.390625 346.699219 L 441.390625 359.691406 L 437.800781 359.691406 Z M 437.800781 346.699219 "/>
<path style=" stroke:none;fill-rule:nonzero;fill:rgb(11.372549%,11.372549%,10.588235%);fill-opacity:1;" d="M 458.351562 357.230469 L 449.5 357.230469 L 447.941406 359.691406 L 444.042969 359.691406 L 452.191406 346.699219 L 455.585938 346.699219 L 463.695312 359.691406 L 459.796875 359.691406 Z M 450.554688 355.164062 L 457.027344 355.164062 L 453.90625 350.171875 L 453.90625 349.820312 L 453.90625 350.171875 Z M 450.554688 355.164062 "/>
</g>
</svg>
