<svg xmlns="http://www.w3.org/2000/svg" viewBox="0 0 100 100" preserveAspectRatio="xMidYMid" width="198" height="198" style="shape-rendering: auto; display: block; background: transparent;" xmlns:xlink="http://www.w3.org/1999/xlink"><g><g transform="rotate(0 50 50)">
  <rect fill="#279b37" height="61" width="4" ry="14.64" rx="2" y="7.5" x="48">
    <animate repeatCount="indefinite" begin="-2.688172043010752s" dur="2.7777777777777772s" keyTimes="0;1" values="1;0" attributeName="opacity"></animate>
  </rect>
</g><g transform="rotate(11.612903225806452 50 50)">
  <rect fill="#279b37" height="61" width="4" ry="14.64" rx="2" y="7.5" x="48">
    <animate repeatCount="indefinite" begin="-2.5985663082437274s" dur="2.7777777777777772s" keyTimes="0;1" values="1;0" attributeName="opacity"></animate>
  </rect>
</g><g transform="rotate(23.225806451612904 50 50)">
  <rect fill="#279b37" height="61" width="4" ry="14.64" rx="2" y="7.5" x="48">
    <animate repeatCount="indefinite" begin="-2.508960573476702s" dur="2.7777777777777772s" keyTimes="0;1" values="1;0" attributeName="opacity"></animate>
  </rect>
</g><g transform="rotate(34.83870967741935 50 50)">
  <rect fill="#279b37" height="61" width="4" ry="14.64" rx="2" y="7.5" x="48">
    <animate repeatCount="indefinite" begin="-2.419354838709677s" dur="2.7777777777777772s" keyTimes="0;1" values="1;0" attributeName="opacity"></animate>
  </rect>
</g><g transform="rotate(46.45161290322581 50 50)">
  <rect fill="#279b37" height="61" width="4" ry="14.64" rx="2" y="7.5" x="48">
    <animate repeatCount="indefinite" begin="-2.329749103942652s" dur="2.7777777777777772s" keyTimes="0;1" values="1;0" attributeName="opacity"></animate>
  </rect>
</g><g transform="rotate(58.064516129032256 50 50)">
  <rect fill="#279b37" height="61" width="4" ry="14.64" rx="2" y="7.5" x="48">
    <animate repeatCount="indefinite" begin="-2.2401433691756267s" dur="2.7777777777777772s" keyTimes="0;1" values="1;0" attributeName="opacity"></animate>
  </rect>
</g><g transform="rotate(69.6774193548387 50 50)">
  <rect fill="#279b37" height="61" width="4" ry="14.64" rx="2" y="7.5" x="48">
    <animate repeatCount="indefinite" begin="-2.1505376344086016s" dur="2.7777777777777772s" keyTimes="0;1" values="1;0" attributeName="opacity"></animate>
  </rect>
</g><g transform="rotate(81.29032258064517 50 50)">
  <rect fill="#279b37" height="61" width="4" ry="14.64" rx="2" y="7.5" x="48">
    <animate repeatCount="indefinite" begin="-2.060931899641577s" dur="2.7777777777777772s" keyTimes="0;1" values="1;0" attributeName="opacity"></animate>
  </rect>
</g><g transform="rotate(92.90322580645162 50 50)">
  <rect fill="#279b37" height="61" width="4" ry="14.64" rx="2" y="7.5" x="48">
    <animate repeatCount="indefinite" begin="-1.9713261648745517s" dur="2.7777777777777772s" keyTimes="0;1" values="1;0" attributeName="opacity"></animate>
  </rect>
</g><g transform="rotate(104.51612903225806 50 50)">
  <rect fill="#279b37" height="61" width="4" ry="14.64" rx="2" y="7.5" x="48">
    <animate repeatCount="indefinite" begin="-1.8817204301075265s" dur="2.7777777777777772s" keyTimes="0;1" values="1;0" attributeName="opacity"></animate>
  </rect>
</g><g transform="rotate(116.12903225806451 50 50)">
  <rect fill="#279b37" height="61" width="4" ry="14.64" rx="2" y="7.5" x="48">
    <animate repeatCount="indefinite" begin="-1.7921146953405014s" dur="2.7777777777777772s" keyTimes="0;1" values="1;0" attributeName="opacity"></animate>
  </rect>
</g><g transform="rotate(127.74193548387096 50 50)">
  <rect fill="#279b37" height="61" width="4" ry="14.64" rx="2" y="7.5" x="48">
    <animate repeatCount="indefinite" begin="-1.7025089605734764s" dur="2.7777777777777772s" keyTimes="0;1" values="1;0" attributeName="opacity"></animate>
  </rect>
</g><g transform="rotate(139.3548387096774 50 50)">
  <rect fill="#279b37" height="61" width="4" ry="14.64" rx="2" y="7.5" x="48">
    <animate repeatCount="indefinite" begin="-1.6129032258064513s" dur="2.7777777777777772s" keyTimes="0;1" values="1;0" attributeName="opacity"></animate>
  </rect>
</g><g transform="rotate(150.96774193548387 50 50)">
  <rect fill="#279b37" height="61" width="4" ry="14.64" rx="2" y="7.5" x="48">
    <animate repeatCount="indefinite" begin="-1.5232974910394264s" dur="2.7777777777777772s" keyTimes="0;1" values="1;0" attributeName="opacity"></animate>
  </rect>
</g><g transform="rotate(162.58064516129033 50 50)">
  <rect fill="#279b37" height="61" width="4" ry="14.64" rx="2" y="7.5" x="48">
    <animate repeatCount="indefinite" begin="-1.4336917562724012s" dur="2.7777777777777772s" keyTimes="0;1" values="1;0" attributeName="opacity"></animate>
  </rect>
</g><g transform="rotate(174.19354838709677 50 50)">
  <rect fill="#279b37" height="61" width="4" ry="14.64" rx="2" y="7.5" x="48">
    <animate repeatCount="indefinite" begin="-1.344086021505376s" dur="2.7777777777777772s" keyTimes="0;1" values="1;0" attributeName="opacity"></animate>
  </rect>
</g><g transform="rotate(185.80645161290323 50 50)">
  <rect fill="#279b37" height="61" width="4" ry="14.64" rx="2" y="7.5" x="48">
    <animate repeatCount="indefinite" begin="-1.254480286738351s" dur="2.7777777777777772s" keyTimes="0;1" values="1;0" attributeName="opacity"></animate>
  </rect>
</g><g transform="rotate(197.41935483870967 50 50)">
  <rect fill="#279b37" height="61" width="4" ry="14.64" rx="2" y="7.5" x="48">
    <animate repeatCount="indefinite" begin="-1.164874551971326s" dur="2.7777777777777772s" keyTimes="0;1" values="1;0" attributeName="opacity"></animate>
  </rect>
</g><g transform="rotate(209.03225806451613 50 50)">
  <rect fill="#279b37" height="61" width="4" ry="14.64" rx="2" y="7.5" x="48">
    <animate repeatCount="indefinite" begin="-1.0752688172043008s" dur="2.7777777777777772s" keyTimes="0;1" values="1;0" attributeName="opacity"></animate>
  </rect>
</g><g transform="rotate(220.6451612903226 50 50)">
  <rect fill="#279b37" height="61" width="4" ry="14.64" rx="2" y="7.5" x="48">
    <animate repeatCount="indefinite" begin="-0.9856630824372759s" dur="2.7777777777777772s" keyTimes="0;1" values="1;0" attributeName="opacity"></animate>
  </rect>
</g><g transform="rotate(232.25806451612902 50 50)">
  <rect fill="#279b37" height="61" width="4" ry="14.64" rx="2" y="7.5" x="48">
    <animate repeatCount="indefinite" begin="-0.8960573476702507s" dur="2.7777777777777772s" keyTimes="0;1" values="1;0" attributeName="opacity"></animate>
  </rect>
</g><g transform="rotate(243.8709677419355 50 50)">
  <rect fill="#279b37" height="61" width="4" ry="14.64" rx="2" y="7.5" x="48">
    <animate repeatCount="indefinite" begin="-0.8064516129032256s" dur="2.7777777777777772s" keyTimes="0;1" values="1;0" attributeName="opacity"></animate>
  </rect>
</g><g transform="rotate(255.48387096774192 50 50)">
  <rect fill="#279b37" height="61" width="4" ry="14.64" rx="2" y="7.5" x="48">
    <animate repeatCount="indefinite" begin="-0.7168458781362006s" dur="2.7777777777777772s" keyTimes="0;1" values="1;0" attributeName="opacity"></animate>
  </rect>
</g><g transform="rotate(267.0967741935484 50 50)">
  <rect fill="#279b37" height="61" width="4" ry="14.64" rx="2" y="7.5" x="48">
    <animate repeatCount="indefinite" begin="-0.6272401433691756s" dur="2.7777777777777772s" keyTimes="0;1" values="1;0" attributeName="opacity"></animate>
  </rect>
</g><g transform="rotate(278.7096774193548 50 50)">
  <rect fill="#279b37" height="61" width="4" ry="14.64" rx="2" y="7.5" x="48">
    <animate repeatCount="indefinite" begin="-0.5376344086021504s" dur="2.7777777777777772s" keyTimes="0;1" values="1;0" attributeName="opacity"></animate>
  </rect>
</g><g transform="rotate(290.3225806451613 50 50)">
  <rect fill="#279b37" height="61" width="4" ry="14.64" rx="2" y="7.5" x="48">
    <animate repeatCount="indefinite" begin="-0.44802867383512535s" dur="2.7777777777777772s" keyTimes="0;1" values="1;0" attributeName="opacity"></animate>
  </rect>
</g><g transform="rotate(301.93548387096774 50 50)">
  <rect fill="#279b37" height="61" width="4" ry="14.64" rx="2" y="7.5" x="48">
    <animate repeatCount="indefinite" begin="-0.3584229390681003s" dur="2.7777777777777772s" keyTimes="0;1" values="1;0" attributeName="opacity"></animate>
  </rect>
</g><g transform="rotate(313.5483870967742 50 50)">
  <rect fill="#279b37" height="61" width="4" ry="14.64" rx="2" y="7.5" x="48">
    <animate repeatCount="indefinite" begin="-0.2688172043010752s" dur="2.7777777777777772s" keyTimes="0;1" values="1;0" attributeName="opacity"></animate>
  </rect>
</g><g transform="rotate(325.16129032258067 50 50)">
  <rect fill="#279b37" height="61" width="4" ry="14.64" rx="2" y="7.5" x="48">
    <animate repeatCount="indefinite" begin="-0.17921146953405015s" dur="2.7777777777777772s" keyTimes="0;1" values="1;0" attributeName="opacity"></animate>
  </rect>
</g><g transform="rotate(336.7741935483871 50 50)">
  <rect fill="#279b37" height="61" width="4" ry="14.64" rx="2" y="7.5" x="48">
    <animate repeatCount="indefinite" begin="-0.08960573476702507s" dur="2.7777777777777772s" keyTimes="0;1" values="1;0" attributeName="opacity"></animate>
  </rect>
</g><g transform="rotate(348.38709677419354 50 50)">
  <rect fill="#279b37" height="61" width="4" ry="14.64" rx="2" y="7.5" x="48">
    <animate repeatCount="indefinite" begin="0s" dur="2.7777777777777772s" keyTimes="0;1" values="1;0" attributeName="opacity"></animate>
  </rect>
</g><g></g></g><!-- [ldio] generated by https://loading.io --></svg>