<svg xmlns="http://www.w3.org/2000/svg" viewBox="0 0 150 228.6"><defs><style>.cls-1{fill:#3d3d3d;}.cls-2{fill:#0f4c81;}.cls-3{fill:#fff;}</style></defs><g id="Layer_1" data-name="Layer 1"><path class="cls-1" d="M231.78,308.64l4.08-35.42h5.76l8.59,28.36,8.55-28.36h5.76l4.17,35.42h-5.76l-3.26-27.84,1,.1L253,308.64h-5.57l-7.77-27.74,1,0-3.12,27.79Z" transform="translate(-222.64 -97.76)"/><path class="cls-1" d="M274.31,308.64V273.22H289a12.27,12.27,0,0,1,5.78,1.22,9.27,9.27,0,0,1,3.72,3.55,16.91,16.91,0,0,1,2,5.59,40.93,40.93,0,0,1,.6,7.35,30.33,30.33,0,0,1-1.35,9.77,12,12,0,0,1-4,5.92,10.84,10.84,0,0,1-6.72,2Zm5.9-5.33h8.16a5.35,5.35,0,0,0,3.92-1.44,8.9,8.9,0,0,0,2.16-4.22,28.35,28.35,0,0,0,.69-6.72,34.94,34.94,0,0,0-.43-6.05,11.58,11.58,0,0,0-1.25-3.79,4.59,4.59,0,0,0-2.09-2,7.23,7.23,0,0,0-3-.58h-8.16Z" transform="translate(-222.64 -97.76)"/><path class="cls-1" d="M306.76,308.64V273.22h13.53c3.33,0,5.79.78,7.4,2.35s2.39,3.85,2.39,6.86a9.93,9.93,0,0,1-.64,3.72,7.39,7.39,0,0,1-1.75,2.64,6,6,0,0,1-2.6,1.42,9.25,9.25,0,0,1,2.19.89,7.45,7.45,0,0,1,2,1.65,7.81,7.81,0,0,1,1.44,2.57,10.75,10.75,0,0,1,.53,3.53,11.57,11.57,0,0,1-1.23,5.78,7,7,0,0,1-3.55,3.08,15.07,15.07,0,0,1-5.59.93Zm5.9-20.45h7.73a3.59,3.59,0,0,0,2.88-1.32,5.47,5.47,0,0,0,1.15-3.48c0-1.82-.36-3.09-1.17-3.79a4.47,4.47,0,0,0-3-1.06h-7.59Zm0,15.12h8a5.85,5.85,0,0,0,2.59-.53,3.64,3.64,0,0,0,1.7-1.7,7.2,7.2,0,0,0,.6-3.24,5.47,5.47,0,0,0-.62-2.74,4.35,4.35,0,0,0-1.73-1.7,5.24,5.24,0,0,0-2.54-.6h-8Z" transform="translate(-222.64 -97.76)"/><path class="cls-1" d="M334.26,308.64l11.52-35.42h7.49l11.52,35.42H358.6l-2.74-8.4H343l-2.68,8.4Zm10.18-13.73h10l-5-16.61Z" transform="translate(-222.64 -97.76)"/><path class="cls-1" d="M231.48,319.73l2.41,5.78,2.42-5.78h.74v6.54h-.55v-2.84l0-2.92-2.43,5.76h-.43l-2.43-5.74.05,2.88v2.86h-.55v-6.54Z" transform="translate(-222.64 -97.76)"/><path class="cls-1" d="M238.29,323.77a2.84,2.84,0,0,1,.27-1.26,2,2,0,0,1,.77-.87,2,2,0,0,1,1.12-.32A2,2,0,0,1,242,322a2.65,2.65,0,0,1,.6,1.81v.11a2.92,2.92,0,0,1-.27,1.27,2,2,0,0,1-.76.87,2.15,2.15,0,0,1-1.13.3,2,2,0,0,1-1.57-.68,2.61,2.61,0,0,1-.6-1.8Zm.53.15a2.15,2.15,0,0,0,.46,1.43,1.52,1.52,0,0,0,2.36,0,2.26,2.26,0,0,0,.45-1.47v-.11a2.45,2.45,0,0,0-.21-1,1.58,1.58,0,0,0-.58-.71,1.45,1.45,0,0,0-.85-.26,1.42,1.42,0,0,0-1.17.57,2.27,2.27,0,0,0-.46,1.47Z" transform="translate(-222.64 -97.76)"/><path class="cls-1" d="M243.52,323.8a2.94,2.94,0,0,1,.5-1.8,1.64,1.64,0,0,1,1.38-.68,1.7,1.7,0,0,1,1.5.78v-2.73h.53v6.9h-.5l0-.64a1.74,1.74,0,0,1-1.52.73,1.64,1.64,0,0,1-1.36-.67,3,3,0,0,1-.51-1.83Zm.54.09a2.54,2.54,0,0,0,.38,1.47,1.18,1.18,0,0,0,1.05.54,1.44,1.44,0,0,0,1.41-.88v-2.28a1.44,1.44,0,0,0-1.4-.95,1.23,1.23,0,0,0-1.06.53A2.73,2.73,0,0,0,244.06,323.89Z" transform="translate(-222.64 -97.76)"/><path class="cls-1" d="M252,325.66a1.74,1.74,0,0,1-1.55.7,1.5,1.5,0,0,1-1.18-.45,1.92,1.92,0,0,1-.41-1.33v-3.17h.53v3.1c0,.92.38,1.39,1.13,1.39a1.37,1.37,0,0,0,1.47-1v-3.52h.54v4.86H252Z" transform="translate(-222.64 -97.76)"/><path class="cls-1" d="M256.81,325a.76.76,0,0,0-.32-.64,2.47,2.47,0,0,0-1-.38,4.2,4.2,0,0,1-1-.32,1.3,1.3,0,0,1-.53-.43,1.05,1.05,0,0,1-.18-.62,1.14,1.14,0,0,1,.49-.95,1.94,1.94,0,0,1,1.23-.38,2,2,0,0,1,1.3.41,1.26,1.26,0,0,1,.49,1h-.54a.84.84,0,0,0-.35-.71,1.6,1.6,0,0,0-1.76-.05.72.72,0,0,0-.32.61.68.68,0,0,0,.27.57,2.88,2.88,0,0,0,1,.36,4.42,4.42,0,0,1,1.06.36,1.29,1.29,0,0,1,.52.45,1.25,1.25,0,0,1-.33,1.63,2.51,2.51,0,0,1-2.67-.05,1.27,1.27,0,0,1-.53-1h.54a1,1,0,0,0,.4.74,1.66,1.66,0,0,0,1,.26,1.48,1.48,0,0,0,.9-.25A.71.71,0,0,0,256.81,325Z" transform="translate(-222.64 -97.76)"/><path class="cls-1" d="M259.39,320.17v1.24h1v.44h-1v3.25a1,1,0,0,0,.15.6.58.58,0,0,0,.49.2,3.52,3.52,0,0,0,.43,0l0,.44a1.83,1.83,0,0,1-.58.07.92.92,0,0,1-.8-.32,1.48,1.48,0,0,1-.26-.94v-3.25H258v-.44h.89v-1.24Z" transform="translate(-222.64 -97.76)"/><path class="cls-1" d="M263.88,326.27v-6.54h1.83a2.91,2.91,0,0,1,1.44.37,2.51,2.51,0,0,1,1,1,3.25,3.25,0,0,1,.36,1.55v.6a3.38,3.38,0,0,1-.35,1.56,2.6,2.6,0,0,1-1,1.05,3,3,0,0,1-1.48.36Zm.55-6.07v5.61h1.24a2.14,2.14,0,0,0,1.66-.69,2.67,2.67,0,0,0,.62-1.85v-.58a2.61,2.61,0,0,0-.61-1.81,2.1,2.1,0,0,0-1.63-.68Z" transform="translate(-222.64 -97.76)"/><path class="cls-1" d="M272.84,326.27a2.89,2.89,0,0,1-.1-.67,1.9,1.9,0,0,1-.72.56,2.1,2.1,0,0,1-.93.2A1.62,1.62,0,0,1,270,326a1.27,1.27,0,0,1-.44-1,1.32,1.32,0,0,1,.59-1.13,2.92,2.92,0,0,1,1.65-.41h1v-.55a1,1,0,0,0-.33-.82,1.3,1.3,0,0,0-.93-.3,1.4,1.4,0,0,0-.93.29.84.84,0,0,0-.37.69h-.54a1.25,1.25,0,0,1,.54-1,2.09,2.09,0,0,1,1.32-.43,1.92,1.92,0,0,1,1.29.41,1.47,1.47,0,0,1,.48,1.14v2.3a2.81,2.81,0,0,0,.15,1.05v0Zm-1.69-.38a1.88,1.88,0,0,0,1-.26,1.61,1.61,0,0,0,.62-.7v-1.07h-1a2.43,2.43,0,0,0-1.25.3.87.87,0,0,0-.46.78.86.86,0,0,0,.31.68A1.12,1.12,0,0,0,271.15,325.89Z" transform="translate(-222.64 -97.76)"/><path class="cls-1" d="M275.54,320.17v1.24h1v.44h-1v3.25a1.06,1.06,0,0,0,.14.6.58.58,0,0,0,.49.2,3.63,3.63,0,0,0,.44,0l0,.44a1.76,1.76,0,0,1-.57.07,1,1,0,0,1-.81-.32,1.48,1.48,0,0,1-.25-.94v-3.25h-.89v-.44H275v-1.24Z" transform="translate(-222.64 -97.76)"/><path class="cls-1" d="M280.73,326.27a2.36,2.36,0,0,1-.11-.67,1.76,1.76,0,0,1-.72.56,2.09,2.09,0,0,1-.92.2,1.64,1.64,0,0,1-1.14-.39,1.26,1.26,0,0,1-.43-1,1.3,1.3,0,0,1,.59-1.13,2.87,2.87,0,0,1,1.65-.41h1v-.55a1.08,1.08,0,0,0-.32-.82,1.34,1.34,0,0,0-.94-.3,1.44,1.44,0,0,0-.93.29.87.87,0,0,0-.37.69h-.54a1.25,1.25,0,0,1,.54-1,2.1,2.1,0,0,1,1.33-.43,1.89,1.89,0,0,1,1.28.41,1.44,1.44,0,0,1,.48,1.14v2.3a2.81,2.81,0,0,0,.15,1.05v0Zm-1.69-.38a1.82,1.82,0,0,0,1-.26,1.55,1.55,0,0,0,.62-.7v-1.07h-1a2.44,2.44,0,0,0-1.26.3.91.91,0,0,0-.15,1.46A1.13,1.13,0,0,0,279,325.89Z" transform="translate(-222.64 -97.76)"/><path class="cls-1" d="M285,326.27v-6.54h1.93a2.54,2.54,0,0,1,1.6.44,1.54,1.54,0,0,1,.54,1.28,1.4,1.4,0,0,1-.28.88,1.49,1.49,0,0,1-.75.54,1.58,1.58,0,0,1,.92.56,1.55,1.55,0,0,1,.34,1,1.7,1.7,0,0,1-.56,1.36,2.3,2.3,0,0,1-1.55.48Zm.55-3.6H287a1.69,1.69,0,0,0,1.07-.33,1.29,1.29,0,0,0,0-1.84,2,2,0,0,0-1.19-.3H285.5Zm0,.46v2.68h1.66a1.68,1.68,0,0,0,1.13-.36,1.29,1.29,0,0,0,.41-1,1.18,1.18,0,0,0-.4-.95,1.56,1.56,0,0,0-1.09-.36Z" transform="translate(-222.64 -97.76)"/><path class="cls-1" d="M293.53,326.27a2.43,2.43,0,0,1-.1-.67,1.9,1.9,0,0,1-.72.56,2.16,2.16,0,0,1-.93.2,1.64,1.64,0,0,1-1.14-.39,1.26,1.26,0,0,1-.43-1,1.32,1.32,0,0,1,.59-1.13,2.87,2.87,0,0,1,1.65-.41h1v-.55a1,1,0,0,0-.32-.82,1.33,1.33,0,0,0-.94-.3,1.44,1.44,0,0,0-.93.29.85.85,0,0,0-.36.69h-.54a1.25,1.25,0,0,1,.54-1,2.09,2.09,0,0,1,1.32-.43,1.89,1.89,0,0,1,1.28.41,1.45,1.45,0,0,1,.49,1.14v2.3a3.08,3.08,0,0,0,.14,1.05v0Zm-1.69-.38a1.82,1.82,0,0,0,1-.26,1.55,1.55,0,0,0,.62-.7v-1.07h-1a2.47,2.47,0,0,0-1.26.3.91.91,0,0,0-.15,1.46A1.15,1.15,0,0,0,291.84,325.89Z" transform="translate(-222.64 -97.76)"/><path class="cls-1" d="M295.9,321.41l0,.84a2,2,0,0,1,.68-.69,1.79,1.79,0,0,1,.91-.24,1.47,1.47,0,0,1,1.16.44,2,2,0,0,1,.38,1.32v3.19h-.53v-3.19a1.42,1.42,0,0,0-.28-1,1.08,1.08,0,0,0-.86-.32,1.42,1.42,0,0,0-.89.31,1.94,1.94,0,0,0-.57.85v3.32h-.53v-4.86Z" transform="translate(-222.64 -97.76)"/><path class="cls-1" d="M301.6,323.83l-.62.59v1.85h-.54v-6.9H301v4.42l.51-.55,1.86-1.83H304l-2.06,2,2.24,2.81h-.64Z" transform="translate(-222.64 -97.76)"/><path class="cls-1" d="M310.84,324.44h-3l-.67,1.83h-.58l2.47-6.54h.53l2.48,6.54h-.58ZM308,324h2.63l-1.31-3.56Z" transform="translate(-222.64 -97.76)"/><path class="cls-1" d="M312.72,323.8a2.87,2.87,0,0,1,.5-1.8,1.64,1.64,0,0,1,1.37-.68,1.68,1.68,0,0,1,1.5.78v-2.73h.54v6.9h-.5l0-.64a1.73,1.73,0,0,1-1.52.73,1.62,1.62,0,0,1-1.35-.67,3,3,0,0,1-.51-1.83Zm.54.09a2.54,2.54,0,0,0,.37,1.47,1.21,1.21,0,0,0,1.05.54,1.43,1.43,0,0,0,1.41-.88v-2.28a1.43,1.43,0,0,0-1.4-.95,1.22,1.22,0,0,0-1.05.53A2.73,2.73,0,0,0,313.26,323.89Z" transform="translate(-222.64 -97.76)"/><path class="cls-1" d="M318.53,321.41l0,.79a1.76,1.76,0,0,1,1.57-.88,1.36,1.36,0,0,1,1.46.95,1.81,1.81,0,0,1,.7-.7,2,2,0,0,1,1-.25c1,0,1.57.57,1.6,1.71v3.24h-.54v-3.2a1.5,1.5,0,0,0-.28-1,1.16,1.16,0,0,0-.9-.32,1.41,1.41,0,0,0-1,.38,1.31,1.31,0,0,0-.45.89v3.21h-.54V323a1.33,1.33,0,0,0-.29-.93,1.15,1.15,0,0,0-.89-.31,1.41,1.41,0,0,0-.88.29,1.65,1.65,0,0,0-.53.86v3.33H318v-4.86Z" transform="translate(-222.64 -97.76)"/><path class="cls-1" d="M326.17,320a.39.39,0,0,1,.09-.26.36.36,0,0,1,.27-.1.37.37,0,0,1,.28.1.4.4,0,0,1,.1.26.36.36,0,0,1-.1.25.38.38,0,0,1-.28.11.37.37,0,0,1-.27-.11A.35.35,0,0,1,326.17,320Zm.63,6.26h-.54v-4.86h.54Z" transform="translate(-222.64 -97.76)"/><path class="cls-1" d="M328.77,321.41l0,.84a2,2,0,0,1,.68-.69,1.79,1.79,0,0,1,.91-.24,1.47,1.47,0,0,1,1.16.44,2,2,0,0,1,.38,1.32v3.19h-.53v-3.19a1.48,1.48,0,0,0-.28-1,1.08,1.08,0,0,0-.86-.32,1.42,1.42,0,0,0-.89.31,1.94,1.94,0,0,0-.57.85v3.32h-.53v-4.86Z" transform="translate(-222.64 -97.76)"/><path class="cls-1" d="M333.28,320a.35.35,0,0,1,.1-.26.41.41,0,0,1,.54,0,.35.35,0,0,1,.1.26.32.32,0,0,1-.1.25.39.39,0,0,1-.54,0A.32.32,0,0,1,333.28,320Zm.64,6.26h-.54v-4.86h.54Z" transform="translate(-222.64 -97.76)"/><path class="cls-1" d="M338.29,325a.75.75,0,0,0-.33-.64,2.42,2.42,0,0,0-1-.38,4.3,4.3,0,0,1-1-.32,1.37,1.37,0,0,1-.53-.43,1.13,1.13,0,0,1-.17-.62,1.16,1.16,0,0,1,.48-.95,1.94,1.94,0,0,1,1.23-.38,2,2,0,0,1,1.31.41,1.29,1.29,0,0,1,.49,1h-.54a.85.85,0,0,0-.36-.71,1.41,1.41,0,0,0-.9-.29,1.38,1.38,0,0,0-.85.24.72.72,0,0,0-.32.61.68.68,0,0,0,.27.57,2.81,2.81,0,0,0,1,.36,4.27,4.27,0,0,1,1.06.36,1.23,1.23,0,0,1,.52.45,1.11,1.11,0,0,1,.17.64,1.18,1.18,0,0,1-.49,1,2.15,2.15,0,0,1-1.3.36,2.13,2.13,0,0,1-1.37-.41,1.24,1.24,0,0,1-.53-1h.54a1,1,0,0,0,.39.74,1.68,1.68,0,0,0,1,.26,1.49,1.49,0,0,0,.91-.25A.74.74,0,0,0,338.29,325Z" transform="translate(-222.64 -97.76)"/><path class="cls-1" d="M340.87,320.17v1.24h1v.44h-1v3.25a1.06,1.06,0,0,0,.14.6.58.58,0,0,0,.49.2,3.63,3.63,0,0,0,.44,0l0,.44a1.79,1.79,0,0,1-.58.07,1,1,0,0,1-.8-.32,1.48,1.48,0,0,1-.25-.94v-3.25h-.89v-.44h.89v-1.24Z" transform="translate(-222.64 -97.76)"/><path class="cls-1" d="M345.24,321.87a2.22,2.22,0,0,0-.37,0,1.3,1.3,0,0,0-.85.28,1.57,1.57,0,0,0-.5.82v3.33H343v-4.86h.52v.78a1.43,1.43,0,0,1,1.37-.87.9.9,0,0,1,.36.06Z" transform="translate(-222.64 -97.76)"/><path class="cls-1" d="M349,326.27a2.43,2.43,0,0,1-.1-.67,1.9,1.9,0,0,1-.72.56,2.1,2.1,0,0,1-.93.2,1.62,1.62,0,0,1-1.13-.39,1.27,1.27,0,0,1-.44-1,1.32,1.32,0,0,1,.59-1.13,2.92,2.92,0,0,1,1.65-.41h1v-.55a1,1,0,0,0-.33-.82,1.3,1.3,0,0,0-.93-.3,1.4,1.4,0,0,0-.93.29.84.84,0,0,0-.37.69h-.54a1.25,1.25,0,0,1,.54-1,2.09,2.09,0,0,1,1.32-.43,1.92,1.92,0,0,1,1.29.41,1.47,1.47,0,0,1,.48,1.14v2.3a2.81,2.81,0,0,0,.15,1.05v0Zm-1.69-.38a1.88,1.88,0,0,0,1-.26,1.61,1.61,0,0,0,.62-.7v-1.07h-1a2.43,2.43,0,0,0-1.25.3.87.87,0,0,0-.46.78.86.86,0,0,0,.31.68A1.12,1.12,0,0,0,347.28,325.89Z" transform="translate(-222.64 -97.76)"/><path class="cls-1" d="M351.67,320.17v1.24h1v.44h-1v3.25a1.06,1.06,0,0,0,.14.6.58.58,0,0,0,.49.2,3.63,3.63,0,0,0,.44,0l0,.44a1.79,1.79,0,0,1-.58.07,1,1,0,0,1-.8-.32,1.48,1.48,0,0,1-.25-.94v-3.25h-.89v-.44h.89v-1.24Z" transform="translate(-222.64 -97.76)"/><path class="cls-1" d="M353.76,320a.35.35,0,0,1,.1-.26.33.33,0,0,1,.27-.1.36.36,0,0,1,.27.1.4.4,0,0,1,.1.26.36.36,0,0,1-.1.25.37.37,0,0,1-.27.11.34.34,0,0,1-.27-.11A.32.32,0,0,1,353.76,320Zm.63,6.26h-.54v-4.86h.54Z" transform="translate(-222.64 -97.76)"/><path class="cls-1" d="M355.55,323.77a2.72,2.72,0,0,1,.28-1.26,2,2,0,0,1,.76-.87,2.07,2.07,0,0,1,1.13-.32,2,2,0,0,1,1.57.68,2.65,2.65,0,0,1,.6,1.81v.11a2.92,2.92,0,0,1-.27,1.27,2,2,0,0,1-.76.87,2.15,2.15,0,0,1-1.13.3,2,2,0,0,1-1.57-.68,2.57,2.57,0,0,1-.61-1.8Zm.54.15a2.2,2.2,0,0,0,.45,1.43,1.53,1.53,0,0,0,2.37,0,2.26,2.26,0,0,0,.45-1.47v-.11a2.45,2.45,0,0,0-.21-1,1.64,1.64,0,0,0-.58-.71,1.47,1.47,0,0,0-.85-.26,1.42,1.42,0,0,0-1.17.57,2.21,2.21,0,0,0-.46,1.47Z" transform="translate(-222.64 -97.76)"/><path class="cls-1" d="M361.51,321.41l0,.84a1.9,1.9,0,0,1,.69-.69,1.73,1.73,0,0,1,.9-.24,1.46,1.46,0,0,1,1.16.44,2,2,0,0,1,.39,1.32v3.19h-.54v-3.19a1.48,1.48,0,0,0-.27-1,1.09,1.09,0,0,0-.87-.32,1.39,1.39,0,0,0-.88.31,1.78,1.78,0,0,0-.57.85v3.32H361v-4.86Z" transform="translate(-222.64 -97.76)"/><path id="Ellipse_1" data-name="Ellipse 1" class="cls-2" d="M297.64,97.76a75,75,0,1,1-75,75h0a75,75,0,0,1,75-75" transform="translate(-222.64 -97.76)"/><path class="cls-3" d="M323.47,158.18a26.36,26.36,0,0,0-45.5-8,8.79,8.79,0,0,0-12.17,11.42A17.58,17.58,0,0,0,259,175.5h0a17.64,17.64,0,0,0,14,17.22l0-5.9a2,2,0,0,1,0-.26l0-14.13c.34-3,5-5.23,10.79-5.23a18.45,18.45,0,0,1,6.3,1,27.14,27.14,0,0,1,14.74,0,18.43,18.43,0,0,1,6.29-1c5.84,0,10.45,2.27,10.79,5.23l0,14.13a2,2,0,0,1,0,.26l0,6.2a17.64,17.64,0,0,0,16.21-17.52h0A17.65,17.65,0,0,0,323.47,158.18Z" transform="translate(-222.64 -97.76)"/><path class="cls-3" d="M309.73,179.52v3.92c0,3.21-5.63,5.93-12.29,5.93s-12.29-2.72-12.29-5.93v-3.92c1.86,2.56,6.59,4.34,12.29,4.34S307.87,182.08,309.73,179.52Z" transform="translate(-222.64 -97.76)"/><path class="cls-3" d="M309.73,175.37c0,3.4-5.5,6.15-12.29,6.15s-12.29-2.75-12.29-6.15,5.5-6.14,12.29-6.14S309.73,172,309.73,175.37Z" transform="translate(-222.64 -97.76)"/><path class="cls-3" d="M309.73,187.43v3.92c0,3.21-5.63,5.93-12.29,5.93s-12.29-2.72-12.29-5.93v-3.92c1.86,2.56,6.59,4.34,12.29,4.34S307.87,190,309.73,187.43Z" transform="translate(-222.64 -97.76)"/><path class="cls-3" d="M309.73,195.34v3.92c0,3.21-5.63,5.93-12.29,5.93s-12.29-2.72-12.29-5.93v-3.92c1.86,2.56,6.59,4.34,12.29,4.34S307.87,197.9,309.73,195.34Z" transform="translate(-222.64 -97.76)"/><path class="cls-3" d="M310,169a19.07,19.07,0,0,0-2.43.16c2.73,1.39,4.49,3.3,4.74,5.45l0,4.09c4.33-.51,7.55-2.46,7.55-4.78C319.83,171.25,315.42,169,310,169Z" transform="translate(-222.64 -97.76)"/><path class="cls-3" d="M312.28,180.63V185c4.27-.51,7.56-2.41,7.56-4.61v-3.13C318.59,179,315.79,180.24,312.28,180.63Z" transform="translate(-222.64 -97.76)"/><path class="cls-3" d="M312.26,187v4.4c4.28-.5,7.58-2.41,7.58-4.61V183.6C318.59,185.3,315.78,186.57,312.26,187Z" transform="translate(-222.64 -97.76)"/><path class="cls-3" d="M312.24,193.28v4.4c4.29-.5,7.6-2.41,7.6-4.61v-3.14C318.59,191.63,315.77,192.9,312.24,193.28Z" transform="translate(-222.64 -97.76)"/><path class="cls-3" d="M282.45,174.65c.25-2.17,2-4.09,4.82-5.49a17.79,17.79,0,0,0-2.09-.12c-5.43,0-9.83,2.21-9.83,4.92,0,2.24,3,4.13,7.11,4.72Z" transform="translate(-222.64 -97.76)"/><path class="cls-3" d="M282.46,180.57c-3.3-.44-5.93-1.67-7.11-3.29v3.13c0,2.13,3.06,4,7.13,4.56Z" transform="translate(-222.64 -97.76)"/><path class="cls-3" d="M282.48,186.9c-3.31-.44-6-1.67-7.13-3.3v3.14c0,2.13,3.07,4,7.15,4.56Z" transform="translate(-222.64 -97.76)"/><path class="cls-3" d="M282.5,193.23c-3.32-.43-6-1.67-7.15-3.3v3.14c0,2.13,3.08,4,7.16,4.56Z" transform="translate(-222.64 -97.76)"/></g><g id="Layer_2" data-name="Layer 2"><path id="Ellipse_1-2" data-name="Ellipse 1" class="cls-2" d="M297.64,97.76a75,75,0,1,1-75,75h0a75,75,0,0,1,75-75" transform="translate(-222.64 -97.76)"/><path class="cls-3" d="M331.67,173.76v6c0,4.89-8.55,9-18.67,9s-18.68-4.13-18.68-9v-6c2.83,3.89,10,6.6,18.68,6.6S328.85,177.65,331.67,173.76Z" transform="translate(-222.64 -97.76)"/><path class="cls-3" d="M331.67,167.45c0,5.16-8.36,9.34-18.67,9.34s-18.68-4.18-18.68-9.34,8.36-9.33,18.68-9.33S331.67,162.3,331.67,167.45Z" transform="translate(-222.64 -97.76)"/><path class="cls-3" d="M331.67,185.77v6c0,4.89-8.55,9-18.67,9s-18.68-4.13-18.68-9v-6c2.83,3.9,10,6.6,18.68,6.6S328.85,189.67,331.67,185.77Z" transform="translate(-222.64 -97.76)"/><path class="cls-3" d="M331.67,197.79v6c0,4.88-8.55,9-18.67,9s-18.68-4.13-18.68-9v-6c2.83,3.9,10,6.6,18.68,6.6S328.85,201.69,331.67,197.79Z" transform="translate(-222.64 -97.76)"/><path class="cls-3" d="M312.77,145.87V136a3.27,3.27,0,0,0-3.28-3.28H266.88A3.28,3.28,0,0,0,263.6,136v9.83a3.28,3.28,0,0,0,3.28,3.28,3.28,3.28,0,0,0-3.28,3.28v9.84a3.28,3.28,0,0,0,3.28,3.27,3.28,3.28,0,0,0-3.28,3.28v9.84a3.28,3.28,0,0,0,3.28,3.28,3.28,3.28,0,0,0-3.28,3.28v9.83a3.28,3.28,0,0,0,3.28,3.28h24.54l-.1-32.55c.67-5.87,9.83-10.37,21.41-10.37h0v-3a3.28,3.28,0,0,0-3.28-3.28A3.28,3.28,0,0,0,312.77,145.87ZM273.18,193a2.87,2.87,0,1,1,2.86-2.86A2.87,2.87,0,0,1,273.18,193Zm0-16.39a2.87,2.87,0,1,1,2.86-2.87A2.87,2.87,0,0,1,273.18,176.61Zm0-16.39a2.87,2.87,0,1,1,2.86-2.87A2.88,2.88,0,0,1,273.18,160.22Zm0-16.4A2.87,2.87,0,1,1,276,141,2.87,2.87,0,0,1,273.18,143.82Zm17.51-4.55a1.16,1.16,0,1,1,1.16-1.16A1.16,1.16,0,0,1,290.69,139.27Zm2.61,5.23a1.17,1.17,0,1,1,1.16-1.17A1.16,1.16,0,0,1,293.3,144.5Zm2.61-5.23a1.16,1.16,0,1,1,1.17-1.16A1.16,1.16,0,0,1,295.91,139.27Zm2.62,5.23a1.17,1.17,0,1,1,1.16-1.17A1.16,1.16,0,0,1,298.53,144.5Zm2.61-5.23a1.16,1.16,0,1,1,1.16-1.16A1.16,1.16,0,0,1,301.14,139.27Zm2.61,5.23a1.17,1.17,0,1,1,1.16-1.17A1.16,1.16,0,0,1,303.75,144.5Zm2.62-5.23a1.16,1.16,0,1,1,1.16-1.16A1.16,1.16,0,0,1,306.37,139.27Z" transform="translate(-222.64 -97.76)"/></g></svg>