<svg id="Layer_2" data-name="Layer 2" xmlns="http://www.w3.org/2000/svg" viewBox="0 0 373.8 150"><defs><style>.cls-1{fill:#3d3d3d;}.cls-2{fill:#0f4c81;}.cls-3{fill:#fff;}</style></defs><path class="cls-1" d="M283.9,235.93l3.62,8.66,3.63-8.66h1.1v9.81h-.83v-4.27l.07-4.38-3.65,8.65h-.64l-3.64-8.62.07,4.32v4.3h-.83v-9.81Z" transform="translate(-109.88 -134.76)"/><path class="cls-1" d="M294.11,242a4.31,4.31,0,0,1,.4-1.9,3.09,3.09,0,0,1,2.84-1.78,3,3,0,0,1,2.36,1,4,4,0,0,1,.9,2.71v.17a4.34,4.34,0,0,1-.4,1.9,3.13,3.13,0,0,1-1.15,1.31,3.21,3.21,0,0,1-1.69.45,3,3,0,0,1-2.36-1,3.93,3.93,0,0,1-.9-2.7Zm.8.22a3.3,3.3,0,0,0,.68,2.14,2.3,2.3,0,0,0,3.55,0,3.41,3.41,0,0,0,.67-2.21V242a3.64,3.64,0,0,0-.31-1.53,2.35,2.35,0,0,0-.87-1.08,2.24,2.24,0,0,0-1.28-.38,2.15,2.15,0,0,0-1.76.85,3.43,3.43,0,0,0-.68,2.21Z" transform="translate(-109.88 -134.76)"/><path class="cls-1" d="M302,242a4.43,4.43,0,0,1,.76-2.71,2.45,2.45,0,0,1,2.06-1,2.52,2.52,0,0,1,2.25,1.17v-4.09h.8v10.35h-.75l0-1a2.63,2.63,0,0,1-2.28,1.1,2.41,2.41,0,0,1-2-1,4.39,4.39,0,0,1-.78-2.74Zm.82.14a3.83,3.83,0,0,0,.56,2.2,1.82,1.82,0,0,0,1.58.8,2.17,2.17,0,0,0,2.11-1.31v-3.42a2.16,2.16,0,0,0-2.1-1.43,1.82,1.82,0,0,0-1.58.8A4,4,0,0,0,302.77,242.17Z" transform="translate(-109.88 -134.76)"/><path class="cls-1" d="M314.64,244.82a2.64,2.64,0,0,1-2.33,1.05,2.24,2.24,0,0,1-1.77-.67,3,3,0,0,1-.62-2v-4.74h.8v4.64c0,1.39.56,2.08,1.69,2.08a2.06,2.06,0,0,0,2.21-1.45v-5.27h.81v7.29h-.78Z" transform="translate(-109.88 -134.76)"/><path class="cls-1" d="M321.89,243.88a1.15,1.15,0,0,0-.48-1,3.76,3.76,0,0,0-1.45-.57,6.62,6.62,0,0,1-1.51-.47,2,2,0,0,1-.79-.65,1.66,1.66,0,0,1-.26-.93,1.73,1.73,0,0,1,.72-1.42,2.9,2.9,0,0,1,1.85-.57,2.94,2.94,0,0,1,1.95.61,1.9,1.9,0,0,1,.74,1.57h-.81a1.31,1.31,0,0,0-.53-1.07A2.13,2.13,0,0,0,320,239a2.16,2.16,0,0,0-1.28.35,1.11,1.11,0,0,0-.48.92,1,1,0,0,0,.4.85,4.3,4.3,0,0,0,1.46.55,6.46,6.46,0,0,1,1.59.53,2.15,2.15,0,0,1,.79.68,1.89,1.89,0,0,1-.49,2.44,3.19,3.19,0,0,1-1.95.55,3.26,3.26,0,0,1-2.06-.61,1.89,1.89,0,0,1-.79-1.56H318a1.4,1.4,0,0,0,.59,1.1,2.46,2.46,0,0,0,1.45.39,2.29,2.29,0,0,0,1.37-.37A1.11,1.11,0,0,0,321.89,243.88Z" transform="translate(-109.88 -134.76)"/><path class="cls-1" d="M325.77,236.58v1.87h1.51v.66h-1.51V244a1.51,1.51,0,0,0,.22.91.86.86,0,0,0,.73.29,4.35,4.35,0,0,0,.65-.07l0,.66a2.88,2.88,0,0,1-.87.11,1.43,1.43,0,0,1-1.2-.48A2.27,2.27,0,0,1,325,244v-4.86h-1.34v-.66H325v-1.87Z" transform="translate(-109.88 -134.76)"/><path class="cls-1" d="M332.49,245.74v-9.81h2.75a4.23,4.23,0,0,1,2.16.55,3.77,3.77,0,0,1,1.49,1.57,4.91,4.91,0,0,1,.54,2.33v.9a4.93,4.93,0,0,1-.54,2.34,3.82,3.82,0,0,1-1.49,1.57,4.51,4.51,0,0,1-2.22.55Zm.83-9.11V245h1.86a3.24,3.24,0,0,0,2.49-1,4,4,0,0,0,.93-2.78v-.87a3.87,3.87,0,0,0-.92-2.71,3.11,3.11,0,0,0-2.43-1Z" transform="translate(-109.88 -134.76)"/><path class="cls-1" d="M345.94,245.74a3.81,3.81,0,0,1-.15-1,2.9,2.9,0,0,1-1.08.85,3.36,3.36,0,0,1-1.4.3,2.45,2.45,0,0,1-1.7-.58,2,2,0,0,1,.24-3.17,4.27,4.27,0,0,1,2.47-.62h1.46v-.83a1.6,1.6,0,0,0-.48-1.23,2,2,0,0,0-1.41-.45,2.24,2.24,0,0,0-1.39.43,1.29,1.29,0,0,0-.55,1h-.81A1.87,1.87,0,0,1,342,239a3.14,3.14,0,0,1,2-.64,2.87,2.87,0,0,1,1.92.61,2.19,2.19,0,0,1,.72,1.7v3.45a4.24,4.24,0,0,0,.23,1.59v.08Zm-2.53-.58a2.68,2.68,0,0,0,1.44-.39,2.25,2.25,0,0,0,.93-1.05v-1.6h-1.44a3.69,3.69,0,0,0-1.89.44,1.34,1.34,0,0,0-.68,1.18,1.26,1.26,0,0,0,.46,1A1.69,1.69,0,0,0,343.41,245.16Z" transform="translate(-109.88 -134.76)"/><path class="cls-1" d="M350,236.58v1.87h1.5v.66H350V244a1.59,1.59,0,0,0,.21.91.88.88,0,0,0,.74.29,4.35,4.35,0,0,0,.65-.07l0,.66a2.81,2.81,0,0,1-.86.11,1.46,1.46,0,0,1-1.21-.48,2.27,2.27,0,0,1-.37-1.42v-4.86h-1.34v-.66h1.34v-1.87Z" transform="translate(-109.88 -134.76)"/><path class="cls-1" d="M357.77,245.74a4.17,4.17,0,0,1-.16-1,2.75,2.75,0,0,1-1.08.85,3.31,3.31,0,0,1-1.39.3,2.44,2.44,0,0,1-1.7-.58,2,2,0,0,1,.24-3.17,4.26,4.26,0,0,1,2.46-.62h1.47v-.83a1.58,1.58,0,0,0-.49-1.23,2,2,0,0,0-1.4-.45,2.27,2.27,0,0,0-1.4.43,1.32,1.32,0,0,0-.55,1H353a1.87,1.87,0,0,1,.81-1.51,3.14,3.14,0,0,1,2-.64,2.87,2.87,0,0,1,1.92.61,2.19,2.19,0,0,1,.73,1.7v3.45a4.27,4.27,0,0,0,.22,1.59v.08Zm-2.54-.58a2.71,2.71,0,0,0,1.45-.39,2.36,2.36,0,0,0,.93-1.05v-1.6h-1.45a3.65,3.65,0,0,0-1.88.44,1.32,1.32,0,0,0-.68,1.18,1.28,1.28,0,0,0,.45,1A1.71,1.71,0,0,0,355.23,245.16Z" transform="translate(-109.88 -134.76)"/><path class="cls-1" d="M364.1,245.74v-9.81H367a3.72,3.72,0,0,1,2.39.65,2.28,2.28,0,0,1,.82,1.92,2.15,2.15,0,0,1-.42,1.32,2.25,2.25,0,0,1-1.13.81,2.26,2.26,0,0,1,1.37.84,2.34,2.34,0,0,1,.53,1.51,2.56,2.56,0,0,1-.84,2,3.44,3.44,0,0,1-2.34.73Zm.83-5.41h2.26a2.59,2.59,0,0,0,1.61-.49,1.67,1.67,0,0,0,.57-1.37,1.64,1.64,0,0,0-.59-1.39,2.92,2.92,0,0,0-1.78-.45h-2.07Zm0,.7v4h2.49a2.46,2.46,0,0,0,1.68-.54,1.9,1.9,0,0,0,.63-1.51,1.81,1.81,0,0,0-.6-1.43,2.36,2.36,0,0,0-1.65-.53Z" transform="translate(-109.88 -134.76)"/><path class="cls-1" d="M377,245.74a3.81,3.81,0,0,1-.15-1,2.9,2.9,0,0,1-1.08.85,3.36,3.36,0,0,1-1.4.3,2.45,2.45,0,0,1-1.7-.58,2,2,0,0,1,.24-3.17,4.27,4.27,0,0,1,2.47-.62h1.46v-.83a1.6,1.6,0,0,0-.48-1.23,2,2,0,0,0-1.41-.45,2.24,2.24,0,0,0-1.39.43,1.29,1.29,0,0,0-.55,1h-.81A1.87,1.87,0,0,1,373,239a3.13,3.13,0,0,1,2-.64,2.88,2.88,0,0,1,1.93.61,2.19,2.19,0,0,1,.72,1.7v3.45a4.49,4.49,0,0,0,.22,1.59v.08Zm-2.53-.58a2.68,2.68,0,0,0,1.44-.39,2.25,2.25,0,0,0,.93-1.05v-1.6h-1.44a3.69,3.69,0,0,0-1.89.44,1.34,1.34,0,0,0-.68,1.18,1.26,1.26,0,0,0,.46,1A1.69,1.69,0,0,0,374.44,245.16Z" transform="translate(-109.88 -134.76)"/><path class="cls-1" d="M380.53,238.45l0,1.24a2.85,2.85,0,0,1,1-1,2.63,2.63,0,0,1,1.36-.36,2.18,2.18,0,0,1,1.74.66,3,3,0,0,1,.58,2v4.79h-.8V241a2.23,2.23,0,0,0-.42-1.46,1.61,1.61,0,0,0-1.3-.48,2,2,0,0,0-1.32.47,2.71,2.71,0,0,0-.86,1.27v5h-.8v-7.29Z" transform="translate(-109.88 -134.76)"/><path class="cls-1" d="M389.07,242.07l-.92.89v2.78h-.81V235.39h.81V242l.76-.82,2.79-2.74h1l-3.09,3.07,3.36,4.22h-1Z" transform="translate(-109.88 -134.76)"/><path class="cls-1" d="M402.94,243h-4.45l-1,2.76h-.87l3.71-9.81h.79l3.71,9.81H404Zm-4.2-.7h3.94l-2-5.34Z" transform="translate(-109.88 -134.76)"/><path class="cls-1" d="M405.75,242a4.36,4.36,0,0,1,.76-2.71,2.45,2.45,0,0,1,2.06-1,2.54,2.54,0,0,1,2.25,1.17v-4.09h.8v10.35h-.75l0-1a2.6,2.6,0,0,1-2.27,1.1,2.43,2.43,0,0,1-2-1,4.46,4.46,0,0,1-.77-2.74Zm.82.14a3.75,3.75,0,0,0,.56,2.2,1.8,1.8,0,0,0,1.57.8,2.18,2.18,0,0,0,2.12-1.31v-3.42a2.16,2.16,0,0,0-2.1-1.43,1.85,1.85,0,0,0-1.59.8A4.13,4.13,0,0,0,406.57,242.17Z" transform="translate(-109.88 -134.76)"/><path class="cls-1" d="M414.48,238.45l0,1.18a2.68,2.68,0,0,1,1-1,2.74,2.74,0,0,1,1.34-.33,2,2,0,0,1,2.19,1.42,2.65,2.65,0,0,1,1.05-1,2.91,2.91,0,0,1,1.44-.37c1.56,0,2.36.86,2.39,2.56v4.87h-.81v-4.81a2.1,2.1,0,0,0-.42-1.44,1.68,1.68,0,0,0-1.35-.48,2.14,2.14,0,0,0-1.47.57,2,2,0,0,0-.67,1.33v4.83h-.8v-4.87a2,2,0,0,0-.45-1.4,1.76,1.76,0,0,0-1.33-.46,2,2,0,0,0-1.31.44,2.61,2.61,0,0,0-.81,1.29v5h-.81v-7.29Z" transform="translate(-109.88 -134.76)"/><path class="cls-1" d="M425.93,236.34a.56.56,0,0,1,.14-.38.53.53,0,0,1,.41-.16.54.54,0,0,1,.41.16.56.56,0,0,1,0,.76.54.54,0,0,1-.41.16.53.53,0,0,1-.41-.16A.56.56,0,0,1,425.93,236.34Zm.95,9.4h-.81v-7.29h.81Z" transform="translate(-109.88 -134.76)"/><path class="cls-1" d="M429.83,238.45l0,1.24a2.93,2.93,0,0,1,1-1,2.63,2.63,0,0,1,1.36-.36A2.18,2.18,0,0,1,434,239a2.91,2.91,0,0,1,.58,2v4.79h-.8V241a2.23,2.23,0,0,0-.41-1.46A1.63,1.63,0,0,0,432,239a2.05,2.05,0,0,0-1.32.47,2.7,2.7,0,0,0-.85,1.27v5h-.81v-7.29Z" transform="translate(-109.88 -134.76)"/><path class="cls-1" d="M436.6,236.34a.52.52,0,0,1,.15-.38.51.51,0,0,1,.4-.16.53.53,0,0,1,.41.16.56.56,0,0,1,0,.76.53.53,0,0,1-.41.16.51.51,0,0,1-.4-.16A.52.52,0,0,1,436.6,236.34Zm.95,9.4h-.81v-7.29h.81Z" transform="translate(-109.88 -134.76)"/><path class="cls-1" d="M444.11,243.88a1.16,1.16,0,0,0-.49-1,3.76,3.76,0,0,0-1.45-.57,6.36,6.36,0,0,1-1.5-.47,2,2,0,0,1-.8-.65,1.66,1.66,0,0,1-.26-.93,1.73,1.73,0,0,1,.72-1.42,2.9,2.9,0,0,1,1.85-.57,3,3,0,0,1,2,.61,1.92,1.92,0,0,1,.73,1.57h-.81a1.31,1.31,0,0,0-.53-1.07,2.13,2.13,0,0,0-1.35-.42,2.16,2.16,0,0,0-1.28.35,1.11,1.11,0,0,0-.48.92,1,1,0,0,0,.4.85,4.39,4.39,0,0,0,1.46.55,6.46,6.46,0,0,1,1.59.53,2.07,2.07,0,0,1,.79.68,1.76,1.76,0,0,1,.25,1,1.74,1.74,0,0,1-.74,1.48,3.18,3.18,0,0,1-1.94.55,3.29,3.29,0,0,1-2.07-.61,1.89,1.89,0,0,1-.79-1.56h.81a1.4,1.4,0,0,0,.59,1.1,2.47,2.47,0,0,0,1.46.39,2.28,2.28,0,0,0,1.36-.37A1.12,1.12,0,0,0,444.11,243.88Z" transform="translate(-109.88 -134.76)"/><path class="cls-1" d="M448,236.58v1.87h1.51v.66H448V244a1.51,1.51,0,0,0,.22.91.86.86,0,0,0,.73.29,4.35,4.35,0,0,0,.65-.07l0,.66a2.83,2.83,0,0,1-.87.11,1.43,1.43,0,0,1-1.2-.48,2.27,2.27,0,0,1-.38-1.42v-4.86h-1.34v-.66h1.34v-1.87Z" transform="translate(-109.88 -134.76)"/><path class="cls-1" d="M454.53,239.13a3.16,3.16,0,0,0-.55,0,1.94,1.94,0,0,0-1.27.42,2.32,2.32,0,0,0-.75,1.22v5h-.8v-7.29H452v1.16a2.14,2.14,0,0,1,2.06-1.3,1.3,1.3,0,0,1,.53.09Z" transform="translate(-109.88 -134.76)"/><path class="cls-1" d="M460.14,245.74a3.74,3.74,0,0,1-.16-1,2.75,2.75,0,0,1-1.08.85,3.31,3.31,0,0,1-1.39.3,2.44,2.44,0,0,1-1.7-.58,1.9,1.9,0,0,1-.65-1.49,1.94,1.94,0,0,1,.88-1.68,4.3,4.3,0,0,1,2.47-.62H460v-.83a1.61,1.61,0,0,0-.49-1.23,2,2,0,0,0-1.4-.45,2.27,2.27,0,0,0-1.4.43,1.29,1.29,0,0,0-.55,1h-.81a1.87,1.87,0,0,1,.81-1.51,3.14,3.14,0,0,1,2-.64,2.87,2.87,0,0,1,1.92.61,2.23,2.23,0,0,1,.73,1.7v3.45a4.27,4.27,0,0,0,.22,1.59v.08Zm-2.54-.58a2.74,2.74,0,0,0,1.45-.39,2.36,2.36,0,0,0,.93-1.05v-1.6h-1.45a3.65,3.65,0,0,0-1.88.44,1.32,1.32,0,0,0-.68,1.18,1.28,1.28,0,0,0,.45,1A1.71,1.71,0,0,0,457.6,245.16Z" transform="translate(-109.88 -134.76)"/><path class="cls-1" d="M464.18,236.58v1.87h1.51v.66h-1.51V244a1.51,1.51,0,0,0,.22.91.86.86,0,0,0,.73.29,4.35,4.35,0,0,0,.65-.07l0,.66a2.88,2.88,0,0,1-.87.11,1.43,1.43,0,0,1-1.2-.48,2.27,2.27,0,0,1-.38-1.42v-4.86H462v-.66h1.34v-1.87Z" transform="translate(-109.88 -134.76)"/><path class="cls-1" d="M467.31,236.34a.52.52,0,0,1,.15-.38.51.51,0,0,1,.4-.16.51.51,0,0,1,.41.16.56.56,0,0,1,0,.76.51.51,0,0,1-.41.16.51.51,0,0,1-.4-.16A.52.52,0,0,1,467.31,236.34Zm.95,9.4h-.81v-7.29h.81Z" transform="translate(-109.88 -134.76)"/><path class="cls-1" d="M470,242a4.31,4.31,0,0,1,.4-1.9,3.15,3.15,0,0,1,1.16-1.31,3.11,3.11,0,0,1,1.69-.47,3,3,0,0,1,2.35,1,3.91,3.91,0,0,1,.91,2.71v.17a4.34,4.34,0,0,1-.41,1.9,3.13,3.13,0,0,1-1.15,1.31,3.19,3.19,0,0,1-1.69.45,3,3,0,0,1-2.36-1,3.93,3.93,0,0,1-.9-2.7Zm.81.22a3.3,3.3,0,0,0,.67,2.14,2.3,2.3,0,0,0,3.55,0,3.41,3.41,0,0,0,.67-2.21V242a3.64,3.64,0,0,0-.31-1.53,2.4,2.4,0,0,0-.86-1.08,2.27,2.27,0,0,0-1.28-.38,2.14,2.14,0,0,0-1.76.85,3.37,3.37,0,0,0-.68,2.21Z" transform="translate(-109.88 -134.76)"/><path class="cls-1" d="M479,238.45l0,1.24a2.85,2.85,0,0,1,1-1,2.62,2.62,0,0,1,1.35-.36,2.18,2.18,0,0,1,1.75.66,3,3,0,0,1,.58,2v4.79h-.8V241a2.29,2.29,0,0,0-.42-1.46,1.61,1.61,0,0,0-1.3-.48,2.08,2.08,0,0,0-1.33.47,2.77,2.77,0,0,0-.85,1.27v5h-.8v-7.29Z" transform="translate(-109.88 -134.76)"/><path class="cls-1" d="M283.09,220.1,289.21,167h8.64l12.88,42.55L323.55,167h8.64l6.26,53.13h-8.64l-4.89-41.76,1.44.15L314.84,220.1h-8.35l-11.67-41.61,1.51-.07-4.68,41.68Z" transform="translate(-109.88 -134.76)"/><path class="cls-1" d="M346.88,220.1V167h22a18.51,18.51,0,0,1,8.67,1.83,14,14,0,0,1,5.58,5.33,25,25,0,0,1,3,8.39,61.34,61.34,0,0,1,.9,11,45.75,45.75,0,0,1-2,14.65,18.11,18.11,0,0,1-6.05,8.89,16.31,16.31,0,0,1-10.08,3Zm8.85-8H368a8,8,0,0,0,5.86-2.16,13.06,13.06,0,0,0,3.24-6.33,41.94,41.94,0,0,0,1.05-10.08,53,53,0,0,0-.65-9.08,17.55,17.55,0,0,0-1.87-5.68,7,7,0,0,0-3.13-3A11,11,0,0,0,368,175H355.73Z" transform="translate(-109.88 -134.76)"/><path class="cls-1" d="M395.55,220.1V167h20.3q7.5,0,11.09,3.53t3.6,10.29a14.79,14.79,0,0,1-1,5.58,10.82,10.82,0,0,1-2.63,4,8.8,8.8,0,0,1-3.89,2.13,13.62,13.62,0,0,1,3.28,1.33,11.29,11.29,0,0,1,3,2.48,11.87,11.87,0,0,1,2.16,3.85,16.07,16.07,0,0,1,.79,5.3,17.37,17.37,0,0,1-1.84,8.67,10.46,10.46,0,0,1-5.32,4.61,22.43,22.43,0,0,1-8.39,1.4Zm8.86-30.67H416a5.38,5.38,0,0,0,4.32-2,8.2,8.2,0,0,0,1.73-5.22c0-2.73-.54-4.63-1.77-5.69a6.66,6.66,0,0,0-4.5-1.58H404.41Zm0,22.68h12a8.92,8.92,0,0,0,3.89-.79,5.5,5.5,0,0,0,2.55-2.56,10.8,10.8,0,0,0,.9-4.86,8.29,8.29,0,0,0-.93-4.1,6.64,6.64,0,0,0-2.59-2.56,7.9,7.9,0,0,0-3.82-.9h-12Z" transform="translate(-109.88 -134.76)"/><path class="cls-1" d="M436.81,220.1,454.08,167h11.24L482.6,220.1h-9.29l-4.11-12.6H450l-4,12.6Zm15.26-20.59h15l-7.49-24.91Z" transform="translate(-109.88 -134.76)"/><path id="Ellipse_1" data-name="Ellipse 1" class="cls-2" d="M184.88,134.76a75,75,0,1,1-75,75h0a75,75,0,0,1,75-75" transform="translate(-109.88 -134.76)"/><path class="cls-3" d="M218.91,210.76v6c0,4.89-8.55,9-18.67,9s-18.68-4.13-18.68-9v-6c2.83,3.89,10,6.6,18.68,6.6S216.09,214.65,218.91,210.76Z" transform="translate(-109.88 -134.76)"/><path class="cls-3" d="M218.91,204.45c0,5.16-8.36,9.34-18.67,9.34s-18.68-4.18-18.68-9.34,8.36-9.33,18.68-9.33S218.91,199.3,218.91,204.45Z" transform="translate(-109.88 -134.76)"/><path class="cls-3" d="M218.91,222.77v6c0,4.89-8.55,9-18.67,9s-18.68-4.13-18.68-9v-6c2.83,3.9,10,6.6,18.68,6.6S216.09,226.67,218.91,222.77Z" transform="translate(-109.88 -134.76)"/><path class="cls-3" d="M218.91,234.79v6c0,4.88-8.55,9-18.67,9s-18.68-4.13-18.68-9v-6c2.83,3.9,10,6.6,18.68,6.6S216.09,238.69,218.91,234.79Z" transform="translate(-109.88 -134.76)"/><path class="cls-3" d="M200,182.87V173a3.27,3.27,0,0,0-3.28-3.28H154.12a3.28,3.28,0,0,0-3.28,3.28v9.83a3.28,3.28,0,0,0,3.28,3.28,3.28,3.28,0,0,0-3.28,3.28v9.84a3.28,3.28,0,0,0,3.28,3.27,3.28,3.28,0,0,0-3.28,3.28v9.84a3.28,3.28,0,0,0,3.28,3.28,3.28,3.28,0,0,0-3.28,3.28v9.83a3.28,3.28,0,0,0,3.28,3.28h24.54l-.1-32.55c.67-5.87,9.83-10.37,21.41-10.37h0v-3a3.28,3.28,0,0,0-3.28-3.28A3.28,3.28,0,0,0,200,182.87ZM160.42,230a2.87,2.87,0,1,1,2.86-2.86A2.87,2.87,0,0,1,160.42,230Zm0-16.39a2.87,2.87,0,1,1,2.86-2.87A2.87,2.87,0,0,1,160.42,213.61Zm0-16.39a2.87,2.87,0,1,1,2.86-2.87A2.88,2.88,0,0,1,160.42,197.22Zm0-16.4a2.87,2.87,0,1,1,2.86-2.87A2.87,2.87,0,0,1,160.42,180.82Zm17.51-4.55a1.16,1.16,0,1,1,1.16-1.16A1.16,1.16,0,0,1,177.93,176.27Zm2.61,5.23a1.17,1.17,0,1,1,1.16-1.17A1.16,1.16,0,0,1,180.54,181.5Zm2.61-5.23a1.16,1.16,0,1,1,1.16-1.16A1.16,1.16,0,0,1,183.15,176.27Zm2.62,5.23a1.17,1.17,0,1,1,1.16-1.17A1.16,1.16,0,0,1,185.77,181.5Zm2.61-5.23a1.16,1.16,0,1,1,1.16-1.16A1.16,1.16,0,0,1,188.38,176.27ZM191,181.5a1.17,1.17,0,1,1,1.16-1.17A1.16,1.16,0,0,1,191,181.5Zm2.62-5.23a1.16,1.16,0,1,1,1.16-1.16A1.16,1.16,0,0,1,193.61,176.27Z" transform="translate(-109.88 -134.76)"/></svg>